<svg xmlns="http://www.w3.org/2000/svg" viewBox="0 0 458.76 326.34"><defs><style>.cls-1,.cls-2{fill:none;}.cls-2{stroke:#231f20;stroke-miterlimit:10;}.cls-3{fill:#929392;}.cls-4{fill:#767777;}.cls-5{fill:#2c2d2c;}.cls-6{fill:#4d4b4b;}</style></defs><title>Chichen Itza</title><g id="Building"><path class="cls-1" d="M393.5,237" transform="translate(-401.24 -73.61)"/><path class="cls-1" d="M623.25,325.25" transform="translate(-401.24 -73.61)"/><path class="cls-1" d="M611.79,280.15" transform="translate(-401.24 -73.61)"/><path class="cls-1" d="M606.31,277.3" transform="translate(-401.24 -73.61)"/><path class="cls-1" d="M606.05,306.17" transform="translate(-401.24 -73.61)"/><path class="cls-1" d="M569.78,251.16" transform="translate(-401.24 -73.61)"/><path class="cls-1" d="M598.54,274.33" transform="translate(-401.24 -73.61)"/><path class="cls-1" d="M458.71,226.59" transform="translate(-401.24 -73.61)"/><path class="cls-1" d="M459,255.17" transform="translate(-401.24 -73.61)"/><path class="cls-1" d="M631.94,355" transform="translate(-401.24 -73.61)"/><path class="cls-1" d="M631.67,326.93" transform="translate(-401.24 -73.61)"/><polygon class="cls-1" points="220.47 79.03 420.23 194.46 229.38 304.27 29.62 188.84 220.47 79.03"/><path class="cls-1" d="M821.47,245.19" transform="translate(-401.24 -73.61)"/><path class="cls-2" d="M920.47,302.07" transform="translate(-401.24 -73.61)"/><path class="cls-1" d="M720.72,186.64" transform="translate(-401.24 -73.61)"/><path class="cls-2" d="M920.47,302.07" transform="translate(-401.24 -73.61)"/><path class="cls-1" d="M720.72,186.64" transform="translate(-401.24 -73.61)"/><path class="cls-2" d="M938.4,234" transform="translate(-401.24 -73.61)"/><path class="cls-1" d="M738.64,118.53" transform="translate(-401.24 -73.61)"/><path class="cls-2" d="M979.17,196" transform="translate(-401.24 -73.61)"/><path class="cls-1" d="M779.41,80.59" transform="translate(-401.24 -73.61)"/><polygon class="cls-3" points="220.17 58.03 419.93 173.46 229.07 283.27 29.32 167.84 220.17 58.03"/><polygon class="cls-4" points="229.38 304.27 229.07 283.27 29.32 167.84 29.62 188.84 229.38 304.27"/><polygon class="cls-5" points="420.23 194.46 419.93 173.46 229.07 283.27 229.38 304.27 420.23 194.46"/><polygon class="cls-3" points="220.59 55.52 395.65 156.68 228.39 252.92 53.32 151.75 220.59 55.52"/><polygon class="cls-4" points="228.66 271.32 228.39 252.92 53.32 151.75 53.59 170.16 228.66 271.32"/><polygon class="cls-5" points="395.92 175.09 395.65 156.68 228.39 252.92 228.66 271.32 395.92 175.09"/><polygon class="cls-3" points="222.11 47.56 376.06 136.52 228.97 221.15 75.02 132.19 222.11 47.56"/><polygon class="cls-4" points="229.09 243.49 228.97 221.15 75.02 132.19 75.13 154.53 229.09 243.49"/><polygon class="cls-5" points="376.18 158.86 376.06 136.52 228.97 221.15 229.09 243.49 376.18 158.86"/><polygon class="cls-3" points="221.85 37.3 355.09 114.3 227.8 187.54 94.56 110.55 221.85 37.3"/><polygon class="cls-4" points="228 209.16 227.8 187.54 94.56 110.55 94.76 132.17 228 209.16"/><polygon class="cls-5" points="355.3 135.92 355.09 114.3 227.8 187.54 228 209.16 355.3 135.92"/><polygon class="cls-3" points="223.07 30.18 329.98 91.96 227.84 150.73 120.93 88.95 223.07 30.18"/><polygon class="cls-4" points="228 175.73 227.84 150.73 120.93 88.95 121.1 113.96 228 175.73"/><polygon class="cls-5" points="330.14 116.97 329.98 91.96 227.84 150.73 228 175.73 330.14 116.97"/><polygon class="cls-5" points="297.14 89.27 297.04 40.74 227.12 80.96 227.12 129.6 297.14 89.27"/><polygon class="cls-3" points="157.1 40.43 227.12 0 297.14 40.43 227.12 80.86 157.1 40.43"/><polygon class="cls-4" points="157.1 89.17 156.99 40.43 227.01 81.06 227.12 129.6 157.1 89.17"/><path class="cls-6" d="M655.74,209" transform="translate(-401.24 -73.61)"/><polygon class="cls-3" points="244.24 140.24 316.02 98.36 367.79 234.41 291.56 278.43 244.24 140.24"/><polygon class="cls-3" points="244.78 140.5 244.78 166.01 255.52 171.59 244.78 140.5"/><path class="cls-3" d="M661.32,267.76" transform="translate(-401.24 -73.61)"/><path class="cls-3" d="M662,245.22" transform="translate(-401.24 -73.61)"/><polygon class="cls-3" points="254.7 170.15 254.7 193.71 265.45 199.29 254.7 170.15"/><polygon class="cls-3" points="265.13 199.29 265.13 222.85 273.92 227.41 265.13 199.29"/><polygon class="cls-3" points="283.25 252.37 283.66 273.34 291.55 278.43 283.25 252.37"/><polygon class="cls-3" points="274.05 224 274.05 247.56 282.8 252.11 274.05 224"/><polygon class="cls-3" points="208.81 139.68 137.03 97.81 85.27 233.86 161.49 277.87 208.81 139.68"/><polygon class="cls-5" points="208.7 140.5 208.7 164.06 197.96 169.64 208.7 140.5"/><polygon class="cls-5" points="198.34 167.95 198.34 191.51 187.59 197.09 198.34 167.95"/><polygon class="cls-5" points="187.92 196.16 187.92 219.71 179.13 224.28 187.92 196.16"/><polygon class="cls-5" points="171.51 250.71 171.51 272.07 161.49 277.87 171.51 250.71"/><polygon class="cls-5" points="179.42 223.61 179.42 247.16 170.67 251.71 179.42 223.61"/><polygon points="179.43 101.91 192.58 109.5 192.58 87.61 179.43 79.84 179.43 101.91"/><polygon class="cls-5" points="179.43 79.84 181.68 81.17 181.68 100.42 179.43 101.91 179.43 79.84"/><polygon class="cls-4" points="192.14 106.06 181.68 100.42 179.43 101.91 192.58 109.5 192.14 106.06"/><polygon points="270.29 105.05 257.14 112.64 257.14 90.75 270.29 82.97 270.29 105.05"/><polygon class="cls-5" points="270.29 82.97 268.04 84.31 268.04 103.55 270.29 105.05 270.29 82.97"/><polygon class="cls-4" points="257.57 109.19 268.04 103.55 270.29 105.05 257.14 112.64 257.57 109.19"/><polygon class="cls-1" points="0 193.91 229.38 326.34 458.76 193.91 229.38 61.48 0 193.91"/><path class="cls-1" d="M560.59,328.55" transform="translate(-401.24 -73.61)"/><path class="cls-1" d="M529.82,289.59" transform="translate(-401.24 -73.61)"/><path class="cls-1" d="M573.5,306.15" transform="translate(-401.24 -73.61)"/><path class="cls-1" d="M604.59,319.74" transform="translate(-401.24 -73.61)"/><path class="cls-1" d="M520.5,214.41" transform="translate(-401.24 -73.61)"/><path class="cls-1" d="M542.22,204.06" transform="translate(-401.24 -73.61)"/><path class="cls-1" d="M488,237" transform="translate(-401.24 -73.61)"/><path class="cls-1" d="M594.32,311.22" transform="translate(-401.24 -73.61)"/><path class="cls-1" d="M590.27,347.86" transform="translate(-401.24 -73.61)"/><path class="cls-1" d="M597.69,322.7" transform="translate(-401.24 -73.61)"/><path class="cls-1" d="M578.28,297.52" transform="translate(-401.24 -73.61)"/><path class="cls-1" d="M591.19,275.11" transform="translate(-401.24 -73.61)"/><polygon class="cls-1" points="181.77 183.57 170.79 189.09 189.91 200.12 200.88 194.6 181.77 183.57"/><path class="cls-1" d="M615.94,211.67" transform="translate(-401.24 -73.61)"/><path class="cls-1" d="M628.85,189.27" transform="translate(-401.24 -73.61)"/><path class="cls-1" d="M653.81,217.85" transform="translate(-401.24 -73.61)"/><path class="cls-1" d="M659.7,190.61" transform="translate(-401.24 -73.61)"/><path class="cls-1" d="M726.48,228.5" transform="translate(-401.24 -73.61)"/><path class="cls-1" d="M726.22,231.63" transform="translate(-401.24 -73.61)"/><path class="cls-1" d="M745.9,241.55" transform="translate(-401.24 -73.61)"/><path class="cls-1" d="M737.91,259.51" transform="translate(-401.24 -73.61)"/><path class="cls-1" d="M737.41,227.11" transform="translate(-401.24 -73.61)"/><path class="cls-1" d="M729.43,223.7" transform="translate(-401.24 -73.61)"/><path class="cls-1" d="M737.15,230.25" transform="translate(-401.24 -73.61)"/><path class="cls-1" d="M687.65,201.64" transform="translate(-401.24 -73.61)"/><path class="cls-1" d="M679.66,219.6" transform="translate(-401.24 -73.61)"/><path class="cls-1" d="M687.39,204.78" transform="translate(-401.24 -73.61)"/><path class="cls-1" d="M707.06,214.7" transform="translate(-401.24 -73.61)"/><path class="cls-1" d="M699.08,232.66" transform="translate(-401.24 -73.61)"/><path class="cls-1" d="M706.8,217.84" transform="translate(-401.24 -73.61)"/><path class="cls-1" d="M698.58,200.25" transform="translate(-401.24 -73.61)"/><path class="cls-1" d="M690.6,196.85" transform="translate(-401.24 -73.61)"/><path class="cls-1" d="M698.32,203.39" transform="translate(-401.24 -73.61)"/><path class="cls-1" d="M601.56,285.35" transform="translate(-401.24 -73.61)"/><path class="cls-1" d="M614.47,290" transform="translate(-401.24 -73.61)"/><path class="cls-1" d="M741.82,263.32" transform="translate(-401.24 -73.61)"/><path class="cls-1" d="M695.33,307.61" transform="translate(-401.24 -73.61)"/><path class="cls-1" d="M576.15,262.45" transform="translate(-401.24 -73.61)"/><path class="cls-1" d="M618.68,278.42" transform="translate(-401.24 -73.61)"/><path class="cls-1" d="M609.16,241.17" transform="translate(-401.24 -73.61)"/><path class="cls-1" d="M619.78,222.73" transform="translate(-401.24 -73.61)"/><path class="cls-1" d="M628.31,231.16" transform="translate(-401.24 -73.61)"/><path class="cls-1" d="M638.93,235" transform="translate(-401.24 -73.61)"/><path class="cls-1" d="M607.4,212.31" transform="translate(-401.24 -73.61)"/><path class="cls-1" d="M642.4,225.46" transform="translate(-401.24 -73.61)"/><polygon class="cls-1" points="250.15 157.38 241.12 161.92 241.12 155.77 250.15 151.23 250.15 157.38"/><path class="cls-1" d="M655.74,274" transform="translate(-401.24 -73.61)"/><path class="cls-1" d="M666.37,255.61" transform="translate(-401.24 -73.61)"/><polygon class="cls-1" points="258.39 167.24 249.36 171.78 265.09 180.86 274.12 176.32 258.39 167.24"/><path class="cls-1" d="M674.9,264" transform="translate(-401.24 -73.61)"/><path class="cls-1" d="M685.52,267.86" transform="translate(-401.24 -73.61)"/><path class="cls-1" d="M654,245.19" transform="translate(-401.24 -73.61)"/><path class="cls-1" d="M689,258.33" transform="translate(-401.24 -73.61)"/><path class="cls-1" d="M555.89,257.67" transform="translate(-401.24 -73.61)"/><path class="cls-2" d="M201.37,196.17" transform="translate(-401.24 -73.61)"/><path class="cls-1" d="M349.37,311.17" transform="translate(-401.24 -73.61)"/><path class="cls-1" d="M767,304.3" transform="translate(-401.24 -73.61)"/><path class="cls-1" d="M690.8,347.86" transform="translate(-401.24 -73.61)"/></g></svg>