<svg xmlns="http://www.w3.org/2000/svg" viewBox="0 0 382.39 309.01"><defs><style>.cls-1,.cls-4,.cls-5{fill:none;}.cls-2{fill:#b47a2b;}.cls-3{fill:#efc85b;}.cls-4,.cls-6{stroke:#000;}.cls-4,.cls-5,.cls-6,.cls-7{stroke-miterlimit:10;}.cls-5,.cls-7{stroke:#231f20;}.cls-6{fill:#4d4b4b;}.cls-7{fill:#929392;}</style></defs><title>Pyramid</title><g id="Base"><path class="cls-1" d="M560.59,328.55" transform="translate(-439.56 -68.87)"/><path class="cls-1" d="M529.82,289.59" transform="translate(-439.56 -68.87)"/><path class="cls-1" d="M573.5,306.15" transform="translate(-439.56 -68.87)"/><path class="cls-1" d="M604.59,319.74" transform="translate(-439.56 -68.87)"/><path class="cls-1" d="M520.5,214.41" transform="translate(-439.56 -68.87)"/><path class="cls-1" d="M542.22,204.06" transform="translate(-439.56 -68.87)"/><path class="cls-1" d="M488,237" transform="translate(-439.56 -68.87)"/><path class="cls-1" d="M594.32,311.22" transform="translate(-439.56 -68.87)"/><path class="cls-1" d="M590.27,347.86" transform="translate(-439.56 -68.87)"/><path class="cls-1" d="M597.69,322.7" transform="translate(-439.56 -68.87)"/><path class="cls-1" d="M578.28,297.52" transform="translate(-439.56 -68.87)"/><path class="cls-1" d="M591.19,275.11" transform="translate(-439.56 -68.87)"/><polygon class="cls-1" points="143.45 188.31 132.48 193.83 151.59 204.86 162.57 199.34 143.45 188.31"/><path class="cls-1" d="M615.94,211.67" transform="translate(-439.56 -68.87)"/><path class="cls-1" d="M628.85,189.27" transform="translate(-439.56 -68.87)"/><path class="cls-1" d="M653.81,217.85" transform="translate(-439.56 -68.87)"/><path class="cls-1" d="M659.7,190.61" transform="translate(-439.56 -68.87)"/><path class="cls-1" d="M726.48,228.5" transform="translate(-439.56 -68.87)"/><path class="cls-1" d="M718.5,246.45" transform="translate(-439.56 -68.87)"/><path class="cls-1" d="M726.22,231.63" transform="translate(-439.56 -68.87)"/><path class="cls-1" d="M745.9,241.55" transform="translate(-439.56 -68.87)"/><path class="cls-1" d="M737.91,259.51" transform="translate(-439.56 -68.87)"/><path class="cls-1" d="M737.41,227.11" transform="translate(-439.56 -68.87)"/><path class="cls-1" d="M729.43,223.7" transform="translate(-439.56 -68.87)"/><path class="cls-1" d="M737.15,230.25" transform="translate(-439.56 -68.87)"/><path class="cls-1" d="M687.65,201.64" transform="translate(-439.56 -68.87)"/><path class="cls-1" d="M679.66,219.6" transform="translate(-439.56 -68.87)"/><path class="cls-1" d="M687.39,204.78" transform="translate(-439.56 -68.87)"/><path class="cls-1" d="M707.06,214.7" transform="translate(-439.56 -68.87)"/><path class="cls-1" d="M699.08,232.66" transform="translate(-439.56 -68.87)"/><path class="cls-1" d="M706.8,217.84" transform="translate(-439.56 -68.87)"/><path class="cls-1" d="M698.58,200.25" transform="translate(-439.56 -68.87)"/><path class="cls-1" d="M690.6,196.85" transform="translate(-439.56 -68.87)"/><path class="cls-1" d="M698.32,203.39" transform="translate(-439.56 -68.87)"/><path class="cls-1" d="M601.56,285.35" transform="translate(-439.56 -68.87)"/><path class="cls-1" d="M614.47,290" transform="translate(-439.56 -68.87)"/><path class="cls-1" d="M741.82,263.32" transform="translate(-439.56 -68.87)"/><path class="cls-1" d="M695.33,307.61" transform="translate(-439.56 -68.87)"/><path class="cls-1" d="M576.15,262.45" transform="translate(-439.56 -68.87)"/><path class="cls-1" d="M618.68,278.42" transform="translate(-439.56 -68.87)"/><path class="cls-1" d="M609.16,241.17" transform="translate(-439.56 -68.87)"/><path class="cls-1" d="M619.78,222.73" transform="translate(-439.56 -68.87)"/><path class="cls-1" d="M628.31,231.16" transform="translate(-439.56 -68.87)"/><path class="cls-1" d="M638.93,235" transform="translate(-439.56 -68.87)"/><path class="cls-1" d="M607.4,212.31" transform="translate(-439.56 -68.87)"/><path class="cls-1" d="M642.4,225.46" transform="translate(-439.56 -68.87)"/><polygon class="cls-1" points="211.83 162.12 202.8 166.66 202.8 160.51 211.83 155.97 211.83 162.12"/><path class="cls-1" d="M655.74,274" transform="translate(-439.56 -68.87)"/><path class="cls-1" d="M666.37,255.61" transform="translate(-439.56 -68.87)"/><polygon class="cls-1" points="220.07 171.98 211.04 176.52 226.77 185.6 235.8 181.06 220.07 171.98"/><path class="cls-1" d="M674.9,264" transform="translate(-439.56 -68.87)"/><path class="cls-1" d="M685.52,267.86" transform="translate(-439.56 -68.87)"/><path class="cls-1" d="M654,245.19" transform="translate(-439.56 -68.87)"/><path class="cls-1" d="M689,258.33" transform="translate(-439.56 -68.87)"/><path class="cls-1" d="M555.89,257.67" transform="translate(-439.56 -68.87)"/><path class="cls-1" d="M349.37,311.17" transform="translate(-439.56 -68.87)"/><polygon class="cls-2" points="191.06 309.01 382.39 198.65 191.24 0 191.06 309.01"/><polygon class="cls-3" points="191.33 309.01 0 198.65 191.15 0 191.33 309.01"/><line class="cls-2" x1="8.84" y1="189.46" x2="191.06" y2="291.13"/><line class="cls-2" x1="19.11" y1="178.79" x2="191.33" y2="273.63"/><line class="cls-2" x1="30.78" y1="166.66" x2="191.06" y2="253.83"/><line class="cls-2" x1="43.1" y1="153.86" x2="191.33" y2="234.13"/><line class="cls-2" x1="53.74" y1="142.8" x2="191.06" y2="216.48"/><line class="cls-2" x1="63.72" y1="132.43" x2="191.06" y2="198.65"/><line class="cls-2" x1="75.3" y1="120.4" x2="192.11" y2="179.64"/><line class="cls-2" x1="84.96" y1="110.36" x2="191.06" y2="161.32"/><line class="cls-2" x1="95.58" y1="99.32" x2="192.11" y2="145.54"/><line class="cls-2" x1="106.2" y1="88.29" x2="191.06" y2="127.97"/><line class="cls-2" x1="116.33" y1="77.76" x2="191.33" y2="112.63"/><line class="cls-2" x1="127.43" y1="66.22" x2="191.33" y2="95.19"/><line class="cls-2" x1="138.01" y1="55.23" x2="191.06" y2="80.7"/><line class="cls-2" x1="147.52" y1="45.34" x2="191.06" y2="66.22"/><line class="cls-2" x1="158.14" y1="34.31" x2="191.33" y2="49.66"/><line class="cls-2" x1="166.49" y1="25.62" x2="191.06" y2="36.63"/><line class="cls-2" x1="176.38" y1="15.35" x2="191.06" y2="22.07"/></g><g id="Building"><path class="cls-4" d="M393.5,237" transform="translate(-439.56 -68.87)"/><path class="cls-4" d="M623.25,325.25" transform="translate(-439.56 -68.87)"/><path class="cls-4" d="M611.79,280.15" transform="translate(-439.56 -68.87)"/><path class="cls-4" d="M606.31,277.3" transform="translate(-439.56 -68.87)"/><path class="cls-4" d="M606.05,306.17" transform="translate(-439.56 -68.87)"/><path class="cls-4" d="M569.78,251.16" transform="translate(-439.56 -68.87)"/><path class="cls-4" d="M598.54,274.33" transform="translate(-439.56 -68.87)"/><path class="cls-5" d="M458.71,226.59" transform="translate(-439.56 -68.87)"/><path class="cls-5" d="M459,255.17" transform="translate(-439.56 -68.87)"/><path class="cls-5" d="M631.94,355" transform="translate(-439.56 -68.87)"/><path class="cls-5" d="M631.67,326.93" transform="translate(-439.56 -68.87)"/><path class="cls-5" d="M821.47,245.19" transform="translate(-439.56 -68.87)"/><path class="cls-5" d="M720.72,186.64" transform="translate(-439.56 -68.87)"/><path class="cls-5" d="M720.72,186.64" transform="translate(-439.56 -68.87)"/><path class="cls-5" d="M738.64,118.53" transform="translate(-439.56 -68.87)"/><path class="cls-5" d="M779.41,80.59" transform="translate(-439.56 -68.87)"/><path class="cls-6" d="M655.74,209" transform="translate(-439.56 -68.87)"/><path class="cls-7" d="M661.32,267.76" transform="translate(-439.56 -68.87)"/><path class="cls-7" d="M662,245.22" transform="translate(-439.56 -68.87)"/></g></svg>