<svg id="Building" xmlns="http://www.w3.org/2000/svg" viewBox="0 0 277.27 244.74"><defs><style>.cls-1{fill:none;}.cls-2{fill:#6c6565;}.cls-3{fill:#211f1f;}.cls-4{fill:#333232;}.cls-5{fill:#4d4b4b;}.cls-6{fill:#a4a0a0;}.cls-7{fill:#767777;}.cls-8{fill:#2c2d2c;}</style></defs><title>smaller top base home</title><path class="cls-1" d="M-122.45,120.76" transform="translate(-0.05 0)"/><polygon class="cls-1" points="31.72 94.77 31.72 94.66 31.81 58.25 31.64 94.71 31.72 94.77"/><polygon class="cls-1" points="31.77 94.8 31.72 94.77 31.72 94.77 31.77 94.8"/><polygon class="cls-1" points="31.72 95.13 31.72 94.77 31.64 94.73 31.72 95.13"/><polygon class="cls-1" points="31.63 94.72 31.64 94.73 31.64 94.71 31.63 94.72"/><polygon class="cls-1" points="31.77 95.92 31.77 96.39 32.18 96.15 31.77 95.92"/><polygon class="cls-1" points="39.11 130.74 39.16 130.72 39.16 130.01 39.12 130.03 39.11 130.74"/><polygon class="cls-1" points="0.16 151.64 0.1 151.67 0.16 151.64 0.16 151.64"/><polygon class="cls-1" points="33.73 133.02 33.71 133.03 34.26 133.35 34.28 133.33 33.73 133.02"/><polygon class="cls-2" points="20.05 125.17 33.71 133.03 33.73 133.02 20.05 125.17"/><polygon class="cls-2" points="0.15 146.42 0.1 151.67 0.16 151.64 0.15 146.42"/><polygon class="cls-2" points="23.41 105 39.16 114.06 20.05 103.06 23.41 105"/><polygon class="cls-2" points="39.16 130.01 39.16 114.06 39.12 130.03 39.16 130.01"/><polygon class="cls-3" points="140.49 157.34 140.48 157.35 162.58 170.06 162.58 170.05 162.58 170.05 140.49 157.34"/><polygon class="cls-3" points="0.16 151.64 0.1 151.67 90.56 203.5 114.94 217.42 114.94 217.42 0.16 151.66 0.16 151.64"/><polygon class="cls-3" points="34.26 133.35 39.16 136.17 39.16 136.13 34.28 133.33 34.26 133.35"/><polygon class="cls-3" points="39.11 131.63 39.16 136.13 39.16 130.72 39.11 130.74 39.11 131.63"/><polygon class="cls-3" points="57.5 133.88 62.28 136.64 62.28 181.28 57.43 184.35 57.43 184.39 75.85 194.98 76.62 144.85 57.5 133.85 57.5 133.88"/><path class="cls-4" d="M162.63,170.05h0l.05,0v74.65l114.64-66.19-.17-74.62Zm35.25,32.62-13.15,7.59V188.37l13.15-7.77Zm57.34-31-13.15,7.59v-21.9l13.15-7.77Z" transform="translate(-0.05 0)"/><path class="cls-5" d="M162.63,170.06l-22.1-12.71h0l-.09-50.12L31.89,45.72l0,12.53-.09,36.41v.11h0l-.09,0L.84,77l-.79-.46.15,69.9v5.22h0v0L115,217.42l47.69,27.32V170.09ZM31.82,95.92ZM39.21,130v6.16l-4.9-2.82-.55-.32L20.1,125.17V103.06l19.11,11Zm10-68.32,13.15,7.77V91.35L49.18,83.76ZM75.9,195,57.48,184.39v0l-.06,0,.08-50.54,0,0v0l19.12,11Zm38.38-80.29v3.2l-13.15-7.59V88.23L114.28,96Zm13.41,80.58v3.2l-13.15-7.59V168.81l13.15,7.77Z" transform="translate(-0.05 0)"/><polygon class="cls-4" points="62.28 136.64 57.5 133.88 57.45 133.85 57.37 184.39 57.37 184.39 62.28 181.28 62.28 136.64"/><polygon class="cls-6" points="140.49 157.34 162.58 170.05 162.58 170.05 277.1 103.93 277.27 103.83 217.3 69.33 217.4 112.94 140.49 157.34"/><polygon class="cls-6" points="31.81 58.25 0 76.52 0 76.52 31.72 94.77 31.81 58.25"/><polygon class="cls-4" points="23.41 122.84 23.41 105 20.05 103.06 20.05 125.17 23.46 122.87 23.41 122.84"/><polygon class="cls-7" points="23.46 122.87 20.05 125.17 33.73 133.02 34.28 133.33 39.16 136.13 39.11 131.63 23.46 122.87"/><polygon class="cls-3" points="242.02 176.04 252.92 170.16 252.92 150.91 255.17 149.58 242.02 157.35 242.02 176.04"/><polygon class="cls-8" points="252.92 170.16 255.17 171.66 255.17 149.58 252.92 150.91 252.92 170.16"/><polygon class="cls-7" points="242.02 176.04 242.02 179.25 255.17 171.66 252.92 170.16 242.02 176.04"/><polygon class="cls-3" points="184.68 207.16 195.58 201.17 195.58 181.93 197.83 180.6 184.68 188.37 184.68 207.16"/><polygon class="cls-8" points="195.58 201.17 197.83 202.67 197.83 180.6 195.58 181.93 195.58 201.17"/><polygon class="cls-7" points="184.68 207.16 184.68 210.26 197.83 202.67 195.58 201.17 184.68 207.16"/><polygon class="cls-3" points="116.74 170.14 116.74 189.39 127.64 195.27 127.64 176.58 114.49 168.81 116.74 170.14"/><polygon class="cls-8" points="116.74 170.14 114.49 168.81 114.49 190.88 116.74 189.39 116.74 170.14"/><polygon class="cls-7" points="114.49 190.88 127.64 198.47 127.64 195.27 116.74 189.39 114.49 190.88"/><polygon class="cls-4" points="140.48 157.35 140.48 157.35 140.48 157.35 217.4 112.94 217.3 69.33 217.28 62.84 140.39 107.23 140.48 157.35"/><polygon class="cls-6" points="217.28 62.84 108.66 0.2 108.58 0.16 108.31 0 31.84 45.72 140.39 107.23 217.28 62.84"/><polygon class="cls-3" points="51.38 82.27 62.28 88.14 62.28 69.46 49.13 61.69 51.38 63.02 51.38 82.27"/><polygon class="cls-8" points="51.38 63.02 49.13 61.69 49.13 83.76 51.38 82.27 51.38 63.02"/><polygon class="cls-7" points="62.28 88.14 51.38 82.27 49.13 83.76 62.28 91.35 62.28 88.14"/><polygon class="cls-3" points="103.33 89.56 103.33 108.81 114.23 114.69 114.23 96 101.08 88.23 103.33 89.56"/><polygon class="cls-8" points="103.33 89.56 101.08 88.23 101.08 110.3 103.33 108.81 103.33 89.56"/><polygon class="cls-7" points="101.08 110.3 114.23 117.89 114.23 114.69 103.33 108.81 101.08 110.3"/><polygon class="cls-3" points="23.41 122.84 23.46 122.87 39.11 131.63 39.11 130.74 39.12 130.03 39.16 114.06 23.41 105 23.41 122.84"/><polygon class="cls-7" points="57.37 184.39 75.85 195.02 75.94 189.17 62.28 181.28 57.37 184.39"/></svg>