<svg id="Building" xmlns="http://www.w3.org/2000/svg" viewBox="0 0 277.27 234.8"><defs><style>.cls-1{fill:none;}.cls-2{fill:#6c6565;}.cls-3{fill:#161515;}.cls-4{fill:#211f1f;}.cls-5{fill:#4d4b4b;}.cls-6{fill:#333232;}.cls-7{fill:#a4a0a0;}</style></defs><title>stonehenge 1 story homewide</title><path class="cls-1" d="M-122.45,110.41" transform="translate(-0.05 0)"/><polygon class="cls-2" points="161.95 0.17 161.95 0.3 162.07 0.24 161.95 0.17"/><polygon class="cls-3" points="253.77 112.49 253.77 94.7 238.11 103.71 238.11 119.68 239.57 120.49 253.77 112.49"/><polygon class="cls-2" points="243.52 122.68 243.54 122.69 257.22 114.82 243.52 122.68"/><polygon class="cls-2" points="210.7 104.47 276.48 66.63 276.48 66.62 210.69 104.47 210.7 104.47"/><polygon class="cls-4" points="114.69 159.7 114.69 159.71 210.7 104.47 210.69 104.47 114.69 159.7"/><polygon class="cls-4" points="239.57 120.49 238.11 119.68 238.11 125.78 238.16 121.28 239.57 120.49"/><polygon class="cls-3" points="219.84 174.04 219.84 174 214.99 170.93 214.99 126.29 219.77 123.53 219.77 123.5 200.65 134.5 201.42 184.63 219.84 174.04"/><polygon class="cls-4" points="238.11 125.78 238.11 125.82 243.54 122.69 243.52 122.68 238.11 125.78"/><path class="cls-5" d="M114.69,159.74l0,0h0L.22,93.58.05,168.2l114.64,66.19ZM35.3,165l-13.15-7.59V135.38l13.15,7.77ZM92.64,196.7v3.21l-13.15-7.59V170.25L92.64,178Z" transform="translate(-0.05 0)"/><path class="cls-6" d="M276.52,66.63l-65.77,37.84-96,55.24,0,0V234.8l162.47-93.49.16-75.14Zm-56.7,56.87v0l.05,0L220,174l-.06,0v0l-18.42,10.59-.77-50.13Zm18.34,2.32V103.71l15.66-9h0l3.45-2v22.11l-13.68,7.87Z" transform="translate(-0.05 0)"/><polygon class="cls-5" points="214.99 170.93 219.82 174.07 219.99 174.18 219.82 123.5 219.77 123.53 214.99 126.29 214.99 170.93"/><polygon class="cls-7" points="114.69 159.7 210.69 104.47 276.48 66.62 277.17 66.22 162.48 0 162.07 0.24 161.95 0.3 0 93.48 0.17 93.58 114.69 159.7"/><polygon class="cls-5" points="257.22 114.82 257.22 92.71 253.77 94.7 253.77 94.7 253.77 112.49 239.57 120.49 238.16 121.28 238.11 125.78 243.52 122.68 257.22 114.82"/><polygon class="cls-4" points="24.35 136.71 24.35 155.96 34.81 161.6 35.25 165.04 35.25 143.15 22.1 135.38 24.35 136.71"/><polygon class="cls-6" points="24.35 136.71 22.1 135.38 22.1 157.45 24.35 155.96 24.35 136.71"/><polygon class="cls-7" points="24.35 155.96 22.1 157.45 35.25 165.04 34.81 161.6 24.35 155.96"/><polygon class="cls-4" points="81.69 171.58 81.69 190.82 92.59 196.7 92.59 178.02 79.44 170.25 81.69 171.58"/><polygon class="cls-6" points="81.69 171.58 79.44 170.25 79.44 192.32 81.69 190.82 81.69 171.58"/><polygon class="cls-7" points="79.44 192.32 92.59 199.91 92.59 196.7 81.69 190.82 79.44 192.32"/><path class="cls-5" d="M253.82,112.49l3.45,2.33Z" transform="translate(-0.05 0)"/><polygon class="cls-7" points="257.22 114.82 238.11 125.78 238.16 121.28 253.77 112.49 257.22 114.82"/><polygon class="cls-7" points="214.99 170.93 219.99 174.18 201.42 184.86 201.42 178.52 214.99 170.93"/></svg>