<svg id="Building" xmlns="http://www.w3.org/2000/svg" viewBox="0 0 220.61 196.76"><defs><style>.cls-1,.cls-14{fill:none;}.cls-2{fill:#605245;}.cls-3{fill:#786a5d;}.cls-4{fill:#211f1f;}.cls-5{fill:#77614e;}.cls-6{fill:#6c5e51;}.cls-7{fill:#646464;}.cls-8{fill:#998d57;}.cls-9{fill:#bbb570;}.cls-10{fill:#8d814b;}.cls-11{fill:#afa964;}.cls-12{fill:#a59963;}.cls-13{fill:#c7c17c;}.cls-14{stroke:#a4a0a0;stroke-linecap:round;stroke-linejoin:round;stroke-width:0;}.cls-15{fill:#a4a0a0;}</style></defs><title>china hut</title><polygon class="cls-1" points="70.11 151.42 70.11 151.4 70.11 151.41 70.03 162.22 70.03 162.25 70.08 162.25 70.08 162.22 70.11 151.42"/><polygon class="cls-1" points="150.68 144.63 150.68 144.63 150.68 144.63 150.59 144.26 150.68 144.63"/><polygon class="cls-1" points="70.22 144.53 70.11 151.32 70.11 151.32 70.27 144.53 70.22 144.53"/><polygon class="cls-1" points="71.84 138.67 71.34 140.5 70.22 144.53 71.84 138.67 71.84 138.67"/><polygon class="cls-1" points="71.86 138.63 110.16 0 71.86 138.63 71.86 138.63"/><polygon class="cls-2" points="150.84 162.25 150.79 162.25 148.75 162.25 148.7 162.25 148.7 196.67 148.7 196.76 213.7 159.2 213.7 126.14 150.84 162.22 150.84 162.25"/><polygon class="cls-1" points="32.76 173.4 32.77 173.4 32.77 168.87 32.76 173.4"/><polygon class="cls-3" points="72.23 162.25 70.08 162.25 70.03 162.25 70.03 162.25 70.03 162.25 6.49 125.81 6.49 158.77 32.77 173.92 32.77 173.4 32.76 173.4 32.77 168.87 32.76 157.35 32.76 145.86 32.79 145.87 32.79 145.86 45.94 153.63 45.89 178.75 45.93 178.78 45.95 181.53 72.23 196.67 72.23 162.25"/><polygon class="cls-4" points="35.06 172.53 45.89 178.75 45.94 153.63 32.79 145.86 32.79 145.87 35.01 147.19 35.02 172.53 32.77 173.92 42.56 179.65 32.77 173.92 35.06 172.53"/><polygon class="cls-2" points="35.02 172.53 35.01 147.19 32.79 145.87 32.76 145.86 32.76 157.35 32.77 168.87 32.77 173.4 32.77 173.92 32.77 173.92 32.77 173.92 32.77 173.92 35.02 172.53"/><polygon class="cls-5" points="45.89 178.75 35.06 172.53 32.77 173.92 42.56 179.65 45.95 181.53 45.95 181.53 45.93 178.78 45.89 178.75"/><polygon class="cls-6" points="72.28 162.25 72.23 162.25 72.23 196.67 148.7 196.67 148.7 162.25 72.28 162.25"/><polygon class="cls-7" points="70.03 162.25 70.03 162.25 70.03 162.25 70.03 162.25"/><polygon class="cls-7" points="150.68 144.63 150.68 144.63 150.68 144.63 150.68 144.63"/><polygon class="cls-8" points="70.11 151.32 70.11 151.4 70.11 151.42 70.03 162.25 70.08 162.25 72.23 162.25 72.28 162.25 148.7 162.25 148.75 162.25 150.79 162.25 150.68 144.63 70.22 144.53 70.11 151.32"/><polygon class="cls-7" points="150.84 162.22 150.79 162.25 150.84 162.25 150.84 162.22"/><polygon class="cls-9" points="71.84 138.67 70.22 144.53 70.27 144.53 150.68 144.63 150.68 144.63 150.59 144.26 149.3 139.06 141.11 105.57 110.16 0.05 110.17 0.06 110.16 0 71.86 138.63 71.84 138.67"/><polygon class="cls-10" points="220.47 104.86 220.47 104.89 194.62 119.27 150.68 144.63 150.68 144.63 150.68 144.63 150.68 144.63 150.79 162.25 150.84 162.22 213.7 126.14 220.61 122.18 220.47 104.86"/><path class="cls-11" d="M605.06,313.34l8.19,33.49,1.28,5.21.09.36h0l44-25.35,25.84-14.39v0l.14-27.08L574.12,207.83h0ZM677.93,310h0l-.28.17h0Z" transform="translate(-463.95 -207.77)"/><polygon class="cls-12" points="70.03 162.25 70.03 162.22 70.11 151.41 70.11 151.4 70.11 151.32 70.11 151.32 70.22 144.53 0 105.74 0 122.09 6.49 125.81 70.03 162.25 70.03 162.25"/><polygon class="cls-13" points="70.22 144.53 70.22 144.53 70.22 144.53 70.22 144.53 70.22 144.53 70.22 144.53 110.16 0 0 75.84 0 99.01 0 105.74 70.22 144.53"/><line class="cls-14" y1="105.74" x2="70.22" y2="144.53"/><polygon class="cls-15" points="213.99 102.18 213.98 102.18 213.7 102.34 213.7 102.35 213.99 102.18"/></svg>