<svg id="hut" xmlns="http://www.w3.org/2000/svg" viewBox="0 0 290 255.25"><defs><style>.cls-1{fill:#8d814b;}.cls-2{fill:#6c5e51;}.cls-3{fill:#c7c17c;}.cls-4{fill:#5f5e5d;}.cls-5{fill:#afa964;}.cls-6{fill:#bbb570;}.cls-7{fill:#161515;}.cls-8{fill:#554943;}.cls-9{fill:#817766;}</style></defs><title>Triangle hut</title><polygon class="cls-1" points="286.8 178 114.7 67.65 57.4 1.45 210.3 89.75 286.8 178"/><polygon class="cls-2" points="133.85 244.2 269.57 166.95 191.15 78.7 133.85 244.2"/><polygon class="cls-3" points="153 255.25 0 166.95 57.4 1.45 210.3 89.75 153 255.25"/><path class="cls-4" d="M657.3,394.8l3.2-1.85Z" transform="translate(-370.5 -216.8)"/><polygon class="cls-5" points="290 176.15 212.97 88.16 210.3 89.75 286.8 178 290 176.15"/><polygon class="cls-6" points="212.97 88.16 60.03 0 57.4 1.45 210.3 89.75 212.97 88.16"/><polygon class="cls-5" points="153 255.25 210.3 89.75 211.95 91.66 155.79 253.68 153 255.25"/><polygon class="cls-7" points="223.9 192.77 223.9 192.74 219.05 189.66 219.05 145.02 223.83 142.26 223.83 142.23 204.71 153.23 205.48 203.36 223.9 192.77"/><polygon class="cls-8" points="219.05 189.66 224.02 192.88 224.02 192.88 223.88 142.23 223.83 142.26 219.05 145.02 219.05 189.66"/><polyline class="cls-9" points="219.05 189.66 224.02 192.88 205.48 203.41 205.38 197.3"/></svg>