<?xml version="1.0" encoding="UTF-8"?>
<svg width="40px" height="40px" viewBox="0 0 40 40" version="1.1" xmlns="http://www.w3.org/2000/svg" xmlns:xlink="http://www.w3.org/1999/xlink">
    <!-- Generator: Sketch 45.2 (43514) - http://www.bohemiancoding.com/sketch -->
    <title>Group 3</title>
    <desc>Created with Sketch.</desc>
    <defs></defs>
    <g id="App" stroke="none" stroke-width="1" fill="none" fill-rule="evenodd">
        <g id="Default" transform="translate(-21.000000, -682.000000)" fill-rule="nonzero">
            <g id="Tab-Bar" transform="translate(0.000000, 672.000000)">
                <g id="Workers" transform="translate(0.000000, 10.000000)">
                    <g id="Group-3" transform="translate(21.000000, 0.000000)">
                        <polygon id="Shape" fill="#787680" points="24.3278902 15.4926605 32.0745547 7.74599593 29.6533669 5.32547667 24.3278902 0 16.5812256 7.74599593"></polygon>
                        <polygon id="Shape" fill="#898890" points="24.3278902 15.4926605 32.0745547 23.2393252 39.8205507 15.4926605 34.4947397 10.1671839 32.0745547 7.74599593"></polygon>
                        <path d="M3.39173587,39.3337723 C3.92632295,39.8683593 4.79322989,39.8683593 5.32815128,39.3337723 L26.7487437,17.9138485 L24.3285588,15.4926605 L1.93875571,37.8824637 L3.39173587,39.3337723 Z" id="Shape" fill="#8B5E3C"></path>
                        <path d="M21.9067022,13.0714726 L0.486444154,34.4923994 C-0.0481429244,35.0273208 -0.0481429244,35.8938934 0.486444154,36.4288148 L1.93875571,37.881795 L24.3285588,15.4919919 L21.9067022,13.0714726 Z" id="Shape" fill="#754C29"></path>
                        <path d="M34.0106358,5.80958052 L32.5586586,4.35726897 C32.0237372,3.82234758 31.1564959,3.82234758 30.6215746,4.35726897 L29.6533669,5.32547667 L32.0745547,7.74599593 L34.0106358,5.80958052 Z" id="Shape" fill="#754C29"></path>
                        <path d="M34.4947397,10.1671839 L35.4629474,9.19897618 C35.9982031,8.66405479 35.9982031,7.79681346 35.4629474,7.26189208 L34.0106358,5.80958052 L32.0745547,7.74599593 L34.4947397,10.1671839 Z" id="Shape" fill="#8B5E3C"></path>
                    </g>
                </g>
            </g>
        </g>
    </g>
</svg>