<?xml version="1.0" encoding="UTF-8"?>
<svg width="40px" height="33px" viewBox="0 0 40 33" version="1.1" xmlns="http://www.w3.org/2000/svg" xmlns:xlink="http://www.w3.org/1999/xlink">
    <!-- Generator: Sketch 45.2 (43514) - http://www.bohemiancoding.com/sketch -->
    <title>diamond</title>
    <desc>Created with Sketch.</desc>
    <defs></defs>
    <g id="App" stroke="none" stroke-width="1" fill="none" fill-rule="evenodd">
        <g id="Default" transform="translate(-103.000000, -686.000000)" fill-rule="nonzero">
            <g id="Tab-Bar" transform="translate(0.000000, 672.000000)">
                <g id="Diamonds" transform="translate(82.000000, 14.000000)">
                    <g id="diamond" transform="translate(21.000000, 0.000000)">
                        <path d="M32.0927335,0.510102238 C31.8731072,0.205860745 31.5207253,0.0256645432 31.1454786,0.0256645432 L24.7105999,0.0256645432 L14.939175,0.0256645432 L8.2751042,0.0256645432 C7.88959165,0.0256645432 7.52888816,0.215893248 7.3111284,0.53397804 L0,11.2128389 L19.6987812,32.2523203 C19.7467661,32.3035716 19.811783,32.3282251 19.8764887,32.3271363 C19.8834104,32.3269808 19.8902543,32.3258142 19.8970981,32.3251143 C19.9516936,32.319437 20.0048115,32.2960278 20.0455636,32.2526314 L39.8189276,11.2128389 L32.0927335,0.510102238 Z" id="Shape" fill="#2B96F5"></path>
                        <path d="M14.939175,0.0256645432 L8.2751042,0.0256645432 C7.88959165,0.0256645432 7.52888816,0.215893248 7.3111284,0.53397804 L0,11.2128389 L11.8316655,11.2128389 L14.939175,0.0256645432 Z" id="Shape" fill="#49D5FF"></path>
                        <path d="M39.8189276,11.2128389 L32.0927335,0.510102238 C31.8731072,0.205860745 31.5207253,0.0256645432 31.1454786,0.0256645432 L24.7105999,0.0256645432 L27.9872621,11.2129167 L39.8189276,11.2129167 L39.8189276,11.2128389 Z" id="Shape" fill="#2B96F5"></path>
                        <path d="M19.8194823,32.2862286 L11.8316655,11.2128389 L0,11.2128389 L19.6987812,32.2523203 C19.7467661,32.3035716 19.811783,32.3282251 19.8764887,32.3271363 C19.8526907,32.3261253 19.8295148,32.3126709 19.8194823,32.2862286 Z" id="Shape" fill="#2BB7FF"></path>
                        <path d="M39.8189276,11.2128389 L27.9872621,11.2128389 L19.9394835,32.2862286 C19.9314731,32.3072269 19.9152189,32.3201369 19.8970204,32.3251143 C19.9516159,32.319437 20.0047337,32.2960278 20.0454859,32.2526314 L39.8189276,11.2128389 Z" id="Shape" fill="#2B84E9"></path>
                        <polygon id="Shape" fill="#2BB7FF" points="27.9872621 11.2128389 24.7106776 0.0256645432 14.939175 0.0256645432 11.8316655 11.2128389"></polygon>
                        <path d="M19.9395613,32.2863064 L27.9873399,11.2129167 L11.8316655,11.2129167 L19.8194823,32.2862286 C19.8295148,32.3126709 19.8527685,32.3261253 19.876411,32.3272141 C19.8833326,32.3270586 19.8901765,32.325892 19.8970204,32.3251921 C19.9152189,32.3201369 19.9315508,32.3073046 19.9395613,32.2863064 Z" id="Shape" fill="#2B96F5"></path>
                    </g>
                </g>
            </g>
        </g>
    </g>
</svg>