<?xml version="1.0" encoding="UTF-8"?>
<svg width="40px" height="32px" viewBox="0 0 40 32" version="1.1" xmlns="http://www.w3.org/2000/svg" xmlns:xlink="http://www.w3.org/1999/xlink">
    <!-- Generator: Sketch 45.2 (43514) - http://www.bohemiancoding.com/sketch -->
    <title>map</title>
    <desc>Created with Sketch.</desc>
    <defs></defs>
    <g id="App" stroke="none" stroke-width="1" fill="none" fill-rule="evenodd">
        <g id="Default" transform="translate(-349.000000, -688.000000)" fill-rule="nonzero">
            <g id="Tab-Bar" transform="translate(0.000000, 672.000000)">
                <g id="Items-Copy-2" transform="translate(328.000000, 16.000000)">
                    <g id="map" transform="translate(21.000000, 0.000000)">
                        <polygon id="Shape" fill="#FFEBCC" points="26.3390075 3.38090076 13.7117951 0.0451161435 0 2.11803902 0 30.6857684 13.7117951 28.6326717 26.1664266 31.9576846 39.9644732 30.369409 39.9644732 1.81252936"></polygon>
                        <g id="Group" fill="#FFD699">
                            <polygon id="Shape" points="26.3390075 3.38090076 26.1664266 31.9576846 39.9644732 30.369409 39.9644732 1.81252936"></polygon>
                            <polygon id="Shape" points="13.7117951 0.0451161435 0 2.11803902 0 30.6857684 13.7117951 28.6326717"></polygon>
                        </g>
                        <polygon id="Shape" fill="#FFC266" points="26.2878031 11.8481393 18.8821208 9.91719962 18.8821208 19.3998637 13.7117951 18.20452 7.50223706 19.0266798 7.50223706 13.11787 5.16056871 13.11787 5.16056871 21.6987575 13.7117951 20.5703856 21.2237891 22.314226 21.2237891 12.9619149 26.2733628 14.2431977 32.5491901 13.503855 32.5491901 23.3028004 34.8908584 23.3028004 34.8908584 10.8701025"></polygon>
                        <g id="Group" transform="translate(5.151670, 10.849730)" fill="#FF9900">
                            <polygon id="Shape" points="8.56012476 7.35479001 2.35056669 8.17694976 2.35056669 2.26813996 0.00889833973 2.26813996 0.00889833973 10.8490275 8.56012476 9.71683087"></polygon>
                            <polygon id="Shape" points="21.1361327 0.998409328 21.0147562 0.966796806 21.0147562 3.36630436 21.1216924 3.39346772 27.3975197 2.65412496 27.3975197 12.4530703 29.739188 12.4530703 29.739188 0.0203725146"></polygon>
                        </g>
                        <path d="M6.33140288,14.577666 C4.25606028,14.577666 2.56763934,12.8892451 2.56763934,10.8139025 C2.56763934,8.73855989 4.25606028,7.05013895 6.33140288,7.05013895 C8.40674548,7.05013895 10.0951664,8.73855989 10.0951664,10.8139025 C10.0951664,12.8892451 8.40674548,14.577666 6.33140288,14.577666 Z M6.33140288,9.3918073 C5.54725621,9.3918073 4.90930769,10.0297558 4.90930769,10.8139025 C4.90930769,11.5980492 5.54725621,12.2359977 6.33140288,12.2359977 C7.11554956,12.2359977 7.75349807,11.5980492 7.75349807,10.8139025 C7.75349807,10.0297558 7.11554956,9.3918073 6.33140288,9.3918073 Z" id="Shape" fill="#00C47A"></path>
                        <path d="M6.33140288,7.05013895 L6.33140288,9.3918073 C7.11554956,9.3918073 7.75349807,10.0297558 7.75349807,10.8139025 C7.75349807,11.5980492 7.11554956,12.2359977 6.33140288,12.2359977 L6.33140288,14.577666 C8.40674548,14.577666 10.0951664,12.8892451 10.0951664,10.8139025 C10.0951664,8.73855989 8.40674548,7.05013895 6.33140288,7.05013895 Z" id="Shape" fill="#00935C"></path>
                        <polygon id="Shape" fill="#AB5E00" points="36.629391 22.0491492 34.9735973 20.3934335 33.7200242 21.6470067 32.4664511 20.3934335 30.8106574 22.0491492 32.0642305 23.3028004 30.8106574 24.5563735 32.4664511 26.2121672 33.7200242 24.958516 34.9735973 26.2121672 36.629391 24.5563735 35.3758179 23.3028004"></polygon>
                        <polygon id="Shape" fill="#703E00" points="36.629391 22.0491492 34.9735973 20.3934335 33.7200242 21.6470067 33.7200242 24.958516 34.9735973 26.2121672 36.629391 24.5563735 35.3758179 23.3028004"></polygon>
                    </g>
                </g>
            </g>
        </g>
    </g>
</svg>