<?xml version="1.0" encoding="UTF-8"?>
<svg width="335px" height="261px" viewBox="0 0 335 261" version="1.1" xmlns="http://www.w3.org/2000/svg" xmlns:xlink="http://www.w3.org/1999/xlink">
    <!-- Generator: Sketch 45.2 (43514) - http://www.bohemiancoding.com/sketch -->
    <title>Group</title>
    <desc>Created with Sketch.</desc>
    <defs></defs>
    <g id="App" stroke="none" stroke-width="1" fill="none" fill-rule="evenodd">
        <g id="Default" transform="translate(-39.000000, -267.000000)">
            <g id="Group" transform="translate(39.000000, 252.000000)">
                <g id="Group-2" transform="translate(0.000000, 57.754215)">
                    <polygon id="Fill-1" fill="#A8DA61" points="0.806516382 89.5771195 167.90974 181.213423 335.012964 89.5771195 164.025082 0.0676807212"></polygon>
                    <polygon id="Fill-2" fill="#7DA34A" points="167.608722 180.82595 167.608722 217.481219 334.711946 125.844915 334.711946 90.0490503"></polygon>
                    <polygon id="Fill-3" fill="#658441" points="0.806516382 126.232201 167.90974 217.868504 167.90974 181.213236 0.806516382 89.5769328"></polygon>
                </g>
                <g id="stonehenge-mockup-colored" transform="translate(38.803613, 0.000000)">
                    <polygon id="Shape" fill="#545352" fill-rule="nonzero" points="94.4872849 72.9475041 118.951442 86.0050602 118.951442 36.3263124 94.4872849 23.2687563"></polygon>
                    <polygon id="Shape" fill="#302F2E" fill-rule="nonzero" points="135.168004 78.2446712 118.658451 86.499448 118.658451 36.8207002 135.168004 28.5659233"></polygon>
                    <polygon id="Shape" fill="#9D9A98" fill-rule="nonzero" points="110.996839 15.381651 94.4872849 23.6364279 118.951442 36.6939839 135.460995 28.4392071"></polygon>
                    <g id="Base">
                        <polygon id="Shape" fill="#545352" fill-rule="nonzero" points="84.0935139 144.831131 112.910189 161.340685 112.910189 99.2047286 84.0935139 82.6951749"></polygon>
                        <polygon id="Shape" fill="#545352" fill-rule="nonzero" points="160.299514 114.720914 183.863149 128.378817 183.863149 77.3492877 160.299514 63.6913842"></polygon>
                        <polygon id="Shape" fill="#302F2E" fill-rule="nonzero" points="196.994473 121.590142 183.33657 128.34405 183.33657 77.3145207 196.994473 70.4105255"></polygon>
                        <polygon id="Shape" fill="#545352" fill-rule="nonzero" points="188.135956 132.148792 211.699592 145.806696 211.699592 94.6270796 188.135956 80.9691761"></polygon>
                        <polygon id="Shape" fill="#302F2E" fill-rule="nonzero" points="225.640706 138.717847 212.13289 145.621842 212.13289 94.4422257 225.640706 87.6883174"></polygon>
                        <polygon id="Shape" fill="#545352" fill-rule="nonzero" points="157.419882 63.3979957 217.454622 98.518319 217.454622 89.363021 157.419882 54.0926109"></polygon>
                        <polygon id="Shape" fill="#302F2E" fill-rule="nonzero" points="230.59018 91.2344382 216.932276 97.9883466 216.932276 88.8330486 230.59018 81.9290534"></polygon>
                        <polygon id="Shape" fill="#9D9A98" fill-rule="nonzero" points="170.927698 47.3734696 157.419882 54.127378 217.454622 89.3977881 231.112526 82.4937929"></polygon>
                        <polygon id="Shape" fill="#302F2E" fill-rule="nonzero" points="129.269656 153.085908 112.910189 161.340685 112.910189 99.2047286 129.269656 90.9499517"></polygon>
                        <polygon id="Shape" fill="#302F2E" fill-rule="nonzero" points="164.239893 173.947981 147.730339 182.202757 147.730339 120.066801 164.239893 111.812024"></polygon>
                        <polygon id="Shape" fill="#545352" fill-rule="nonzero" points="119.06375 165.693204 147.730339 182.202757 147.730339 120.066801 119.06375 103.557247"></polygon>
                        <polygon id="Shape" fill="#545352" fill-rule="nonzero" points="0.194963906 158.188861 20.7568626 170.64607 20.7568626 120.967322 0.194963906 108.510113"></polygon>
                        <polygon id="Shape" fill="#302F2E" fill-rule="nonzero" points="37.2664162 162.391293 20.7568626 170.64607 20.7568626 120.967322 37.2664162 112.712545"></polygon>
                        <polygon id="Shape" fill="#9D9A98" fill-rule="nonzero" points="16.7045176 100.255337 0.194963906 108.510113 20.7568626 120.967322 37.2664162 112.712545"></polygon>
                        <polygon id="Shape" fill="#545352" fill-rule="nonzero" points="60.23537 185.041188 89.0520455 201.700829 89.0520455 139.564872 60.23537 122.905232"></polygon>
                        <polygon id="Shape" fill="#302F2E" fill-rule="nonzero" points="105.411512 193.295965 89.0520455 201.700829 89.0520455 139.564872 105.411512 131.160008"></polygon>
                        <polygon id="Shape" fill="#9D9A98" fill-rule="nonzero" points="76.7449237 114.650455 60.23537 122.905232 89.0520455 139.564872 105.411512 131.160008"></polygon>
                        <polyline id="Shape" fill="#9D9A98" fill-rule="nonzero" points="89.5023061 111.948891 72.9927524 120.203668 120.270111 147.069215 136.629577 138.814438 89.5023061 111.948891"></polyline>
                        <polygon id="Shape" fill="#545352" fill-rule="nonzero" points="104.811165 214.00795 125.373064 226.465159 125.373064 164.329203 104.811165 151.871994"></polygon>
                        <polygon id="Shape" fill="#302F2E" fill-rule="nonzero" points="141.73253 218.210382 125.373064 226.465159 125.373064 164.329203 141.73253 156.074426"></polygon>
                        <polygon id="Shape" fill="#9D9A98" fill-rule="nonzero" points="121.320719 143.617217 104.811165 151.871994 125.373064 164.329203 141.73253 156.074426"></polygon>
                        <polygon id="Shape" points="100.603068 74.4403981 84.0935139 82.6951749 112.910189 99.2047286 129.269656 90.9499517"></polygon>
                        <polygon id="Shape" points="135.573304 96.803339 119.06375 105.058116 147.730339 121.567669 164.239893 113.312893"></polygon>
                        <polygon id="Shape" fill="#545352" fill-rule="nonzero" points="80.94169 81.9447407 154.033987 124.719493 154.033987 113.462979 80.94169 70.6882268"></polygon>
                        <polygon id="Shape" fill="#302F2E" fill-rule="nonzero" points="170.54354 116.31463 154.033987 124.719493 154.033987 113.462979 170.54354 105.208203"></polygon>
                        <polygon id="Shape" fill="#9D9A98" fill-rule="nonzero" points="97.4512437 62.43345 80.94169 70.6882268 154.033987 113.462979 170.54354 105.208203"></polygon>
                        <polygon id="Shape" points="145.629123 0.597667126 132.121306 7.35157544 155.684942 21.0094789 169.342846 14.2555706"></polygon>
                        <polygon id="Shape" points="174.445799 18.908263 160.937982 25.8122582 184.501618 39.4701617 198.009434 32.5661665"></polygon>
                        <polygon id="Shape" points="203.262474 35.117643 189.754657 41.8715513 189.754657 32.7162534 203.262474 25.8122582"></polygon>
                        <polygon id="Shape" points="215.569596 49.9762413 202.061779 56.7301496 225.625415 70.3880531 239.283318 63.4840579"></polygon>
                        <polygon id="Shape" points="244.386271 68.2868372 230.878455 75.0407455 254.44209 88.698649 267.949907 81.9447407"></polygon>
                        <polygon id="Shape" fill="#302F2E" fill-rule="nonzero" points="240.934274 150.834606 217.370638 165.843291 217.370638 111.962111 240.934274 97.1035127"></polygon>
                        <polygon id="Shape" fill="#545352" fill-rule="nonzero" points="200.410824 156.087645 217.370638 165.843291 217.370638 111.962111 200.410824 102.206466"></polygon>
                        <polygon id="Shape" fill="#9D9A98" fill-rule="nonzero" points="223.97446 87.1977805 200.410824 102.206466 217.370638 111.962111 240.934274 97.1035127"></polygon>
                        <polyline id="Shape" fill="#302F2E" fill-rule="nonzero" points="120.270111 158.775989 120.270111 147.069215 136.629577 138.814438 136.629577 150.521212 120.270111 158.775989"></polyline>
                        <polyline id="Shape" fill="#545352" fill-rule="nonzero" points="120.270111 158.775989 120.270111 147.069215 72.9927524 120.203668 72.9927524 131.910443 120.270111 158.775989"></polyline>
                    </g>
                </g>
            </g>
        </g>
    </g>
</svg>