<?xml version="1.0" encoding="UTF-8"?>
<svg width="16px" height="19px" viewBox="0 0 16 19" version="1.1" xmlns="http://www.w3.org/2000/svg" xmlns:xlink="http://www.w3.org/1999/xlink">
    <!-- Generator: Sketch 45.2 (43514) - http://www.bohemiancoding.com/sketch -->
    <title>click</title>
    <desc>Created with Sketch.</desc>
    <defs></defs>
    <g id="App" stroke="none" stroke-width="1" fill="none" fill-rule="evenodd">
        <g id="Default" transform="translate(-16.000000, -644.000000)" fill-rule="nonzero">
            <g id="click" transform="translate(16.000000, 644.000000)">
                <path d="M15.4615789,13.3313184 L6.89237161,6.32015874 C6.72567399,6.18420797 6.4802834,6.20914871 6.34433263,6.37584633 C6.28773212,6.44526412 6.25676617,6.53206374 6.25669314,6.6216386 L6.25669314,18.3069047 C6.25651055,18.4786416 6.36887169,18.6302579 6.53323226,18.6800663 C6.56985827,18.6910943 6.60794493,18.6966083 6.64617766,18.6964257 C6.77646838,18.6963527 6.89806818,18.6311708 6.97026121,18.5227169 L9.97107406,14.0223193 L15.2154215,14.0223193 C15.4305399,14.0220637 15.6047234,13.8474785 15.6044678,13.63236 C15.6043217,13.51569 15.5518841,13.4051912 15.4615789,13.3313184 Z" id="Shape" fill="#2196F3"></path>
                <g id="Group" fill="#455A64">
                    <path d="M6.64621418,3.89510086 C6.43109573,3.89510086 6.25669314,3.72069827 6.25669314,3.50557982 L6.25669314,0.389521041 C6.25672965,0.174402596 6.43109573,0 6.64621418,0 C6.86133262,0 7.03573522,0.174402596 7.03573522,0.389521041 L7.03573522,3.50557982 C7.03573522,3.72069827 6.86133262,3.89510086 6.64621418,3.89510086 Z" id="Shape"></path>
                    <path d="M3.5301554,7.01115964 L0.414096616,7.01115964 C0.198978171,7.01115964 0.0245755752,6.83675705 0.0245755752,6.6216386 C0.0245755752,6.40652016 0.198978171,6.23211756 0.414096616,6.23211756 L3.5301554,6.23211756 C3.74527384,6.23211756 3.91967644,6.40652016 3.91967644,6.6216386 C3.91967644,6.83675705 3.74527384,7.01115964 3.5301554,7.01115964 Z" id="Shape"></path>
                    <path d="M12.8783683,7.01115964 L9.76230948,7.01115964 C9.54719103,7.01115964 9.37278843,6.83675705 9.37278843,6.6216386 C9.37278843,6.40652016 9.54719103,6.23211756 9.76230948,6.23211756 L12.8783683,6.23211756 C13.0934867,6.23211756 13.2678893,6.40652016 13.2678893,6.6216386 C13.2678893,6.83675705 13.0934867,7.01115964 12.8783683,7.01115964 Z" id="Shape"></path>
                    <path d="M4.44317636,4.80808531 C4.33979827,4.80826789 4.24058306,4.76736946 4.16740408,4.69433655 L1.9635629,2.49286893 C1.81059546,2.3399015 1.81059546,2.09195476 1.9635629,1.93898732 C2.11653033,1.78601989 2.36447707,1.78601989 2.51744451,1.93898732 L4.71818179,4.1428285 C4.87049193,4.29473696 4.87078406,4.54136911 4.71887561,4.69367925 C4.64562359,4.76711384 4.54611625,4.80830441 4.44240951,4.80812182 L4.44317636,4.80812182 L4.44317636,4.80808531 Z" id="Shape"></path>
                    <path d="M2.23933518,11.4180752 C2.02421673,11.4184768 1.849522,11.2443664 1.84912032,11.0292479 C1.84893774,10.9255412 1.8901283,10.8260339 1.9635629,10.7527818 L4.16740408,8.54894066 C4.32212431,8.39951532 4.56871994,8.40378774 4.71818179,8.55850797 C4.86395549,8.709467 4.86395549,8.94875934 4.71818179,9.09968186 L2.51744451,11.3042899 C2.44368127,11.3779071 2.34351663,11.4188785 2.23933518,11.4180752 Z" id="Shape"></path>
                    <path d="M8.84928851,4.80808531 C8.63417007,4.80848699 8.45947534,4.63437652 8.45907366,4.41925808 C8.45889108,4.31555134 8.50008164,4.216044 8.57351623,4.14279199 L10.7750204,1.93895081 C10.9297406,1.78948895 11.1763362,1.79379789 11.3257981,1.94851812 C11.4715718,2.09947715 11.4715718,2.33876949 11.3257981,2.489692 L9.12506079,4.69353318 C9.05199136,4.76685823 8.95277615,4.80808531 8.84928851,4.80808531 Z" id="Shape"></path>
                </g>
            </g>
        </g>
    </g>
</svg>