<?xml version="1.0" encoding="UTF-8"?>
<svg width="16px" height="15px" viewBox="0 0 16 15" version="1.1" xmlns="http://www.w3.org/2000/svg" xmlns:xlink="http://www.w3.org/1999/xlink">
    <!-- Generator: Sketch 45.2 (43514) - http://www.bohemiancoding.com/sketch -->
    <title>coal</title>
    <desc>Created with Sketch.</desc>
    <defs></defs>
    <g id="App" stroke="none" stroke-width="1" fill="none" fill-rule="evenodd">
        <g id="Default" transform="translate(-351.000000, -80.000000)" fill-rule="nonzero">
            <g id="Group-6" transform="translate(-14.000000, 0.000000)">
                <g id="Group-4" transform="translate(231.000000, 76.000000)">
                    <g id="coal" transform="translate(134.000000, 4.000000)">
                        <path d="M15.9619097,10.6469161 L13.5565419,3.26828387 C13.5276387,3.17966452 13.4826323,3.09873548 13.4259097,3.02730323 C13.347871,2.92913548 13.247071,2.8496 13.1295484,2.79834839 L6.85465806,0.0659096774 C6.71432258,0.0048 6.56170323,-0.0122322581 6.41563871,0.0126451613 C6.30405161,0.0316387097 6.19618065,0.0750451613 6.10054194,0.142296774 L0.329135484,4.19695484 C0.12283871,4.34188387 0,4.57821935 0,4.8304 L0,11.1473548 C0,11.4700903 0.200206452,11.7589677 0.502348387,11.8722581 L6.14348387,13.9877677 C6.17563871,13.9997935 6.20856774,14.0088774 6.24170323,14.0165677 C6.29873548,14.029729 6.35690323,14.0370581 6.41527742,14.0370581 C6.48299355,14.0370581 6.55076129,14.0281806 6.61682581,14.0103226 L15.4273032,11.6343226 C15.6323097,11.5790968 15.8055226,11.4420645 15.9065806,11.2553806 C16.0076903,11.0686968 16.0276645,10.8487226 15.9619097,10.6469161 Z" id="Shape" fill="#222224"></path>
                        <path d="M13.1295484,2.7984 L6.85465806,0.0659096774 C6.71432258,0.0048 6.56170323,-0.0122322581 6.41563871,0.0126451613 L7.8436129,7.4464 L13.4259097,3.02730323 C13.347871,2.92913548 13.247071,2.8496 13.1295484,2.7984 Z" id="Shape" fill="#403F44"></path>
                        <path d="M15.9619097,10.6469161 L13.5565419,3.26828387 C13.5276387,3.17966452 13.4826323,3.09873548 13.4259097,3.02730323 L7.8436129,7.4464 L6.24175484,14.0165161 C6.2987871,14.0296774 6.35695484,14.0370065 6.41532903,14.0370065 C6.48304516,14.0370065 6.5508129,14.028129 6.61687742,14.010271 L15.4273548,11.634271 C15.6323613,11.5790452 15.8055742,11.4420129 15.9066323,11.255329 C16.0076903,11.0686968 16.0276645,10.8487226 15.9619097,10.6469161 Z" id="Shape" fill="#313133"></path>
                    </g>
                </g>
            </g>
        </g>
    </g>
</svg>