<?xml version="1.0" encoding="UTF-8"?>
<svg width="16px" height="15px" viewBox="0 0 16 15" version="1.1" xmlns="http://www.w3.org/2000/svg" xmlns:xlink="http://www.w3.org/1999/xlink">
    <!-- Generator: Sketch 45.2 (43514) - http://www.bohemiancoding.com/sketch -->
    <title>coins</title>
    <desc>Created with Sketch.</desc>
    <defs></defs>
    <g id="App" stroke="none" stroke-width="1" fill="none" fill-rule="evenodd">
        <g id="Default" transform="translate(-217.000000, -81.000000)" fill-rule="nonzero">
            <g id="Group-6" transform="translate(-14.000000, 0.000000)">
                <g id="Group-4" transform="translate(231.000000, 76.000000)">
                    <g id="coins" transform="translate(0.000000, 5.000000)">
                        <path d="M8,12.4137931 C4.03889655,12.4137931 0.827586207,11.5966897 0.827586207,10.7586207 L0.827586207,12.6885517 C0.829793103,13.526069 4.04,14.3448276 8,14.3448276 C11.96,14.3448276 15.1702069,13.526069 15.1724138,12.6885517 L15.1724138,10.7586207 C15.1724138,11.5966897 11.9611034,12.4137931 8,12.4137931" id="XMLID_148_" fill="#E4AF18"></path>
                        <path d="M7.17241379,9.37931034 C3.21131034,9.37931034 0,8.5622069 0,7.72413793 L0,9.65406897 C0.00220689655,10.4915862 3.21241379,11.3103448 7.17241379,11.3103448 C11.1324138,11.3103448 14.3426207,10.4915862 14.3448276,9.65406897 L14.3448276,7.72413793 C14.3448276,8.5622069 11.1335172,9.37931034 7.17241379,9.37931034" id="XMLID_147_" fill="#F4BF1A"></path>
                        <path d="M8.82758621,6.34482759 C4.86648276,6.34482759 1.65517241,5.52772414 1.65517241,4.68965517 L1.65517241,6.61958621 C1.65737931,7.45710345 4.86758621,8.27586207 8.82758621,8.27586207 C12.7875862,8.27586207 15.9977931,7.45710345 16,6.61958621 L16,4.68965517 C16,5.52772414 12.7886897,6.34482759 8.82758621,6.34482759" id="XMLID_146_" fill="#E4AF18"></path>
                        <path d="M14.3448276,1.41517241 C14.3448276,2.25296552 11.1335172,3.03448276 7.17241379,3.03448276 C3.21131034,3.03448276 0,2.25296552 0,1.41517241 C0,0.577103448 3.21131034,0 7.17241379,0 C11.1335172,0 14.3448276,0.577103448 14.3448276,1.41517241" id="XMLID_145_" fill="#FFD949"></path>
                        <path d="M7.17241379,3.03448276 C3.21131034,3.03448276 0,2.21737931 0,1.37931034 L0,3.30924138 C0.00220689655,4.14675862 3.21241379,4.96551724 7.17241379,4.96551724 C11.1324138,4.96551724 14.3426207,4.14675862 14.3448276,3.30924138 L14.3448276,1.37931034 C14.3448276,2.21737931 11.1335172,3.03448276 7.17241379,3.03448276" id="XMLID_144_" fill="#F4BF1A"></path>
                        <path d="M1.10344828,2.22731034 L1.10344828,4.15696552 C1.27117241,4.21875862 1.45489655,4.27834483 1.65517241,4.33517241 L1.65517241,2.40524138 C1.45489655,2.34841379 1.27117241,2.28882759 1.10344828,2.22731034" id="XMLID_143_" fill="#DCA815"></path>
                        <path d="M12.6896552,2.40524138 L12.6896552,4.33517241 C12.889931,4.27834483 13.0736552,4.21875862 13.2413793,4.15696552 L13.2413793,2.22731034 C13.0736552,2.28910345 12.889931,2.34841379 12.6896552,2.40524138" id="XMLID_142_" fill="#DCA815"></path>
                        <path d="M2.48275862,2.60551724 L2.48275862,4.53572414 C2.65931034,4.57241379 2.84331034,4.60717241 3.03448276,4.64 L3.03448276,2.7097931 C2.84331034,2.67696552 2.65931034,2.6422069 2.48275862,2.60551724" id="XMLID_141_" fill="#DCA815"></path>
                        <path d="M11.3103448,2.7097931 L11.3103448,4.64027586 C11.5015172,4.60717241 11.6855172,4.57241379 11.862069,4.53572414 L11.862069,2.60551724 C11.6855172,2.6422069 11.5015172,2.67696552 11.3103448,2.7097931" id="XMLID_140_" fill="#DCA815"></path>
                        <path d="M3.86206897,2.83282759 L3.86206897,4.76331034 C4.04193103,4.78648276 4.22537931,4.808 4.4137931,4.82731034 L4.4137931,2.89682759 C4.22537931,2.87751724 4.04193103,2.85572414 3.86206897,2.83282759" id="XMLID_139_" fill="#DCA815"></path>
                        <path d="M9.93103448,2.89710345 L9.93103448,4.82758621 C10.1194483,4.808 10.3028966,4.78648276 10.4827586,4.76358621 L10.4827586,2.83282759 C10.3028966,2.85627586 10.1194483,2.8777931 9.93103448,2.89710345" id="XMLID_138_" fill="#DCA815"></path>
                        <path d="M5.24137931,2.968 L5.24137931,4.89875862 C5.42262069,4.91144828 5.60634483,4.92275862 5.79310345,4.93186207 L5.79310345,3.00082759 C5.60634483,2.99172414 5.42262069,2.98068966 5.24137931,2.968" id="XMLID_137_" fill="#DCA815"></path>
                        <path d="M8.55172414,3.00082759 L8.55172414,4.93186207 C8.73848276,4.92275862 8.9222069,4.91144828 9.10344828,4.89875862 L9.10344828,2.968 C8.9222069,2.98068966 8.73848276,2.99172414 8.55172414,3.00082759" id="XMLID_136_" fill="#DCA815"></path>
                        <path d="M7.17241379,3.03448276 C7.08,3.03448276 6.98813793,3.03365517 6.89655172,3.03282759 L6.89655172,4.96386207 C6.98813793,4.96468966 7.08,4.96551724 7.17241379,4.96551724 C7.26482759,4.96551724 7.35668966,4.96468966 7.44827586,4.96386207 L7.44827586,3.03282759 C7.35668966,3.03365517 7.26482759,3.03448276 7.17241379,3.03448276" id="XMLID_135_" fill="#DCA815"></path>
                        <path d="M2.75862069,5.53765517 L2.75862069,7.46731034 C2.92634483,7.52910345 3.11006897,7.58868966 3.31034483,7.64551724 L3.31034483,5.71558621 C3.11006897,5.65875862 2.92634483,5.59917241 2.75862069,5.53765517" id="XMLID_134_" fill="#C49214"></path>
                        <path d="M14.3448276,5.71558621 L14.3448276,7.64551724 C14.5451034,7.58868966 14.7288276,7.52910345 14.8965517,7.46731034 L14.8965517,5.53765517 C14.7288276,5.59944828 14.5451034,5.65875862 14.3448276,5.71558621" id="XMLID_133_" fill="#C49214"></path>
                        <path d="M4.13793103,5.91586207 L4.13793103,7.84606897 C4.31448276,7.88275862 4.49848276,7.91751724 4.68965517,7.95034483 L4.68965517,6.02013793 C4.49848276,5.98731034 4.31448276,5.95255172 4.13793103,5.91586207" id="XMLID_132_" fill="#C49214"></path>
                        <path d="M12.9655172,6.02013793 L12.9655172,7.95062069 C13.1566897,7.91751724 13.3406897,7.88275862 13.5172414,7.84606897 L13.5172414,5.91586207 C13.3406897,5.95255172 13.1566897,5.98731034 12.9655172,6.02013793" id="XMLID_131_" fill="#C49214"></path>
                        <path d="M5.51724138,6.14344828 L5.51724138,8.07393103 C5.69710345,8.09710345 5.88055172,8.11862069 6.06896552,8.13793103 L6.06896552,6.20744828 C5.88055172,6.18786207 5.69710345,6.16634483 5.51724138,6.14344828" id="XMLID_130_" fill="#C49214"></path>
                        <path d="M11.5862069,6.20717241 L11.5862069,8.13793103 C11.7746207,8.11834483 11.958069,8.09682759 12.137931,8.07393103 L12.137931,6.14344828 C11.958069,6.16662069 11.7746207,6.18813793 11.5862069,6.20717241" id="XMLID_129_" fill="#C49214"></path>
                        <path d="M6.89655172,6.27834483 L6.89655172,8.20910345 C7.0777931,8.2217931 7.26151724,8.23310345 7.44827586,8.2422069 L7.44827586,6.31117241 C7.26151724,6.30206897 7.0777931,6.29103448 6.89655172,6.27834483" id="XMLID_128_" fill="#C49214"></path>
                        <path d="M10.2068966,6.31117241 L10.2068966,8.2422069 C10.3936552,8.23310345 10.5773793,8.2217931 10.7586207,8.20910345 L10.7586207,6.27834483 C10.5773793,6.29103448 10.3936552,6.30206897 10.2068966,6.31117241" id="XMLID_127_" fill="#C49214"></path>
                        <path d="M8.82758621,6.34482759 C8.73517241,6.34482759 8.64331034,6.344 8.55172414,6.34317241 L8.55172414,8.2742069 C8.64331034,8.27503448 8.73517241,8.27586207 8.82758621,8.27586207 C8.92,8.27586207 9.01186207,8.27503448 9.10344828,8.2742069 L9.10344828,6.34317241 C9.01186207,6.344 8.92,6.34482759 8.82758621,6.34482759" id="XMLID_126_" fill="#C49214"></path>
                        <path d="M1.10344828,8.57213793 L1.10344828,10.5017931 C1.27117241,10.5635862 1.45489655,10.6228966 1.65517241,10.68 L1.65517241,8.75006897 C1.45489655,8.69324138 1.27117241,8.63365517 1.10344828,8.57213793" id="XMLID_125_" fill="#DCA815"></path>
                        <path d="M12.6896552,8.75006897 L12.6896552,10.68 C12.889931,10.6231724 13.0736552,10.5635862 13.2413793,10.5017931 L13.2413793,8.57213793 C13.0736552,8.63393103 12.889931,8.69324138 12.6896552,8.75006897" id="XMLID_124_" fill="#DCA815"></path>
                        <path d="M2.48275862,8.95034483 L2.48275862,10.8805517 C2.65931034,10.9172414 2.84331034,10.952 3.03448276,10.9848276 L3.03448276,9.05462069 C2.84331034,9.0217931 2.65931034,8.98703448 2.48275862,8.95034483" id="XMLID_123_" fill="#DCA815"></path>
                        <path d="M11.3103448,9.05462069 L11.3103448,10.9851034 C11.5015172,10.952 11.6855172,10.9172414 11.862069,10.8805517 L11.862069,8.95034483 C11.6855172,8.98703448 11.5015172,9.0217931 11.3103448,9.05462069" id="XMLID_122_" fill="#DCA815"></path>
                        <path d="M3.86206897,9.17793103 L3.86206897,11.1084138 C4.04193103,11.1315862 4.22537931,11.1531034 4.4137931,11.1724138 L4.4137931,9.24193103 C4.22537931,9.22234483 4.04193103,9.20082759 3.86206897,9.17793103" id="XMLID_121_" fill="#DCA815"></path>
                        <path d="M9.93103448,9.24165517 L9.93103448,11.1724138 C10.1194483,11.1528276 10.3028966,11.1313103 10.4827586,11.1084138 L10.4827586,9.17793103 C10.3028966,9.20110345 10.1194483,9.22262069 9.93103448,9.24165517" id="XMLID_120_" fill="#DCA815"></path>
                        <path d="M5.24137931,9.31282759 L5.24137931,11.2435862 C5.42262069,11.2562759 5.60634483,11.2675862 5.79310345,11.2766897 L5.79310345,9.34565517 C5.60634483,9.33655172 5.42262069,9.32551724 5.24137931,9.31282759" id="XMLID_119_" fill="#DCA815"></path>
                        <path d="M8.55172414,9.34565517 L8.55172414,11.2766897 C8.73848276,11.2675862 8.9222069,11.2562759 9.10344828,11.2435862 L9.10344828,9.31282759 C8.9222069,9.32551724 8.73848276,9.33655172 8.55172414,9.34565517" id="XMLID_118_" fill="#DCA815"></path>
                        <path d="M7.17241379,9.37931034 C7.08,9.37931034 6.98813793,9.37848276 6.89655172,9.37765517 L6.89655172,11.3086897 C6.98813793,11.3095172 7.08,11.3103448 7.17241379,11.3103448 C7.26482759,11.3103448 7.35668966,11.3095172 7.44827586,11.3086897 L7.44827586,9.37765517 C7.35668966,9.37848276 7.26482759,9.37931034 7.17241379,9.37931034" id="XMLID_117_" fill="#DCA815"></path>
                        <path d="M1.93103448,11.6066207 L1.93103448,13.5362759 C2.09875862,13.598069 2.28248276,13.6573793 2.48275862,13.7144828 L2.48275862,11.7845517 C2.28248276,11.7277241 2.09875862,11.6681379 1.93103448,11.6066207" id="XMLID_116_" fill="#C49214"></path>
                        <path d="M13.5172414,11.7845517 L13.5172414,13.7144828 C13.7175172,13.6576552 13.9012414,13.598069 14.0689655,13.5362759 L14.0689655,11.6066207 C13.9012414,11.6684138 13.7175172,11.7277241 13.5172414,11.7845517" id="XMLID_115_" fill="#C49214"></path>
                        <path d="M3.31034483,11.9848276 L3.31034483,13.9150345 C3.48689655,13.9517241 3.67089655,13.9864828 3.86206897,14.0193103 L3.86206897,12.0891034 C3.67089655,12.0562759 3.48689655,12.0215172 3.31034483,11.9848276" id="XMLID_114_" fill="#C49214"></path>
                        <path d="M12.137931,12.0891034 L12.137931,14.0195862 C12.3291034,13.9864828 12.5131034,13.9517241 12.6896552,13.9150345 L12.6896552,11.9848276 C12.5131034,12.0215172 12.3291034,12.0562759 12.137931,12.0891034" id="XMLID_113_" fill="#C49214"></path>
                        <path d="M4.68965517,12.2124138 L4.68965517,14.1428966 C4.86951724,14.166069 5.05296552,14.1875862 5.24137931,14.2068966 L5.24137931,12.2764138 C5.05296552,12.2568276 4.86951724,12.2353103 4.68965517,12.2124138" id="XMLID_112_" fill="#C49214"></path>
                        <path d="M10.7586207,12.2761379 L10.7586207,14.2068966 C10.9470345,14.1873103 11.1304828,14.1657931 11.3103448,14.1428966 L11.3103448,12.2124138 C11.1304828,12.2355862 10.9470345,12.2571034 10.7586207,12.2761379" id="XMLID_111_" fill="#C49214"></path>
                        <path d="M6.06896552,12.3473103 L6.06896552,14.278069 C6.2502069,14.2907586 6.43393103,14.302069 6.62068966,14.3111724 L6.62068966,12.3801379 C6.43393103,12.3710345 6.2502069,12.36 6.06896552,12.3473103" id="XMLID_110_" fill="#C49214"></path>
                        <path d="M9.37931034,12.3801379 L9.37931034,14.3111724 C9.56606897,14.302069 9.7497931,14.2907586 9.93103448,14.278069 L9.93103448,12.3473103 C9.7497931,12.36 9.56606897,12.3710345 9.37931034,12.3801379" id="XMLID_109_" fill="#C49214"></path>
                        <path d="M8,12.4137931 C7.90758621,12.4137931 7.81572414,12.4129655 7.72413793,12.4121379 L7.72413793,14.3431724 C7.81572414,14.344 7.90758621,14.3448276 8,14.3448276 C8.09241379,14.3448276 8.18427586,14.344 8.27586207,14.3431724 L8.27586207,12.4121379 C8.18427586,12.4129655 8.09241379,12.4137931 8,12.4137931" id="XMLID_108_" fill="#C49214"></path>
                        <path d="M14.1274483,10.0336552 C13.344,10.7227586 10.5277241,11.3103448 7.17241379,11.3103448 C4.54896552,11.3103448 2.25572414,10.9508966 1.00524138,10.4648276 C0.890206897,10.5691034 0.827586207,10.6794483 0.827586207,10.7944828 C0.827586207,11.6325517 4.03889655,12.4137931 8,12.4137931 C11.9613793,12.4137931 15.1724138,11.6325517 15.1724138,10.7944828 C15.1724138,10.5056552 14.7903448,10.2474483 14.1274483,10.0336552" id="XMLID_107_" fill="#FCC62D"></path>
                        <path d="M8.82758621,8.27586207 C5.18262069,8.27586207 2.17489655,7.58206897 1.71751724,6.81848276 C0.647448276,7.06096552 0,7.384 0,7.76 C0,8.5977931 3.21131034,9.37931034 7.17241379,9.37931034 C11.1335172,9.37931034 14.3448276,8.5977931 14.3448276,7.76 C14.3448276,7.72303448 14.3365517,7.68689655 14.3241379,7.65103448 C13.0085517,8.02124138 11.0350345,8.27586207 8.82758621,8.27586207" id="XMLID_106_" fill="#FFD949"></path>
                        <path d="M14.0670345,3.73765517 C13.2088276,4.40524138 10.448,4.96551724 7.17241379,4.96551724 C5.05710345,4.96551724 3.15613793,4.73158621 1.84331034,4.3862069 C1.72165517,4.4937931 1.65517241,4.60689655 1.65517241,4.72551724 C1.65517241,5.56358621 4.86648276,6.34482759 8.82758621,6.34482759 C12.7886897,6.34482759 16,5.56358621 16,4.72551724 C16,4.32496552 15.2653793,3.98427586 14.0670345,3.73765517" id="XMLID_105_" fill="#FCC62D"></path>
                    </g>
                </g>
            </g>
        </g>
    </g>
</svg>