<?xml version="1.0" encoding="UTF-8" standalone="no"?>
<!-- Created with Inkscape (http://www.inkscape.org/) -->

<svg
   xmlns:dc="http://purl.org/dc/elements/1.1/"
   xmlns:cc="http://creativecommons.org/ns#"
   xmlns:rdf="http://www.w3.org/1999/02/22-rdf-syntax-ns#"
   xmlns:svg="http://www.w3.org/2000/svg"
   xmlns="http://www.w3.org/2000/svg"
   xmlns:xlink="http://www.w3.org/1999/xlink"
   xmlns:sodipodi="http://sodipodi.sourceforge.net/DTD/sodipodi-0.dtd"
   xmlns:inkscape="http://www.inkscape.org/namespaces/inkscape"
   width="401.38284mm"
   height="227.46529mm"
   viewBox="0 0 1422.2227 805.97936"
   id="svg4149"
   version="1.1"
   inkscape:version="0.91 r13725"
   sodipodi:docname="coin2.svg">
  <defs
     id="defs4151">
    <linearGradient
       inkscape:collect="always"
       id="linearGradient4840">
      <stop
         style="stop-color:#ffe370;stop-opacity:1"
         offset="0"
         id="stop4842" />
      <stop
         style="stop-color:#ffcc00;stop-opacity:1"
         offset="1"
         id="stop4844" />
    </linearGradient>
    <linearGradient
       inkscape:collect="always"
       id="linearGradient4830">
      <stop
         style="stop-color:#ff7000;stop-opacity:1;"
         offset="0"
         id="stop4832" />
      <stop
         id="stop4838"
         offset="0.50185436"
         style="stop-color:#ffac00;stop-opacity:1" />
      <stop
         style="stop-color:#ff7000;stop-opacity:1"
         offset="1"
         id="stop4834" />
    </linearGradient>
    <linearGradient
       inkscape:collect="always"
       id="linearGradient4822">
      <stop
         style="stop-color:#ffcc00;stop-opacity:1;"
         offset="0"
         id="stop4824" />
      <stop
         style="stop-color:#ffffff;stop-opacity:1"
         offset="1"
         id="stop4826" />
    </linearGradient>
    <linearGradient
       inkscape:collect="always"
       id="linearGradient4806">
      <stop
         style="stop-color:#ffcc00;stop-opacity:1;"
         offset="0"
         id="stop4808" />
      <stop
         id="stop4820"
         offset="0.14181817"
         style="stop-color:#ff7000;stop-opacity:1" />
      <stop
         id="stop4818"
         offset="0.34229636"
         style="stop-color:#ffd739;stop-opacity:1" />
      <stop
         id="stop4816"
         offset="0.66202188"
         style="stop-color:#fecb00;stop-opacity:1" />
      <stop
         id="stop4814"
         offset="0.87533355"
         style="stop-color:#ff7000;stop-opacity:1" />
      <stop
         style="stop-color:#ffcc00;stop-opacity:1"
         offset="1"
         id="stop4810" />
    </linearGradient>
    <linearGradient
       inkscape:collect="always"
       xlink:href="#linearGradient4806"
       id="linearGradient5004"
       gradientUnits="userSpaceOnUse"
       x1="-568.35962"
       y1="620.06677"
       x2="257.05017"
       y2="620.06677" />
    <linearGradient
       inkscape:collect="always"
       xlink:href="#linearGradient4822"
       id="linearGradient5006"
       gradientUnits="userSpaceOnUse"
       x1="-157.31271"
       y1="292.10797"
       x2="-157.31271"
       y2="609.24969" />
    <linearGradient
       inkscape:collect="always"
       xlink:href="#linearGradient4830"
       id="linearGradient5008"
       gradientUnits="userSpaceOnUse"
       x1="-559.67102"
       y1="450.92685"
       x2="251.19368"
       y2="450.92685" />
    <linearGradient
       inkscape:collect="always"
       xlink:href="#linearGradient4840"
       id="linearGradient5010"
       gradientUnits="userSpaceOnUse"
       x1="-169.42859"
       y1="328.93362"
       x2="-169.42859"
       y2="570.93359" />
  </defs>
  <sodipodi:namedview
     id="base"
     pagecolor="#ffffff"
     bordercolor="#666666"
     borderopacity="1.0"
     inkscape:pageopacity="0.0"
     inkscape:pageshadow="2"
     inkscape:zoom="0.08838835"
     inkscape:cx="2232.8792"
     inkscape:cy="493.98121"
     inkscape:document-units="px"
     inkscape:current-layer="layer1"
     showgrid="false"
     showborder="false"
     inkscape:object-paths="false"
     inkscape:window-width="1707"
     inkscape:window-height="900"
     inkscape:window-x="-8"
     inkscape:window-y="-8"
     inkscape:window-maximized="1"
     fit-margin-top="0"
     fit-margin-left="0"
     fit-margin-right="0"
     fit-margin-bottom="0" />
  <metadata
     id="metadata4154">
    <rdf:RDF>
      <cc:Work
         rdf:about="">
        <dc:format>image/svg+xml</dc:format>
        <dc:type
           rdf:resource="http://purl.org/dc/dcmitype/StillImage" />
        <dc:title></dc:title>
      </cc:Work>
    </rdf:RDF>
  </metadata>
  <g
     inkscape:label="Layer 1"
     inkscape:groupmode="layer"
     id="layer1"
     transform="translate(2641.6101,-872.14197)">
    <g
       id="g4271"
       transform="matrix(1.7054874,0,0,1.9658054,1419.8284,-664.39475)">
      <g
         id="g4262">
        <g
           transform="translate(-1810.1935,489.31788)"
           id="g4990">
          <path
             inkscape:connector-curvature="0"
             style="opacity:0.30799997;fill:#000000;fill-opacity:1;fill-rule:nonzero;stroke:none;stroke-width:12;stroke-linecap:square;stroke-linejoin:miter;stroke-miterlimit:4;stroke-dasharray:none;stroke-opacity:1"
             d="m -156.60156,385.08684 c -12.9916,0.0241 -25.97883,0.25368 -38.90235,0.68555 -101.09631,3.37991 -197.06623,19.18635 -265.82031,45.76562 -20.63995,7.97908 -39.09825,16.83732 -55.01953,27.31055 l -54.83398,0 0,84.28516 0.008,0.23242 c -0.0599,2.76661 0.0282,5.54298 0.27148,8.32031 l 0.008,0.23242 0.0117,0 c 0.47466,5.23069 1.49078,10.46337 3.13086,15.63868 9.35811,29.52842 32.69731,50.15824 60.43555,66.49414 27.85502,16.40466 62.6742,29.43827 103.08789,39.91211 80.91032,20.9692 184.7781,30.79214 286.01172,27.83398 101.21936,-2.95784 197.827659,-18.3884 267.44531,-44.58398 34.71183,-13.06129 63.42836,-28.50776 84.51563,-49.56641 14.95604,-14.93575 25.82982,-34.71976 28.38476,-55.72852 l 0.57422,0 0,-93.07031 -52.95312,0 c -2.45813,-1.63993 -4.96122,-3.24753 -7.54102,-4.79687 -26.18572,-15.72625 -58.65988,-27.3496 -95.3125,-37.58203 C 33.138393,395.87711 -61.474778,384.90897 -156.6012,385.08684 Z"
             id="path4992" />
          <path
             inkscape:connector-curvature="0"
             id="path4994"
             d="m -156.60156,376.60156 c -12.9916,0.0241 -25.97883,0.25368 -38.90235,0.68555 -101.09631,3.37991 -197.06623,19.18635 -265.82031,45.76562 -20.63995,7.97908 -39.09825,16.83732 -55.01953,27.31055 l -54.83398,0 0,84.28516 0.008,0.23242 c -0.0599,2.76661 0.0282,5.54298 0.27148,8.32031 l 0.008,0.23242 0.0117,0 c 0.47466,5.23069 1.49078,10.46337 3.13086,15.63868 9.35811,29.52842 32.69731,50.15824 60.43555,66.49414 27.85502,16.40466 62.6742,29.43827 103.08789,39.91211 80.91032,20.9692 184.7781,30.79214 286.01172,27.83398 101.21936,-2.95784 197.827659,-18.3884 267.44531,-44.58398 34.71183,-13.06129 63.42836,-28.50776 84.51563,-49.56641 14.95604,-14.93575 25.82982,-34.71976 28.38476,-55.72852 l 0.57422,0 0,-93.07031 -52.95312,0 c -2.45813,-1.63993 -4.96122,-3.24753 -7.54102,-4.79687 -26.18572,-15.72625 -58.65988,-27.3496 -95.3125,-37.58203 C 33.138393,387.39183 -61.474778,376.42369 -156.6012,376.60156 Z"
             style="opacity:1;fill:url(#linearGradient5004);fill-opacity:1;fill-rule:nonzero;stroke:none;stroke-width:12;stroke-linecap:square;stroke-linejoin:miter;stroke-miterlimit:4;stroke-dasharray:none;stroke-opacity:1" />
          <path
             inkscape:connector-curvature="0"
             id="path4996"
             d="m -156.60156,292.31641 c -12.9916,0.0241 -25.97883,0.25367 -38.90235,0.68554 -101.09631,3.37991 -197.06623,19.18636 -265.82031,45.76563 -34.2732,13.24948 -62.58337,28.89079 -83.1289,50.40039 -21.25975,22.25732 -33.01413,54.95006 -23.29493,85.61914 9.35811,29.52842 32.69731,50.15824 60.43555,66.49414 27.85502,16.40466 62.6742,29.43827 103.08789,39.91211 80.91032,20.9692 184.7781,30.79214 286.01172,27.83398 101.219363,-2.95784 197.827653,-18.3884 267.44531,-44.58398 34.71183,-13.06129 63.42836,-28.50776 84.51563,-49.56641 21.73814,-21.70864 34.85644,-53.65912 26.33398,-84.72656 -0.13463,-0.49241 -0.27828,-0.98185 -0.43164,-1.46875 a 11.478321,11.478321 0 0 0 -0.004,-0.0137 l -0.99023,-3.13086 a 11.478321,11.478321 0 0 0 -0.006,-0.0176 c -0.15572,-0.48974 -0.31969,-0.97559 -0.49414,-1.45898 l -0.002,-0.008 C 248.5322,397.30357 228.39614,377.00602 202.21289,361.28125 176.02717,345.555 143.55301,333.93167 106.90039,323.69922 33.13803,303.10668 -61.475131,292.13854 -156.60156,292.31641 Z"
             style="opacity:1;fill:url(#linearGradient5006);fill-opacity:1;fill-rule:nonzero;stroke:none;stroke-width:12;stroke-linecap:square;stroke-linejoin:miter;stroke-miterlimit:4;stroke-dasharray:none;stroke-opacity:1" />
          <path
             inkscape:connector-curvature="0"
             id="path4998"
             d="m -156.58008,303.79297 c -12.87029,0.0239 -25.73805,0.25185 -38.54101,0.67969 -100.13165,3.34766 -195.25725,19.17336 -262.06446,45 -33.4036,12.91331 -60.16557,27.93755 -78.96875,47.62304 -18.80318,19.68549 -28.81035,48.48191 -20.65234,74.22461 8.15833,25.74267 28.7898,44.44879 55.31836,60.07227 26.52856,15.62347 60.4261,28.39825 100.14258,38.6914 79.43295,20.58632 182.54094,30.4003 282.79687,27.47071 100.255354,-2.92967 196.030352,-18.37579 263.74024,-43.85352 33.85494,-12.73886 61.08517,-27.6095 80.44726,-46.94531 19.36209,-19.33581 30.53582,-47.46925 23.375,-73.57031 a 28.574289,28.574289 0 0 0 -0.31055,-1.05664 l -0.99023,-3.13086 a 28.574289,28.574289 0 0 0 -0.35742,-1.05274 C 230.28553,380.4794 176.13482,354.94387 103.81445,334.75391 31.494085,314.56394 -62.356865,303.61679 -156.58008,303.79297 Z"
             style="opacity:1;fill:url(#linearGradient5008);fill-opacity:1;fill-rule:nonzero;stroke:none;stroke-width:12;stroke-linecap:square;stroke-linejoin:miter;stroke-miterlimit:4;stroke-dasharray:none;stroke-opacity:1" />
          <path
             d="m 221.46187,440.74377 a 377.14285,118.57143 0 0 1 -340.84515,128.25244 377.14285,118.57143 0 0 1 -410.18707,-106.3067 377.14285,118.57143 0 0 1 335.40426,-129.66254 377.14285,118.57143 0 0 1 414.63601,104.5868"
             sodipodi:open="true"
             sodipodi:end="6.1706116"
             sodipodi:start="6.1971406"
             sodipodi:ry="118.57143"
             sodipodi:rx="377.14285"
             sodipodi:cy="450.93362"
             sodipodi:cx="-154.28572"
             sodipodi:type="arc"
             id="path5000"
             style="opacity:1;fill:url(#linearGradient5010);fill-opacity:1;fill-rule:nonzero;stroke:none;stroke-width:12;stroke-linecap:square;stroke-linejoin:miter;stroke-miterlimit:4;stroke-dasharray:none;stroke-opacity:1" />
          <path
             inkscape:connector-curvature="0"
             id="path5002"
             d="m 139.71484,376.66797 a 344.53076,108.31837 0 0 1 48.34961,44.08789 l 0.90625,2.85937 a 344.53076,108.31837 0 0 1 -311.37109,117.16211 344.53076,108.31837 0 0 1 -374.71875,-97.11523 344.53076,108.31837 0 0 1 47.4707,-66.25586 377.14285,118.57143 0 0 0 -79.92187,85.2832 377.14285,118.57143 0 0 0 410.1875,106.30664 377.14285,118.57143 0 0 0 340.84375,-128.25195 l -0.99024,-3.13086 a 377.14285,118.57143 0 0 0 -80.75586,-60.94531 z"
             style="opacity:1;fill:#ff5a00;fill-opacity:1;fill-rule:nonzero;stroke:none;stroke-width:12;stroke-linecap:square;stroke-linejoin:miter;stroke-miterlimit:4;stroke-dasharray:none;stroke-opacity:1" />
        </g>
      </g>
    </g>
  </g>
</svg>
