<svg id="Layer_1" data-name="Layer 1" xmlns="http://www.w3.org/2000/svg" viewBox="0 0 459.4 299.5"><defs><style>.cls-1{fill:#e8ae56;}.cls-2,.cls-5{fill:none;}.cls-3{fill:#ba833a;}.cls-4{fill:#996628;}.cls-5,.cls-6,.cls-7{stroke:#000;stroke-miterlimit:10;}.cls-6{fill:#4d4b4b;}.cls-7{fill:#929392;}</style></defs><title>desert base</title><g id="Base"><polygon class="cls-1" points="0 132.4 229.4 264.9 458.8 132.4 229.4 0 0 132.4"/><path class="cls-2" d="M560.6,328.6" transform="translate(-401.2 -135.1)"/><path class="cls-2" d="M529.8,289.6" transform="translate(-401.2 -135.1)"/><path class="cls-2" d="M573.5,306.1" transform="translate(-401.2 -135.1)"/><path class="cls-2" d="M604.6,319.7" transform="translate(-401.2 -135.1)"/><path class="cls-2" d="M520.5,214.4" transform="translate(-401.2 -135.1)"/><path class="cls-2" d="M542.2,204.1" transform="translate(-401.2 -135.1)"/><path class="cls-2" d="M488,237" transform="translate(-401.2 -135.1)"/><path class="cls-2" d="M594.3,311.2" transform="translate(-401.2 -135.1)"/><path class="cls-2" d="M590.3,347.9" transform="translate(-401.2 -135.1)"/><path class="cls-2" d="M597.7,322.7" transform="translate(-401.2 -135.1)"/><path class="cls-2" d="M578.3,297.5" transform="translate(-401.2 -135.1)"/><path class="cls-2" d="M591.2,275.1" transform="translate(-401.2 -135.1)"/><polygon class="cls-2" points="181.8 122.1 170.8 127.6 190 138.6 200.9 133.1 181.8 122.1"/><path class="cls-2" d="M615.9,211.7" transform="translate(-401.2 -135.1)"/><path class="cls-2" d="M628.9,189.3" transform="translate(-401.2 -135.1)"/><path class="cls-2" d="M653.8,217.8" transform="translate(-401.2 -135.1)"/><path class="cls-2" d="M659.7,190.6" transform="translate(-401.2 -135.1)"/><path class="cls-2" d="M726.5,228.5" transform="translate(-401.2 -135.1)"/><path class="cls-2" d="M718.5,246.5" transform="translate(-401.2 -135.1)"/><path class="cls-2" d="M726.2,231.6" transform="translate(-401.2 -135.1)"/><path class="cls-2" d="M745.9,241.6" transform="translate(-401.2 -135.1)"/><path class="cls-2" d="M737.9,259.5" transform="translate(-401.2 -135.1)"/><path class="cls-2" d="M737.4,227.1" transform="translate(-401.2 -135.1)"/><path class="cls-2" d="M729.4,223.7" transform="translate(-401.2 -135.1)"/><path class="cls-2" d="M737.2,230.2" transform="translate(-401.2 -135.1)"/><path class="cls-2" d="M687.6,201.6" transform="translate(-401.2 -135.1)"/><path class="cls-2" d="M679.7,219.6" transform="translate(-401.2 -135.1)"/><path class="cls-2" d="M687.4,204.8" transform="translate(-401.2 -135.1)"/><path class="cls-2" d="M707.1,214.7" transform="translate(-401.2 -135.1)"/><path class="cls-2" d="M699.1,232.7" transform="translate(-401.2 -135.1)"/><path class="cls-2" d="M706.8,217.8" transform="translate(-401.2 -135.1)"/><path class="cls-2" d="M698.6,200.3" transform="translate(-401.2 -135.1)"/><path class="cls-2" d="M690.6,196.8" transform="translate(-401.2 -135.1)"/><path class="cls-2" d="M698.3,203.4" transform="translate(-401.2 -135.1)"/><path class="cls-2" d="M601.6,285.3" transform="translate(-401.2 -135.1)"/><path class="cls-2" d="M614.5,290" transform="translate(-401.2 -135.1)"/><path class="cls-2" d="M741.8,263.3" transform="translate(-401.2 -135.1)"/><path class="cls-2" d="M695.3,307.6" transform="translate(-401.2 -135.1)"/><path class="cls-2" d="M576.2,262.4" transform="translate(-401.2 -135.1)"/><path class="cls-2" d="M618.7,278.4" transform="translate(-401.2 -135.1)"/><path class="cls-2" d="M609.2,241.2" transform="translate(-401.2 -135.1)"/><path class="cls-2" d="M619.8,222.7" transform="translate(-401.2 -135.1)"/><path class="cls-2" d="M628.3,231.2" transform="translate(-401.2 -135.1)"/><path class="cls-2" d="M638.9,235" transform="translate(-401.2 -135.1)"/><path class="cls-2" d="M607.4,212.3" transform="translate(-401.2 -135.1)"/><path class="cls-2" d="M642.4,225.5" transform="translate(-401.2 -135.1)"/><polygon class="cls-2" points="250.2 95.9 241.2 100.4 241.2 94.3 250.2 89.7 250.2 95.9"/><path class="cls-2" d="M655.7,274" transform="translate(-401.2 -135.1)"/><path class="cls-2" d="M666.4,255.6" transform="translate(-401.2 -135.1)"/><polygon class="cls-2" points="258.4 105.8 249.4 110.3 265.1 119.4 274.2 114.8 258.4 105.8"/><path class="cls-2" d="M674.9,264" transform="translate(-401.2 -135.1)"/><path class="cls-2" d="M685.5,267.9" transform="translate(-401.2 -135.1)"/><path class="cls-2" d="M654,245.2" transform="translate(-401.2 -135.1)"/><path class="cls-2" d="M689,258.3" transform="translate(-401.2 -135.1)"/><path class="cls-2" d="M555.9,257.7" transform="translate(-401.2 -135.1)"/><polygon class="cls-3" points="0.8 167.1 230.1 299.5 230 264.3 0.6 131.9 0.8 167.1"/><polygon class="cls-4" points="459.4 163.3 230 299.5 230 264.3 459.4 131.9 459.4 163.3"/></g><g id="Building"><path class="cls-5" d="M393.5,237" transform="translate(-401.2 -135.1)"/><path class="cls-5" d="M623.3,325.3" transform="translate(-401.2 -135.1)"/><path class="cls-5" d="M611.8,280.2" transform="translate(-401.2 -135.1)"/><path class="cls-5" d="M606.3,277.3" transform="translate(-401.2 -135.1)"/><path class="cls-5" d="M606.1,306.2" transform="translate(-401.2 -135.1)"/><path class="cls-5" d="M569.8,251.2" transform="translate(-401.2 -135.1)"/><path class="cls-5" d="M598.5,274.3" transform="translate(-401.2 -135.1)"/><path class="cls-5" d="M458.7,226.6" transform="translate(-401.2 -135.1)"/><path class="cls-5" d="M459,255.2" transform="translate(-401.2 -135.1)"/><path class="cls-5" d="M631.9,355" transform="translate(-401.2 -135.1)"/><path class="cls-5" d="M631.7,326.9" transform="translate(-401.2 -135.1)"/><path class="cls-5" d="M821.5,245.2" transform="translate(-401.2 -135.1)"/><path class="cls-5" d="M720.7,186.6" transform="translate(-401.2 -135.1)"/><path class="cls-5" d="M720.7,186.6" transform="translate(-401.2 -135.1)"/><path class="cls-5" d="M738.6,118.5" transform="translate(-401.2 -135.1)"/><path class="cls-5" d="M779.4,80.6" transform="translate(-401.2 -135.1)"/><path class="cls-6" d="M655.7,209" transform="translate(-401.2 -135.1)"/><path class="cls-7" d="M661.3,267.8" transform="translate(-401.2 -135.1)"/><path class="cls-7" d="M662,245.2" transform="translate(-401.2 -135.1)"/></g></svg>