<?xml version="1.0" encoding="iso-8859-1"?>
<!-- Generator: Adobe Illustrator 19.0.0, SVG Export Plug-In . SVG Version: 6.00 Build 0)  -->
<svg version="1.1" id="Layer_1" xmlns="http://www.w3.org/2000/svg" xmlns:xlink="http://www.w3.org/1999/xlink" x="0px" y="0px"
	 viewBox="0 0 512 512" style="enable-background:new 0 0 512 512;" xml:space="preserve">
<path style="fill:#FFDA2D;" d="M404.82,174.791l-100.118-1.371l8.49-150.138c0.731-7.559-2.623-15.263-9.394-19.751
	c-9.767-6.467-22.934-3.801-29.409,5.969L89.784,288.128c-6.472,9.769-3.799,22.936,5.969,29.409
	c3.607,2.388,7.675,3.532,11.7,3.532c0.276,0,0.55-0.04,0.825-0.049c0.447,0.028,0.891,0.068,1.347,0.068c0.001,0,0.004,0,0.006,0
	l82.565-0.02l-33.045,165.19c-0.778,3.891-0.416,7.739,0.82,11.227c0.024,0.074,0.055,0.146,0.079,0.219
	c0.144,0.392,0.289,0.784,0.454,1.166c1.379,3.35,3.614,6.397,6.697,8.758c3.85,2.947,8.385,4.372,12.884,4.372
	c6.378,0,12.686-2.864,16.863-8.32L420.81,211.286c2.146-2.802,3.47-5.971,4.039-9.223c0.545-1.832,0.867-3.761,0.895-5.766
	C425.907,184.581,416.538,174.952,404.82,174.791z"/>
<path style="fill:#FDBF00;" d="M404.821,174.792l-100.118-1.371L192.196,321.067l-33.045,165.19
	c-0.778,3.891-0.416,7.739,0.82,11.227c0.024,0.074,0.055,0.146,0.079,0.219c0.144,0.392,0.289,0.784,0.454,1.166
	c1.379,3.35,3.614,6.397,6.697,8.758c3.85,2.947,8.385,4.372,12.884,4.372c6.378,0,12.686-2.864,16.863-8.32l223.863-292.393
	c2.146-2.802,3.47-5.971,4.039-9.223c0.545-1.832,0.867-3.761,0.895-5.766C425.908,184.581,416.539,174.953,404.821,174.792z"/>
<g>
</g>
<g>
</g>
<g>
</g>
<g>
</g>
<g>
</g>
<g>
</g>
<g>
</g>
<g>
</g>
<g>
</g>
<g>
</g>
<g>
</g>
<g>
</g>
<g>
</g>
<g>
</g>
<g>
</g>
</svg>
