<?xml version="1.0" encoding="UTF-8"?>
<svg width="40px" height="31px" viewBox="0 0 40 31" version="1.1" xmlns="http://www.w3.org/2000/svg" xmlns:xlink="http://www.w3.org/1999/xlink">
    <!-- Generator: Sketch 45.2 (43514) - http://www.bohemiancoding.com/sketch -->
    <title>treasure</title>
    <desc>Created with Sketch.</desc>
    <defs></defs>
    <g id="App" stroke="none" stroke-width="1" fill="none" fill-rule="evenodd">
        <g id="Default" transform="translate(-185.000000, -687.000000)" fill-rule="nonzero">
            <g id="Tab-Bar" transform="translate(0.000000, 672.000000)">
                <g id="Items" transform="translate(164.000000, 15.000000)">
                    <g id="treasure" transform="translate(21.000000, 0.000000)">
                        <path d="M39.884076,30.3804485 L0,30.3804485 L0,5.84239395 C0,2.62089793 2.62089793,0 5.84239395,0 L34.0416821,0 C37.2631781,0 39.884076,2.62089793 39.884076,5.84239395 L39.884076,30.3804485 Z" id="Shape" fill="#FFDC40"></path>
                        <path d="M34.0416821,0 L19.942038,0 L19.942038,30.3804485 L39.884076,30.3804485 L39.884076,5.84239395 C39.884076,2.62089793 37.2631781,0 34.0416821,0 Z" id="Shape" fill="#FFAB15"></path>
                        <rect id="Rectangle-path" fill="#BD9475" x="5.84239395" y="0" width="28.1992881" height="30.3804485"></rect>
                        <rect id="Rectangle-path" fill="#9E7957" x="19.942038" y="0" width="14.0996441" height="30.3804485"></rect>
                        <path d="M39.884076,10.905802 L25.666883,10.905802 C25.1240856,8.24229359 22.7635248,6.23188688 19.942038,6.23188688 C17.1205512,6.23188688 14.7600683,8.24229359 14.217193,10.905802 L0,10.905802 L0,13.2427596 L14.217193,13.2427596 C14.7599904,15.9062681 17.1205512,17.9166748 19.942038,17.9166748 C22.7635248,17.9166748 25.1240078,15.9062681 25.666883,13.2427596 L39.884076,13.2427596 L39.884076,10.905802 Z" id="Shape" fill="#FFEA84"></path>
                        <path d="M25.666883,10.905802 C25.1240856,8.24229359 22.7635248,6.23188688 19.942038,6.23188688 L19.942038,17.9166748 C22.7635248,17.9166748 25.1240078,15.9062681 25.666883,13.2427596 L39.884076,13.2427596 L39.884076,10.905802 L25.666883,10.905802 Z" id="Shape" fill="#FFDC40"></path>
                        <path d="M21.3052633,11.1005485 C21.3052633,10.348905 20.6936815,9.73732325 19.942038,9.73732325 C19.1903946,9.73732325 18.5788128,10.348905 18.5788128,11.1005485 C18.5788128,11.3560559 18.6507911,11.5945034 18.7735592,11.7990651 L18.7735592,14.3333398 L21.1105168,14.3333398 L21.1105168,11.7990651 C21.233285,11.5945034 21.3052633,11.3560559 21.3052633,11.1005485 Z" id="Shape" fill="#888890"></path>
                        <path d="M19.942038,9.73732325 L19.942038,14.3333398 L21.1105168,14.3333398 L21.1105168,11.7990651 C21.233285,11.5945034 21.3052633,11.355978 21.3052633,11.1005485 C21.3052633,10.348905 20.6936815,9.73732325 19.942038,9.73732325 Z" id="Shape" fill="#56535A"></path>
                    </g>
                </g>
            </g>
        </g>
    </g>
</svg>