<?xml version="1.0" encoding="UTF-8" standalone="no"?>
<svg
   xmlns:dc="http://purl.org/dc/elements/1.1/"
   xmlns:cc="http://creativecommons.org/ns#"
   xmlns:rdf="http://www.w3.org/1999/02/22-rdf-syntax-ns#"
   xmlns:svg="http://www.w3.org/2000/svg"
   xmlns="http://www.w3.org/2000/svg"
   xmlns:sodipodi="http://sodipodi.sourceforge.net/DTD/sodipodi-0.dtd"
   xmlns:inkscape="http://www.inkscape.org/namespaces/inkscape"
   height="436pt"
   viewBox="0 0 435 436"
   width="436pt"
   id="svg2"
   version="1.1"
   inkscape:version="0.91 r13725"
   sodipodi:docname="note.svg">
  <metadata
     id="metadata16">
    <rdf:RDF>
      <cc:Work
         rdf:about="">
        <dc:format>image/svg+xml</dc:format>
        <dc:type
           rdf:resource="http://purl.org/dc/dcmitype/StillImage" />
      </cc:Work>
    </rdf:RDF>
  </metadata>
  <defs
     id="defs14" />
  <sodipodi:namedview
     pagecolor="#ffffff"
     bordercolor="#666666"
     borderopacity="1"
     objecttolerance="10"
     gridtolerance="10"
     guidetolerance="10"
     inkscape:pageopacity="0"
     inkscape:pageshadow="2"
     inkscape:window-width="1707"
     inkscape:window-height="900"
     id="namedview12"
     showgrid="false"
     inkscape:zoom="0.43302752"
     inkscape:cx="272.5"
     inkscape:cy="270.19068"
     inkscape:window-x="-8"
     inkscape:window-y="-8"
     inkscape:window-maximized="1"
     inkscape:current-layer="svg2" />
  <path
     d="m424.773438 60h-50.269532v-49.882812c.136719-5.453126-4.175781-9.984376-9.628906-10.117188h-354.640625c-5.453125.078125-9.808594 4.5625-9.730469 10.015625v355.867187c-.136718 5.453126 4.175782 9.984376 9.628906 10.117188h50.371094v49.882812c-.136718 5.453126 4.175782 9.984376 9.628906 10.117188h267.851563c2.722656-.023438 5.320313-1.148438 7.199219-3.117188l86.652344-90.042968c1.761718-1.890625 2.71875-4.390625 2.667968-6.972656v-265.75c.136719-5.453126-4.175781-9.984376-9.628906-10.117188zm-364.269532 10.117188v285.882812h-40v-336h334v40h-284.269531c-5.453125.078125-9.808594 4.5625-9.730469 10.015625zm20 9.882812h334v246h-76.519531c-5.523437 0-10.480469 4.34375-10.480469 9.867188v80.132812h-247zm320.734375 266-53.734375 55.101562v-55.101562zm0 0"
     id="path4" />
  <path
     d="m131.824219 235h225.199219c5.523437 0 10-4.476562 10-10s-4.476563-10-10-10h-225.199219c-5.523438 0-10 4.476562-10 10s4.476562 10 10 10zm0 0"
     id="path6" />
  <path
     d="m131.824219 171h132.816406c5.519531 0 10-4.476562 10-10s-4.480469-10-10-10h-132.816406c-5.523438 0-10 4.476562-10 10s4.476562 10 10 10zm0 0"
     id="path8" />
  <path
     d="m357.023438 297c5.523437 0 10-4.476562 10-10s-4.476563-10-10-10h-225.199219c-5.523438 0-10 4.476562-10 10s4.476562 10 10 10zm0 0"
     id="path10" />
  <path
     style="fill:#ffffff"
     d="m 102.99576,310.60381 0,-208.99364 207.83899,0 207.83898,0 0,152.41525 0,152.41526 -50.44716,0 c -48.33441,0 -50.63143,0.20345 -54.8464,4.85588 -4.00192,4.41734 -4.46247,9.52711 -5.09938,56.57839 l -0.70012,51.72251 -152.29246,0 -152.29245,0 0,-208.99365 z m 354.75528,55.32914 c 4.859,-7.41578 1.51351,-16.22088 -7.45927,-19.63233 -3.89361,-1.48037 -57.07402,-2.08776 -147.5837,-1.68564 -135.42263,0.60167 -141.7053,0.81752 -146.35661,5.0279 -5.78346,5.23521 -6.14213,10.06241 -1.265,17.02548 l 3.59493,5.13249 147.61242,0 147.61242,0 3.84481,-5.8679 z m -5.10783,-72.56737 c 7.64677,-2.9073 10.00406,-12.14374 5.03481,-19.72774 l -3.77179,-5.75648 -147.69013,0 -147.69013,0 -3.7718,5.75648 c -4.75935,7.26369 -2.66296,16.79315 4.31174,19.59965 7.07869,2.84834 286.10231,2.97008 293.5773,0.12808 z M 340.85593,210.14831 c 2.54026,-2.54026 4.61865,-6.69704 4.61865,-9.23729 0,-2.54026 -2.07839,-6.69704 -4.61865,-9.23729 -4.45657,-4.45659 -7.69773,-4.61865 -92.37288,-4.61865 -84.67514,0 -87.91629,0.16205 -92.37288,4.61865 -2.54025,2.54025 -4.61864,6.69703 -4.61864,9.23729 0,2.54025 2.07839,6.69703 4.61864,9.23729 4.45659,4.45658 7.69774,4.61864 92.37288,4.61864 84.67515,0 87.91631,-0.16205 92.37288,-4.61864 z"
     id="path3344"
     inkscape:connector-curvature="0"
     transform="matrix(0.8,0,0,0.8,-0.5,0)" />
  <path
     style="fill:#ffffff"
     d="m 435.53814,466.86794 0,-32.7154 31.57489,0 31.5749,0 -30.91752,31.75318 c -17.00463,17.46425 -31.21334,32.18618 -31.5749,32.7154 -0.36155,0.52921 -0.65737,-13.75972 -0.65737,-31.75318 z"
     id="path3346"
     inkscape:connector-curvature="0"
     transform="matrix(0.8,0,0,0.8,-0.5,0)" />
  <path
     style="fill:#ffffff"
     d="m 26.788136,234.39619 0,-208.993648 207.838984,0 207.83898,0 0,24.247882 0,24.247881 -179.7692,0 c -171.224661,0 -179.950859,0.200729 -183.591101,4.223152 -3.487709,3.853873 -3.821901,20.008294 -3.821901,184.745763 l 0,180.52261 -24.247881,0 -24.247881,0 0,-208.99364 z"
     id="path3348"
     inkscape:connector-curvature="0"
     transform="matrix(0.8,0,0,0.8,-0.5,0)" />
</svg>
