<?xml version="1.0" encoding="UTF-8"?>
<svg width="282px" height="220px" viewBox="0 0 282 220" version="1.1" xmlns="http://www.w3.org/2000/svg" xmlns:xlink="http://www.w3.org/1999/xlink">
    <!-- Generator: Sketch 52 (66869) - http://www.bohemiancoding.com/sketch -->
    <title>Group Copy 2</title>
    <desc>Created with Sketch.</desc>
    <g id="App" stroke="none" stroke-width="1" fill="none" fill-rule="evenodd">
        <g id="Group-Copy-2" transform="translate(0.000000, -12.000000)">
            <g id="Group-2" transform="translate(0.000000, 48.547022)" fill="#000000">
                <polygon id="Fill-1" points="0.677941307 75.2967091 141.141521 152.324326 281.6051 75.2967091 137.876156 0.056891041"></polygon>
                <polygon id="Fill-2" points="140.888491 151.998625 140.888491 182.8103 281.35207 105.782682 281.35207 75.6934046"></polygon>
                <polygon id="Fill-3" points="0.677941307 106.108227 141.141521 183.135844 141.141521 152.324169 0.677941307 75.2965522"></polygon>
            </g>
            <g id="stonehenge-mockup-colored" transform="translate(32.617530, 0.000000)">
                <polygon id="Shape" fill="#000000" fill-rule="nonzero" points="79.4240945 61.3181919 99.9881683 72.2941086 99.9881683 30.5351611 79.4240945 19.5592444"></polygon>
                <polygon id="Shape" fill="#000000" fill-rule="nonzero" points="113.619482 65.770883 99.7418861 72.7096809 99.7418861 30.9507335 113.619482 24.0119356"></polygon>
                <polygon id="Shape" fill="#000000" fill-rule="nonzero" points="93.3016904 12.9295038 79.4240945 19.8683017 99.9881683 30.8442184 113.865764 23.9054205"></polygon>
                <g id="Base">
                    <polygon id="Shape" fill="#000000" fill-rule="nonzero" points="70.6873015 121.74211 94.9100143 135.619706 94.9100143 83.389482 70.6873015 69.5118862"></polygon>
                    <polygon id="Shape" fill="#000000" fill-rule="nonzero" points="134.744519 96.4320724 154.551633 107.912629 154.551633 65.0182418 134.744519 53.5376853"></polygon>
                    <polygon id="Shape" fill="#000000" fill-rule="nonzero" points="165.589557 102.206206 154.109001 107.883405 154.109001 64.9890174 165.589557 59.1856591"></polygon>
                    <polygon id="Shape" fill="#000000" fill-rule="nonzero" points="158.143268 111.081594 177.950382 122.56215 177.950382 79.5416031 158.143268 68.0610466"></polygon>
                    <polygon id="Shape" fill="#000000" fill-rule="nonzero" points="189.668999 116.603408 178.314603 122.406766 178.314603 79.3862187 189.668999 73.7090204"></polygon>
                    <polygon id="Shape" fill="#000000" fill-rule="nonzero" points="132.323959 53.2910689 182.787943 82.8125 182.787943 75.1167423 132.323959 45.4691512"></polygon>
                    <polygon id="Shape" fill="#000000" fill-rule="nonzero" points="193.829426 76.6898177 182.34887 82.3670159 182.34887 74.6712583 193.829426 68.8679"></polygon>
                    <polygon id="Shape" fill="#000000" fill-rule="nonzero" points="143.678355 39.8211774 132.323959 45.4983757 182.787943 75.1459668 194.2685 69.3426085"></polygon>
                    <polygon id="Shape" fill="#000000" fill-rule="nonzero" points="108.66145 128.680908 94.9100143 135.619706 94.9100143 83.389482 108.66145 76.4506841"></polygon>
                    <polygon id="Shape" fill="#000000" fill-rule="nonzero" points="138.056721 146.217143 124.179126 153.155941 124.179126 100.925717 138.056721 93.9869188"></polygon>
                    <polygon id="Shape" fill="#000000" fill-rule="nonzero" points="100.082573 139.278345 124.179126 153.155941 124.179126 100.925717 100.082573 87.0481209"></polygon>
                    <polygon id="Shape" fill="#000000" fill-rule="nonzero" points="0.163882704 132.970347 17.4477975 143.441624 17.4477975 101.682677 0.163882704 91.2113996"></polygon>
                    <polygon id="Shape" fill="#000000" fill-rule="nonzero" points="31.3253934 136.502826 17.4477975 143.441624 17.4477975 101.682677 31.3253934 94.7438786"></polygon>
                    <polygon id="Shape" fill="#000000" fill-rule="nonzero" points="14.0414785 84.2726017 0.163882704 91.2113996 17.4477975 101.682677 31.3253934 94.7438786"></polygon>
                    <polygon id="Shape" fill="#000000" fill-rule="nonzero" points="50.6326299 155.541868 74.8553426 169.545624 74.8553426 117.3154 50.6326299 103.311644"></polygon>
                    <polygon id="Shape" fill="#000000" fill-rule="nonzero" points="88.6067785 162.480666 74.8553426 169.545624 74.8553426 117.3154 88.6067785 110.250442"></polygon>
                    <polygon id="Shape" fill="#000000" fill-rule="nonzero" points="64.5102257 96.372846 50.6326299 103.311644 74.8553426 117.3154 88.6067785 110.250442"></polygon>
                    <polyline id="Shape" fill="#000000" fill-rule="nonzero" points="75.2338225 94.1019667 61.3562267 101.040765 101.096615 123.623398 114.848051 116.6846 75.2338225 94.1019667"></polyline>
                    <polygon id="Shape" fill="#000000" fill-rule="nonzero" points="88.1021386 179.890741 105.386053 190.362018 105.386053 138.131793 88.1021386 127.660517"></polygon>
                    <polygon id="Shape" fill="#000000" fill-rule="nonzero" points="119.137489 183.42322 105.386053 190.362018 105.386053 138.131793 119.137489 131.192996"></polygon>
                    <polygon id="Shape" fill="#000000" fill-rule="nonzero" points="101.979734 120.721719 88.1021386 127.660517 105.386053 138.131793 119.137489 131.192996"></polygon>
                    <polygon id="Shape" points="84.5648974 62.5730882 70.6873015 69.5118862 94.9100143 83.389482 108.66145 76.4506841"></polygon>
                    <polygon id="Shape" points="113.960169 81.3709226 100.082573 88.3097205 124.179126 102.187316 138.056721 95.2485184"></polygon>
                    <polygon id="Shape" fill="#000000" fill-rule="nonzero" points="68.0379423 68.8810863 129.477844 104.836676 129.477844 95.3746784 68.0379423 59.4190892"></polygon>
                    <polygon id="Shape" fill="#000000" fill-rule="nonzero" points="143.35544 97.7717177 129.477844 104.836676 129.477844 95.3746784 143.35544 88.4358805"></polygon>
                    <polygon id="Shape" fill="#000000" fill-rule="nonzero" points="81.9155382 52.4802913 68.0379423 59.4190892 129.477844 95.3746784 143.35544 88.4358805"></polygon>
                    <polygon id="Shape" points="122.412886 0.502386859 111.058489 6.17958516 130.865603 17.6601417 142.34616 11.9829434"></polygon>
                    <polygon id="Shape" points="146.635599 15.8939022 135.281202 21.6972605 155.088316 33.1778171 166.442713 27.3744588"></polygon>
                    <polygon id="Shape" points="170.858311 29.5191782 159.503915 35.1963765 159.503915 27.5006188 170.858311 21.6972605"></polygon>
                    <polygon id="Shape" points="181.203428 42.0090144 169.849032 47.6862127 189.656146 59.1667693 201.136702 53.363411"></polygon>
                    <polygon id="Shape" points="205.426141 57.4005298 194.071745 63.0777281 213.878859 74.5582846 225.233255 68.8810863"></polygon>
                    <polygon id="Shape" fill="#000000" fill-rule="nonzero" points="202.524462 126.788509 182.717348 139.404505 182.717348 94.1130788 202.524462 81.6232425"></polygon>
                    <polygon id="Shape" fill="#000000" fill-rule="nonzero" points="168.461272 131.204108 182.717348 139.404505 182.717348 94.1130788 168.461272 85.9126812"></polygon>
                    <polygon id="Shape" fill="#000000" fill-rule="nonzero" points="188.268386 73.296685 168.461272 85.9126812 182.717348 94.1130788 202.524462 81.6232425"></polygon>
                    <polyline id="Shape" fill="#000000" fill-rule="nonzero" points="101.096615 133.463875 101.096615 123.623398 114.848051 116.6846 114.848051 126.525077 101.096615 133.463875"></polyline>
                    <polyline id="Shape" fill="#000000" fill-rule="nonzero" points="101.096615 133.463875 101.096615 123.623398 61.3562267 101.040765 61.3562267 110.881242 101.096615 133.463875"></polyline>
                </g>
            </g>
            <polygon id="Path-2" fill="#000000" fill-rule="nonzero" points="0.677941307 153.782609 0.677941307 12.9295038 281.35207 12.9295038 281.35207 154.577666"></polygon>
            <polygon id="Path-3" fill="#000000" fill-rule="nonzero" points="43.9092217 150.304348 138.608194 214.567618 256.585086 151.391304 230.032802 100.808122"></polygon>
        </g>
    </g>
</svg>