<svg id="Layer_1" data-name="Layer 1" xmlns="http://www.w3.org/2000/svg" viewBox="0 0 302.4 222.9"><defs><style>.cls-1{fill:#9d9a98;}.cls-2{fill:#302f2e;}.cls-3{fill:#545352;}.cls-4{fill:none;}</style></defs><title>stonehenge mockup-colored</title><g id="Base"><polygon class="cls-1" points="154.7 0 138.4 8.2 166.7 24.5 183 16.3 154.7 0"/><polygon class="cls-2" points="183 77.6 166.7 85.8 166.7 24.5 183 16.3 183 77.6"/><polygon class="cls-3" points="138.4 69.5 166.7 85.8 166.7 24.5 138.4 8.2 138.4 69.5"/><path class="cls-4" d="M560.6,328.6" transform="translate(-476.8 -122.7)"/><path class="cls-4" d="M529.8,289.6" transform="translate(-476.8 -122.7)"/><path class="cls-4" d="M573.5,306.1" transform="translate(-476.8 -122.7)"/><path class="cls-4" d="M604.6,319.7" transform="translate(-476.8 -122.7)"/><path class="cls-4" d="M520.5,214.4" transform="translate(-476.8 -122.7)"/><path class="cls-4" d="M542.2,204.1" transform="translate(-476.8 -122.7)"/><polygon class="cls-3" points="61.4 105.6 75.3 111.6 75.3 35 61.4 29 61.4 105.6"/><polygon class="cls-2" points="91.4 103.6 75.3 111.6 75.3 35 91.4 26.9 91.4 103.6"/><polygon class="cls-1" points="77.4 20.9 61.4 29 75.3 35 91.4 26.9 77.4 20.9"/><path class="cls-4" d="M504.5,179" transform="translate(-476.8 -122.7)"/><polygon class="cls-3" points="1.2 131.3 18.6 138.8 17.4 72.3 0 64.8 1.2 131.3"/><polygon class="cls-2" points="57 118.5 18.6 138.8 17.4 72.3 55.8 52 57 118.5"/><polygon class="cls-1" points="38.4 44.4 0 64.8 17.4 72.3 55.8 52 38.4 44.4"/><path class="cls-4" d="M594.3,311.2" transform="translate(-476.8 -122.7)"/><path class="cls-4" d="M590.3,347.9" transform="translate(-476.8 -122.7)"/><path class="cls-4" d="M597.7,322.7" transform="translate(-476.8 -122.7)"/><path class="cls-4" d="M578.3,297.5" transform="translate(-476.8 -122.7)"/><path class="cls-4" d="M591.2,275.1" transform="translate(-476.8 -122.7)"/><polygon class="cls-4" points="106.2 134.5 95.2 140 114.4 151 125.3 145.5 106.2 134.5"/><path class="cls-4" d="M615.9,211.7" transform="translate(-476.8 -122.7)"/><path class="cls-4" d="M628.9,189.3" transform="translate(-476.8 -122.7)"/><path class="cls-4" d="M653.8,217.8" transform="translate(-476.8 -122.7)"/><path class="cls-4" d="M659.7,190.6" transform="translate(-476.8 -122.7)"/><path class="cls-4" d="M726.5,228.5" transform="translate(-476.8 -122.7)"/><path class="cls-4" d="M750.5,272.7" transform="translate(-476.8 -122.7)"/><path class="cls-4" d="M726.2,231.6" transform="translate(-476.8 -122.7)"/><path class="cls-4" d="M745.9,241.6" transform="translate(-476.8 -122.7)"/><path class="cls-4" d="M737.9,259.5" transform="translate(-476.8 -122.7)"/><path class="cls-4" d="M745.6,244.7" transform="translate(-476.8 -122.7)"/><path class="cls-4" d="M729.4,223.7" transform="translate(-476.8 -122.7)"/><path class="cls-4" d="M691.3,186.7" transform="translate(-476.8 -122.7)"/><path class="cls-4" d="M676,221.2" transform="translate(-476.8 -122.7)"/><path class="cls-4" d="M690.8,192.8" transform="translate(-476.8 -122.7)"/><path class="cls-4" d="M728.6,211.8" transform="translate(-476.8 -122.7)"/><path class="cls-4" d="M713.3,246.2" transform="translate(-476.8 -122.7)"/><path class="cls-4" d="M728.1,217.8" transform="translate(-476.8 -122.7)"/><path class="cls-4" d="M712.3,184.1" transform="translate(-476.8 -122.7)"/><path class="cls-4" d="M697,177.5" transform="translate(-476.8 -122.7)"/><path class="cls-4" d="M711.8,190.1" transform="translate(-476.8 -122.7)"/><polygon class="cls-3" points="192.7 90.3 219.5 106.2 219.5 46.6 192.7 30.7 192.7 90.3"/><polygon class="cls-2" points="240.5 95.6 219.5 106.2 219.5 46.6 240.5 36 240.5 95.6"/><polygon class="cls-1" points="213.8 20.2 192.7 30.7 219.5 46.6 240.5 36 213.8 20.2"/><polygon class="cls-3" points="230 115.3 256.7 131.2 256.7 71.7 230 55.8 230 115.3"/><polygon class="cls-2" points="277.8 120.6 256.7 131.2 256.7 71.7 277.8 61.1 277.8 120.6"/><polygon class="cls-1" points="251.1 45.2 230 55.8 256.7 71.7 277.8 61.1 251.1 45.2"/><polygon class="cls-3" points="213.7 46.6 240.4 62.5 240.4 44 213.7 28.1 213.7 46.6"/><polygon class="cls-2" points="261.5 51.9 240.4 62.5 240.4 44 261.5 33.4 261.5 51.9"/><polygon class="cls-1" points="234.8 17.5 213.7 28.1 240.4 44 261.5 33.4 234.8 17.5"/><path class="cls-4" d="M601.6,285.3" transform="translate(-476.8 -122.7)"/><path class="cls-4" d="M614.5,290" transform="translate(-476.8 -122.7)"/><polygon class="cls-4" points="129.5 149.4 118.5 154.9 137.6 165.9 148.6 160.4 129.5 149.4"/><path class="cls-4" d="M741.8,263.3" transform="translate(-476.8 -122.7)"/><polygon class="cls-3" points="248.8 170.3 265.5 177.6 264.4 113.7 247.6 106.4 248.8 170.3"/><polygon class="cls-2" points="302.4 158 265.5 177.6 264.4 113.7 301.3 94.1 302.4 158"/><polygon class="cls-1" points="284.5 86.8 247.6 106.4 264.4 113.7 301.3 94.1 284.5 86.8"/><path class="cls-4" d="M695.3,307.6" transform="translate(-476.8 -122.7)"/><path class="cls-4" d="M576.2,262.4" transform="translate(-476.8 -122.7)"/><path class="cls-4" d="M618.7,278.4" transform="translate(-476.8 -122.7)"/><path class="cls-4" d="M609.2,241.2" transform="translate(-476.8 -122.7)"/><path class="cls-4" d="M619.8,222.7" transform="translate(-476.8 -122.7)"/><polygon class="cls-4" points="136.2 85.3 127.2 89.8 142.9 98.9 152 94.4 136.2 85.3"/><path class="cls-4" d="M628.3,231.2" transform="translate(-476.8 -122.7)"/><path class="cls-4" d="M638.9,235" transform="translate(-476.8 -122.7)"/><polygon class="cls-4" points="155.4 97.5 146.4 102.1 162.1 111.2 171.1 106.6 155.4 97.5"/><path class="cls-4" d="M607.4,212.3" transform="translate(-476.8 -122.7)"/><path class="cls-4" d="M642.4,225.5" transform="translate(-476.8 -122.7)"/><polygon class="cls-4" points="174.6 108.3 165.6 112.8 165.6 106.7 174.6 102.1 174.6 108.3"/><path class="cls-4" d="M655.7,274" transform="translate(-476.8 -122.7)"/><path class="cls-4" d="M666.4,255.6" transform="translate(-476.8 -122.7)"/><polygon class="cls-4" points="182.8 118.2 173.8 122.7 189.5 131.8 198.6 127.2 182.8 118.2"/><path class="cls-4" d="M674.9,264" transform="translate(-476.8 -122.7)"/><path class="cls-4" d="M685.5,267.9" transform="translate(-476.8 -122.7)"/><polygon class="cls-4" points="202 130.4 193 134.9 208.7 144 217.7 139.5 202 130.4"/><path class="cls-4" d="M654,245.2" transform="translate(-476.8 -122.7)"/><path class="cls-4" d="M689,258.3" transform="translate(-476.8 -122.7)"/><polygon class="cls-3" points="139.9 108.2 163.4 121.8 163.4 70.9 139.9 57.3 139.9 108.2"/><polygon class="cls-2" points="176.9 115 163.4 121.8 163.4 70.9 176.9 64.1 176.9 115"/><polygon class="cls-3" points="170.7 124 194.2 137.6 194.2 86.6 170.7 73.1 170.7 124"/><polygon class="cls-2" points="205.6 133.3 192.1 140.1 192.1 89.2 205.6 82.4 205.6 133.3"/><polygon class="cls-3" points="137.3 56.6 197.2 91.7 197.2 82.5 137.3 47.4 137.3 56.6"/><polygon class="cls-2" points="210.7 84.9 197.2 91.7 197.2 82.5 210.7 75.7 210.7 84.9"/><polygon class="cls-1" points="150.8 40.6 137.3 47.4 197.2 82.5 210.7 75.7 150.8 40.6"/><path class="cls-4" d="M555.9,257.7" transform="translate(-476.8 -122.7)"/><path class="cls-4" d="M349.4,311.2" transform="translate(-476.8 -122.7)"/><polygon class="cls-2" points="212.7 162.5 192.2 175.4 192.2 128.7 212.7 115.7 212.7 162.5"/><polygon class="cls-3" points="177.5 166.9 192.2 175.4 192.2 128.7 177.5 120.2 177.5 166.9"/><polygon class="cls-1" points="198 107.3 177.5 120.2 192.2 128.7 212.7 115.7 198 107.3"/><polygon class="cls-3" points="81 161.5 111.9 178.2 111.9 115.8 81 99.2 81 161.5"/><polygon class="cls-2" points="129.6 169.8 111.9 178.2 111.9 115.8 129.6 107.5 129.6 169.8"/><polygon class="cls-2" points="167.6 189.7 149.9 198 149.9 135.6 167.6 127.3 167.6 189.7"/><polygon class="cls-3" points="119.4 181 150.3 197.6 150.3 135.3 119.4 118.7 119.4 181"/><polygon class="cls-3" points="77.5 98.4 156.3 141.3 156.3 130.1 77.5 87.1 77.5 98.4"/><polygon class="cls-2" points="174 133 156.3 141.3 156.3 130.1 174 121.8 174 133"/><polygon class="cls-1" points="95.3 78.8 77.5 87.1 156.3 130.1 174 121.8 95.3 78.8"/><polygon class="cls-3" points="27.9 178.2 58.9 196.1 58.9 129.1 27.9 111.2 27.9 178.2"/><polygon class="cls-2" points="76.6 187.2 58.9 196.1 58.9 129.1 76.6 120.2 76.6 187.2"/><polygon class="cls-1" points="45.7 102.3 27.9 111.2 58.9 129.1 76.6 120.2 45.7 102.3"/><polyline class="cls-1" points="59.4 99.3 41.6 108.3 92.6 137.3 110.3 128.4 59.4 99.3"/><polygon class="cls-3" points="76 209.5 98 222.9 98 155.9 76 142.5 76 209.5"/><polygon class="cls-2" points="115.8 214 98 222.9 98 155.9 115.8 147 115.8 214"/><polygon class="cls-1" points="93.7 133.6 76 142.5 98 155.9 115.8 147 93.7 133.6"/><polyline class="cls-2" points="92.6 149.9 92.6 137.3 110.3 128.4 110.3 141 92.6 149.9"/><polyline class="cls-3" points="92.6 149.9 92.6 137.3 41.6 108.3 41.6 120.9 92.6 149.9"/><polygon class="cls-3" points="185.7 206.9 205.4 215.4 204 164.9 184.3 156.4 185.7 206.9"/><polygon class="cls-2" points="237.3 203.9 205.4 215.4 204 164.9 235.9 153.4 237.3 203.9"/><polygon class="cls-1" points="216.2 144.9 184.3 156.4 204 164.9 235.9 153.4 216.2 144.9"/></g></svg>