<svg id="Layer_1" data-name="Layer 1" xmlns="http://www.w3.org/2000/svg" viewBox="0 0 229.5 198.7"><defs><style>.cls-1{fill:#6c6565;}.cls-2{fill:#211f1f;}.cls-3{fill:#333232;}.cls-4{fill:none;}.cls-5{fill:#4d4b4b;}.cls-6{fill:#a4a0a0;}</style></defs><title>stonehenge base home</title><polygon class="cls-1" points="115.5 66.1 115.3 0.2 0.8 66.1 0.8 132.3 115.5 66.1"/><polyline class="cls-2" points="90.6 184.3 114.8 198.3 229.5 132.1 114.8 65.9 0.1 132.1 90.6 184.3"/><polygon class="cls-3" points="229.5 132.1 229.3 66.2 114.8 132.1 114.8 198.3 229.5 132.1"/><path class="cls-4" d="M683.5,249.7" transform="translate(-806 -148.1)"/><path class="cls-5" d="M806,214.3l.2,66.3,114.7,66.2V280.6Zm39.1,59.6-19.1-11V240.8l19.1,11v22.1Zm36.7,50-18.4-10.6.1-44.1,19.1,11Z" transform="translate(-806 -148.1)"/><polygon class="cls-3" points="62.3 123.9 62.3 162.1 57.4 165.2 57.5 121.1 62.3 123.9"/><polygon class="cls-6" points="0.1 66.2 114.8 0 229.5 66.2 114.8 132.5 0.1 66.2"/><polygon class="cls-3" points="23.2 95.3 23.2 112.4 20.4 114.4 20.4 93.8 23.2 95.3"/><polygon class="cls-3" points="23.5 112.5 20.4 114.8 39.1 125.1 39.1 121.3 23.5 112.5"/></svg>