<?xml version="1.0" encoding="iso-8859-1"?>
<!-- Generator: Adobe Illustrator 19.0.0, SVG Export Plug-In . SVG Version: 6.00 Build 0)  -->
<svg version="1.1" id="Capa_1" xmlns="http://www.w3.org/2000/svg" xmlns:xlink="http://www.w3.org/1999/xlink" x="0px" y="0px"
	 viewBox="0 0 512 512" style="enable-background:new 0 0 512 512;" xml:space="preserve">
<path style="fill:#697C86;" d="M427.499,330.494c-30.046,0-54.492-24.444-54.492-54.49c0-8.286-6.718-15.003-15.004-15.003h-209
	c-8.286,0-15.004,6.716-15.004,15.003c0,30.068-24.463,54.53-54.533,54.53c-8.285,0.001-15.002,6.962-15.002,15.248
	s6.718,15.246,15.004,15.246c0,0,0,0,0.002,0l348.031-0.283c8.285-0.001,15.002-6.841,15.002-15.127
	C442.503,337.332,435.785,330.494,427.499,330.494z"/>
<path style="fill:#9ED0FF;" d="M512,346.025c0-8.286-6.718-15.004-15.004-15.004H15.864c-8.286,0-15.004,6.718-15.004,15.004v55.015
	c0,8.286,6.718,15.004,15.004,15.004h481.132c8.286,0,15.004-6.718,15.004-15.004V346.025z"/>
<path style="fill:#9FACBA;" d="M253.483,261.001H149.003c-8.286,0-15.004,6.716-15.004,15.003c0,30.068-24.463,54.53-54.533,54.53
	c-8.285,0.001-15.002,6.962-15.002,15.248s6.718,15.246,15.004,15.246c0,0,0,0,0.002,0l174.014-0.159V261.001z"/>
<path style="fill:#E8F4FF;" d="M253.483,331.021H15.864c-8.286,0-15.004,6.718-15.004,15.004v55.015
	c0,8.286,6.718,15.004,15.004,15.004h237.619V331.021z"/>
<path style="fill:#9ED0FF;" d="M496.995,110.96H391.967v-0.439c0-8.286-6.439-14.565-14.725-14.565H134.616
	c-8.286,0-14.723,6.278-14.723,14.565v0.439H14.863C6.577,110.96,0,117.529,0,125.815c0,69.235,51.874,126.293,119.893,133.779
	v16.409c0,8.286,6.437,15.007,14.723,15.007h242.627c8.286,0,14.725-6.721,14.725-15.007v-16.409
	c68.019-7.485,119.892-64.544,119.892-133.779C511.86,117.529,505.282,110.96,496.995,110.96z"/>
<path style="fill:#E8F4FF;" d="M253.483,95.956H134.616c-8.286,0-14.723,6.278-14.723,14.565v0.439H14.863
	C6.577,110.96,0,117.529,0,125.815c0,69.235,51.874,126.293,119.893,133.779v16.409c0,8.286,6.437,15.007,14.723,15.007h118.868
	V95.956z"/>
<path style="fill:#9FACBA;" d="M119.893,110.52v0.439H14.863C6.577,110.96,0,117.529,0,125.815
	c0,69.235,51.874,126.293,119.893,133.779v16.409c0,0.022,0,0.043,0,0.064v-165.61C119.893,110.478,119.893,110.499,119.893,110.52z
	"/>
<path style="fill:#697C86;" d="M496.995,110.96H391.967v148.634c68.019-7.485,119.892-64.544,119.892-133.779
	C511.86,117.529,505.282,110.96,496.995,110.96z"/>
<g>
</g>
<g>
</g>
<g>
</g>
<g>
</g>
<g>
</g>
<g>
</g>
<g>
</g>
<g>
</g>
<g>
</g>
<g>
</g>
<g>
</g>
<g>
</g>
<g>
</g>
<g>
</g>
<g>
</g>
</svg>
