<?xml version="1.0" encoding="UTF-8" standalone="no"?>
<svg id="svg2" xmlns:rdf="http://www.w3.org/1999/02/22-rdf-syntax-ns#" xmlns="http://www.w3.org/2000/svg" height="512pt" width="512pt" version="1.1" xmlns:cc="http://creativecommons.org/ns#" xmlns:dc="http://purl.org/dc/elements/1.1/" viewBox="0 -43 512.00001 512">
 <metadata id="metadata21">
  <rdf:RDF>
   <cc:Work rdf:about="">
    <dc:format>image/svg+xml</dc:format>
    <dc:type rdf:resource="http://purl.org/dc/dcmitype/StillImage"/>
    <dc:title/>
   </cc:Work>
  </rdf:RDF>
 </metadata>
 <g id="surface1">
  <path id="path5" d="m256 121.89l-5.95 9.31c-24.25 38.12-55.76 71.1-92.75 97.05l-55.25 38.79c-34.671 24.39-64.566 54.95-88.171 90.16l-13.879 20.69 48.785 48.79 12.414-18.79c23.645-35.6 53.691-66.49 88.611-91.11l56.54-39.83c36.79-25.9 68.15-58.76 92.32-96.71l5.69-8.88c-4.74-5.51-9.66-10.77-14.83-15.94z" fill="#603812"/>
  <path id="path7" d="m426.65 48.754l-48.76-48.754-24.4 24.375 34.11 34.074c4.92 4.887 10.05 9.524 15.27 14.059z" fill="#603812"/>
  <path id="path9" d="m508.29 132.84c-13.65-4.52-26.96-10.02-39.82-16.47-10.49 25.16-25.51 48.18-44.3 67.92-1.41 1.48-2.87 2.88-4.31 4.32l36.54 36.54c1.44-1.44 2.94-2.82 4.31-4.31 22.62-23.78 39.75-52.23 50.17-83.35l1.12-3.45z" fill="#b8b7bb"/>
  <path id="path11" d="m419.86 188.61c-20.53 20.63-44.91 37.03-71.76 48.27 6.37 12.89 11.87 26.19 16.46 39.82l1.21 3.7 3.36-1.12c32.91-11.03 62.8-29.56 87.32-54.13z" fill="#ababb1"/>
  <path id="path13" d="m402.88 72.5c-5.26-4.484-10.34-9.137-15.26-14.051-0.17-0.172-0.43-0.344-0.6-0.515l-57.93-57.926-44.56 44.648-4.31 4.313 139.64 139.64c1.44-1.44 2.9-2.84 4.31-4.32 18.79-19.74 33.81-42.76 44.3-67.92-23.67-11.73-45.71-26.475-65.59-43.87z" fill="#e3e2e5"/>
  <path id="path15" d="m419.86 188.61l-139.64-139.64-48.61 48.526 57.92 57.924c5.17 5.17 10.08 10.43 14.83 15.94 17.28 19.9 31.96 41.91 43.69 65.52 26.87-11.24 51.27-27.64 71.81-48.27z" fill="#d7d6d9"/>
 </g>
</svg>
