<?xml version="1.0" encoding="iso-8859-1"?>
<!-- Generator: Adobe Illustrator 19.0.0, SVG Export Plug-In . SVG Version: 6.00 Build 0)  -->
<svg version="1.1" id="Capa_1" xmlns="http://www.w3.org/2000/svg" xmlns:xlink="http://www.w3.org/1999/xlink" x="0px" y="0px"
	 viewBox="0 0 512 512" style="enable-background:new 0 0 512 512;" xml:space="preserve">
<polygon style="fill:#BD2B0F;" points="335.026,512 335.026,159.471 262.642,139.455 282.658,512 "/>
<polygon style="fill:#DB5925;" points="230.289,159.471 230.289,512 282.658,512 282.658,139.455 "/>
<polygon style="fill:#CEC8D7;" points="426.182,0 282.658,0 262.642,79.736 282.658,159.471 335.025,159.471 354.041,149.463 
	377.5,159.471 426.182,159.471 "/>
<polygon style="fill:#F7F7F8;" points="138.975,0 85.818,79.736 138.975,159.471 187.815,159.471 206.901,149.463 230.29,159.471 
	282.658,159.471 282.658,0 230.289,0 208.005,10.008 187.815,0 "/>
<polyline style="fill:#CEC8D7;" points="335.026,0 356.616,10.008 377.5,0 "/>
<path style="fill:#AF7234;" d="M335.026,0l-52.368,57.466l-10.008,22.27l10.008,22.27l52.368,57.466H377.5V0H335.026z M347.5,128.62
	l-44.548-48.885L347.5,30.851V128.62z"/>
<path style="fill:#E4A02C;" d="M230.29,0h-42.474v159.471h42.474l0,0l0,0l52.368-57.466v-44.54L230.29,0z M217.815,128.62V30.85
	l44.548,48.885L217.815,128.62z"/>
<g>
</g>
<g>
</g>
<g>
</g>
<g>
</g>
<g>
</g>
<g>
</g>
<g>
</g>
<g>
</g>
<g>
</g>
<g>
</g>
<g>
</g>
<g>
</g>
<g>
</g>
<g>
</g>
<g>
</g>
</svg>
