<?xml version="1.0" encoding="iso-8859-1"?>
<!-- Generator: Adobe Illustrator 19.0.0, SVG Export Plug-In . SVG Version: 6.00 Build 0)  -->
<svg version="1.1" id="Capa_1" xmlns="http://www.w3.org/2000/svg" xmlns:xlink="http://www.w3.org/1999/xlink" x="0px" y="0px"
	 viewBox="0 0 512 512" style="enable-background:new 0 0 512 512;" xml:space="preserve">
<g>
	<path style="fill:#F0C419;" d="M446.425,325.032l-86.246-5.826c-4.505-0.238-8.465,2.961-9.181,7.415
		c-12.977,77.948-46.874,140.712-90.571,168.96C203.666,459.123,163.324,365.639,163.324,256s40.342-203.123,97.103-239.581
		c43.697,28.248,77.594,91.012,90.571,168.96c0.716,4.455,4.675,7.653,9.181,7.415l86.246-5.826
		c2.504-0.184,4.811-1.425,6.344-3.413c1.533-1.988,2.147-4.535,1.689-7.003C435.126,74.063,379.071,0,312.952,0h-105.49
		C124.571,0,57.393,114.582,57.393,256s67.178,256,150.069,256h105.931c65.942-0.353,121.732-74.328,141.065-176.552
		c0.459-2.468-0.155-5.015-1.689-7.003C451.236,326.457,448.929,325.215,446.425,325.032z"/>
	<g>
		<path style="fill:#F29C1F;" d="M454.458,335.448C435.126,437.672,379.335,511.647,313.393,512h-0.441
			c-4.464,0.005-8.922-0.349-13.33-1.059c-2.295-0.353-4.59-0.794-6.797-1.324c-3.416-0.743-6.779-1.716-10.063-2.913
			c-3.266-1.236-6.532-2.56-9.71-4.061c-4.356-2.079-8.573-4.438-12.623-7.062c43.697-28.248,77.594-91.012,90.571-168.96
			c0.716-4.455,4.675-7.653,9.181-7.415l86.246,5.826c2.504,0.184,4.811,1.425,6.344,3.413
			C454.303,330.433,454.917,332.98,454.458,335.448z"/>
		<path style="fill:#F29C1F;" d="M454.458,176.552c0.459,2.468-0.155,5.015-1.689,7.003c-1.533,1.988-3.84,3.229-6.344,3.413
			l-86.246,5.826c-4.505,0.238-8.465-2.961-9.181-7.415c-12.977-77.948-46.874-140.712-90.571-168.96
			c4.051-2.624,8.267-4.983,12.623-7.062c3.178-1.501,6.444-2.825,9.71-4.061c3.285-1.197,6.647-2.17,10.063-2.913
			c2.207-0.53,4.502-0.971,6.797-1.324c4.408-0.707,8.865-1.061,13.33-1.059C379.071,0,435.126,74.063,454.458,176.552z"/>
	</g>
	<path style="fill:#F3D55B;" d="M119.186,256c0-88.046,27.366-170.222,71.389-214.457c3.442-3.457,3.43-9.049-0.026-12.491
		s-9.049-3.43-12.491,0.026C130.141,77.224,101.531,162.057,101.531,256s28.61,178.776,76.526,226.922
		c2.227,2.236,5.477,3.114,8.527,2.304c3.05-0.81,5.436-3.186,6.259-6.232c0.823-3.046-0.041-6.3-2.268-8.536
		C146.552,426.222,119.186,344.046,119.186,256z"/>
</g>
<g>
</g>
<g>
</g>
<g>
</g>
<g>
</g>
<g>
</g>
<g>
</g>
<g>
</g>
<g>
</g>
<g>
</g>
<g>
</g>
<g>
</g>
<g>
</g>
<g>
</g>
<g>
</g>
<g>
</g>
</svg>
