<svg height="512pt" viewBox="0 0 512.00028 512" width="512pt" xmlns="http://www.w3.org/2000/svg"><path d="m225.320312 351.25-21.210937-21.222656-11.042969-11.035156-32.316406-32.3125-67.765625 67.769531c-22.105469-18.972657-55.550781-17.984375-76.480469 2.949219-10.644531 10.632812-16.503906 24.785156-16.503906 39.828124 0 15.050782 5.859375 29.191407 16.503906 39.832032 11.53125 11.53125 26.863282 17.003906 42.015625 16.421875v.023437c-.589843 15.140625 4.898438 30.472656 16.421875 41.992188 10.980469 10.984375 25.414063 16.472656 39.835938 16.472656s28.84375-5.488281 39.824218-16.472656c10.640626-10.628906 16.5-24.78125 16.5-39.824219 0-13.589844-4.777343-26.453125-13.550781-36.652344zm0 0" fill="#dfcdbd"/><path d="m467.683594 258.613281c-29.515625 29.515625-85.132813 61.53125-138.390625 79.664063-30.121094 10.261718-57.355469 15.511718-80.949219 15.609375h-.691406c-28.722656 0-51.054688-7.769531-66.398438-23.082031-.007812-.011719-.019531-.019532-.03125-.03125-15.460937-15.460938-23.230468-38.042969-23.113281-67.117188.101563-23.59375 5.351563-50.828125 15.613281-80.953125 18.132813-53.265625 50.148438-108.871094 79.660156-138.386719 59.078126-59.089844 155.222657-59.089844 214.300782 0 .019531.019532.050781.050782.070312.070313 59.015625 59.097656 58.996094 155.171875-.070312 214.226562zm0 0" fill="#ffaa20"/><g fill="#ffec97"><path d="m375.910156 47.085938 21.429688 21.433593-21.429688 21.429688-21.433594-21.429688zm0 0"/><path d="m309.828125 46.730469 21.429687 21.429687-21.429687 21.433594-21.429687-21.433594zm0 0"/><path d="m342.332031 93.519531 21.433594 21.433594-21.433594 21.429687-21.429687-21.429687zm0 0"/></g><path d="m157.550781 419.019531c8.773438 10.199219 13.550781 23.0625 13.550781 36.652344 0 15.042969-5.859374 29.195313-16.5 39.824219-10.980468 10.984375-25.402343 16.472656-39.824218 16.472656s-28.855469-5.488281-39.835938-16.472656c-11.523437-11.519532-17.011718-26.851563-16.421875-41.992188l134.546875-134.511718 11.042969 11.035156 21.210937 21.222656zm0 0" fill="#c8ad92"/><path d="m467.683594 258.613281c-29.515625 29.515625-85.132813 61.53125-138.390625 79.664063-30.121094 10.261718-57.355469 15.511718-80.949219 15.609375h-.691406c-28.722656 0-51.054688-7.769531-66.398438-23.082031l286.5-286.417969c59.015625 59.097656 58.996094 155.171875-.070312 214.226562zm0 0" fill="#ff8900"/></svg>