<?xml version="1.0" encoding="UTF-8" standalone="no"?>
<svg id="svg2" xmlns:rdf="http://www.w3.org/1999/02/22-rdf-syntax-ns#" xmlns="http://www.w3.org/2000/svg" height="512pt" width="512pt" version="1.1" xmlns:cc="http://creativecommons.org/ns#" xmlns:dc="http://purl.org/dc/elements/1.1/" viewBox="0 0 512 512.00091">
 <metadata id="metadata59">
  <rdf:RDF>
   <cc:Work rdf:about="">
    <dc:format>image/svg+xml</dc:format>
    <dc:type rdf:resource="http://purl.org/dc/dcmitype/StillImage"/>
    <dc:title/>
   </cc:Work>
  </rdf:RDF>
 </metadata>
 <g id="surface1">
  <path id="path5" d="m0 88.277h35.309v17.653h-35.309z" fill="#cecdd1"/>
  <path id="path7" d="m0 105.93h35.309v17.66h-35.309z" fill="#c6c5c9"/>
  <path id="path9" d="m70.621 105.93h-35.312v17.66l35.312 35.31h35.309v-52.97z" fill="#ababb1"/>
  <path id="path11" d="m70.621 52.965l-35.312 35.312v17.653h70.621v-52.965z" fill="#b8b7bb"/>
  <path id="path13" d="m141.24 123.59v-17.66h-35.31v70.62h35.31z" fill="#7f8185"/>
  <path id="path15" d="m141.24 105.93v-70.621h-35.31v70.621z" fill="#929495"/>
  <path id="path17" d="m229.52 105.93h-88.28v17.66h35.31c9.75 0 17.66 7.9 17.66 17.65s-7.91 17.66-17.66 17.66h-35.31v52.96h88.28z" fill="#cca300"/>
  <path id="path19" d="m176.55 52.965c9.75 0 17.66 7.906 17.66 17.656s-7.91 17.656-17.66 17.656h-35.31v17.653h88.28v-105.93h-88.28v52.965z" fill="#dbbe49"/>
  <path id="path21" d="m388.41 176.55h17.66c38.98-0.05 70.57-31.64 70.62-70.62h-8.83c0 4.87-3.95 8.83-8.82 8.83h-61.8c-4.87 0-8.83-3.96-8.83-8.83h-158.89v105.93h141.24v-17.65c0-9.75 7.9-17.66 17.65-17.66zm8.83-52.96h52.97c4.87 0 8.83 3.95 8.83 8.82 0 4.88-3.96 8.83-8.83 8.83h-52.97c-4.87 0-8.83-3.95-8.83-8.83 0-4.87 3.96-8.82 8.83-8.82zm-132.41 52.96c0 4.88-3.95 8.83-8.83 8.83s-8.83-3.95-8.83-8.83v-8.82c0-4.88 3.95-8.83 8.83-8.83s8.83 3.95 8.83 8.83zm0-44.14c0 4.88-3.95 8.83-8.83 8.83s-8.83-3.95-8.83-8.83v-8.82c0-4.88 3.95-8.83 8.83-8.83s8.83 3.95 8.83 8.83z" fill="#ffde17"/>
  <path id="path23" d="m388.41 105.93c0-4.88 3.96-8.825 8.83-8.825h61.8c4.87 0 8.82 3.945 8.82 8.825h8.83c-0.05-38.981-31.64-70.567-70.62-70.621h-17.66c-9.75 0-17.65-7.903-17.65-17.653v-17.656h-141.24v105.93zm8.83-35.309h52.97c4.87 0 8.83 3.953 8.83 8.828s-3.96 8.828-8.83 8.828h-52.97c-4.87 0-8.83-3.953-8.83-8.828s3.96-8.828 8.83-8.828zm-150.07-35.312c0-4.875 3.95-8.825 8.83-8.825s8.83 3.95 8.83 8.825v8.828c0 4.875-3.95 8.828-8.83 8.828s-8.83-3.953-8.83-8.828zm0 44.14c0-4.875 3.95-8.828 8.83-8.828s8.83 3.953 8.83 8.828v8.828c0 4.875-3.95 8.825-8.83 8.825s-8.83-3.954-8.83-8.825z" fill="#ffe659"/>
  <path id="path25" d="m194.21 70.621c0-9.75-7.91-17.656-17.66-17.656h-35.31v35.312h35.31c9.75 0 17.66-7.906 17.66-17.656z" fill="#e4dbcf"/>
  <path id="path27" d="m176.55 158.9c9.75 0 17.66-7.91 17.66-17.66s-7.91-17.65-17.66-17.65h-35.31v35.31z" fill="#e4dbcf"/>
  <path id="path29" d="m414.9 0.44141c-2.92-0.23829-5.85-0.44141-8.83-0.44141h-35.31v17.656c0 9.75 7.9 17.656 17.65 17.656h17.66c38.98 0.051 70.57 31.637 70.62 70.618h35.31c-0.04-55.051-42.24-100.9-97.1-105.49z" fill="#dbbe49"/>
  <path id="path31" d="m476.69 105.93c-0.05 38.98-31.64 70.57-70.62 70.62h-17.66c-9.75 0-17.65 7.91-17.65 17.66v17.65h35.31c2.98 0 5.9-0.2 8.82-0.44 54.87-4.59 97.07-50.44 97.11-105.49z" fill="#cca300"/>
  <path id="path33" d="m229.52 243.56c0 8.23 1.44 16.4 4.25 24.14l0.69 1.89c3.61 10 6.61 20.2 9 30.55 10.63 39.63 8.97 81.56-4.76 120.23l-9.18 29.84h-17.66c-9.75 0-17.65 7.9-17.65 17.65v44.14h158.9c9.75 0 17.65-7.9 17.65-17.66v-44.13l9.18-29.84c15.05-48.91 13.73-101.4-3.77-149.49l-1.15-3.18c-2.82-7.74-4.26-15.91-4.26-24.15v-31.69h-141.24z" fill="#88878f"/>
  <path id="path35" d="m233.75 267.65c-2.8-7.69-4.23-15.82-4.23-24.01v-31.78h-35.31l-13.44 67.16c-1.91 9.57 4.29 18.86 13.85 20.78 1.15 0.22 2.31 0.34 3.47 0.34h45.37c-2.39-10.35-5.39-20.55-9-30.55z" fill="#ababb1"/>
  <path id="path37" d="m233.75 267.65l0.71 1.94-0.69-1.89c-2.81-7.74-4.25-15.91-4.25-24.14-0.01 8.22 1.43 16.37 4.23 24.09z" fill="#a97c4f"/>
  <g fill="#cca300">
   <path id="path39" d="m459.04 97.105h-61.8c-4.87 0-8.83 3.945-8.83 8.825h79.45c0-4.88-3.95-8.825-8.82-8.825z"/>
   <path id="path41" d="m388.41 105.93c0 4.87 3.96 8.83 8.83 8.83h61.8c4.87 0 8.82-3.96 8.82-8.83z"/>
   <path id="path43" d="m397.24 88.277h52.97c4.87 0 8.83-3.953 8.83-8.828s-3.96-8.828-8.83-8.828h-52.97c-4.87 0-8.83 3.953-8.83 8.828s3.96 8.828 8.83 8.828z"/>
   <path id="path45" d="m397.24 141.24h52.97c4.87 0 8.83-3.95 8.83-8.83 0-4.87-3.96-8.82-8.83-8.82h-52.97c-4.87 0-8.83 3.95-8.83 8.82 0 4.88 3.96 8.83 8.83 8.83z"/>
   <path id="path47" d="m256 52.965c4.88 0 8.83-3.953 8.83-8.828v-8.825c0-4.878-3.95-8.828-8.83-8.828s-8.83 3.954-8.83 8.828v8.825c0 4.875 3.95 8.828 8.83 8.828z"/>
   <path id="path49" d="m256 97.105c4.88 0 8.83-3.953 8.83-8.828v-8.828c0-4.875-3.95-8.828-8.83-8.828s-8.83 3.953-8.83 8.828v8.828c0 4.875 3.95 8.828 8.83 8.828z"/>
   <path id="path51" d="m256 114.76c-4.88 0-8.83 3.95-8.83 8.83v8.82c0 4.88 3.95 8.83 8.83 8.83s8.83-3.95 8.83-8.83v-8.82c0-4.88-3.95-8.83-8.83-8.83z"/>
   <path id="path53" d="m256 158.9c-4.88 0-8.83 3.95-8.83 8.82v8.83c0 4.88 3.95 8.83 8.83 8.83s8.83-3.95 8.83-8.83v-8.83c0-4.87-3.95-8.82-8.83-8.82z"/>
  </g>
 </g>
</svg>
