<?xml version="1.0" encoding="iso-8859-1"?>
<!-- Generator: Adobe Illustrator 19.0.0, SVG Export Plug-In . SVG Version: 6.00 Build 0)  -->
<svg version="1.1" id="Capa_1" xmlns="http://www.w3.org/2000/svg" xmlns:xlink="http://www.w3.org/1999/xlink" x="0px" y="0px"
	 viewBox="0 0 512 512" style="enable-background:new 0 0 512 512;" xml:space="preserve">
<polygon style="fill:#DD975A;" points="256,512 287.894,512 287.894,224.182 235.984,204.166 "/>
<polygon style="fill:#FAD5A1;" points="224.106,224.182 224.106,512 256,512 256,204.166 "/>
<polygon style="fill:#BD2B0F;" points="287.894,224.182 287.894,160.394 235.984,140.378 256,224.182 "/>
<polygon style="fill:#DB5925;" points="224.106,224.182 256,224.182 256,140.378 224.106,160.394 "/>
<polygon style="fill:#CEC8D7;" points="354.348,0 334.982,0 315.091,10.008 297.465,0 256,0 235.984,80.197 256,160.394 
	297.465,160.394 315.091,150.386 334.983,160.394 354.348,160.394 394.198,120.544 394.198,39.85 "/>
<polygon style="fill:#F7F7F8;" points="157.652,0 117.802,39.85 117.802,120.544 157.652,160.394 177.017,160.394 197.667,150.386 
	214.535,160.394 256,160.394 256,0 214.535,0 197.669,10.008 177.018,0 "/>
<polygon style="fill:#AF7234;" points="334.983,160.394 274.759,80.197 334.982,0 297.465,0 256,55.217 245.992,80.197 256,105.177 
	297.465,160.394 "/>
<polygon style="fill:#E4A02C;" points="214.535,0 177.018,0 237.241,80.197 177.017,160.394 214.535,160.394 256,105.177 
	256,55.217 "/>
<g>
</g>
<g>
</g>
<g>
</g>
<g>
</g>
<g>
</g>
<g>
</g>
<g>
</g>
<g>
</g>
<g>
</g>
<g>
</g>
<g>
</g>
<g>
</g>
<g>
</g>
<g>
</g>
<g>
</g>
</svg>
