<?xml version="1.0" encoding="UTF-8" standalone="no"?>
<svg id="svg2" xmlns:rdf="http://www.w3.org/1999/02/22-rdf-syntax-ns#" xmlns="http://www.w3.org/2000/svg" height="511pt" width="511pt" version="1.1" xmlns:cc="http://creativecommons.org/ns#" xmlns:dc="http://purl.org/dc/elements/1.1/" viewBox="0 -9 511.99878 511">
 <metadata id="metadata17">
  <rdf:RDF>
   <cc:Work rdf:about="">
    <dc:format>image/svg+xml</dc:format>
    <dc:type rdf:resource="http://purl.org/dc/dcmitype/StillImage"/>
    <dc:title/>
   </cc:Work>
  </rdf:RDF>
 </metadata>
 <g id="surface1">
  <path id="path5" d="m109.64 347.17l-103.83 92.9c-7.1928 6.46-7.7905 17.53-1.3256 24.72 0.2031 0.23 0.4101 0.45 0.625 0.66l11.672 11.68 321.91-321.91-18.58-18.57z" fill="#754c28"/>
  <path id="path7" d="m28.457 488.88c6.848 6.82 17.934 6.8 24.762-0.04 0.215-0.22 0.426-0.44 0.629-0.67l92.892-103.83 210.52-210.51-18.57-18.58-321.91 321.92z" fill="#886647"/>
  <path id="path9" d="m500.4 143.64c-11.36-11.36-29-13.52-42.78-5.25l-7.5 4.5-6.2-6.19c-6.83-6.84-6.83-17.93 0-24.76 6.84-6.84 6.85-17.924 0.01-24.764 0 0 0-0.004-0.01-0.004l-18.56-18.57-86.68 86.668 30.95 30.96 12.38-12.38c6.83-6.84 17.92-6.84 24.76 0h0.01l6.18 6.19-4.5 7.51c-8.28 13.77-6.11 31.41 5.25 42.78l11.62 11.62 86.67-86.67z" fill="#b8b7bb"/>
  <path id="path11" d="m400.99 44.219c-25.17-25.168-58.97-39.813-94.55-40.953l-85.41-2.766 95.71 45.324c14.51 6.875 27.73 16.192 39.08 27.543l1.42 1.418-49.53 49.525 12.38 12.38 18.58 18.57 86.67-86.674z" fill="#ababb1"/>
 </g>
</svg>
