<?xml version="1.0" encoding="iso-8859-1"?>
<!-- Generator: Adobe Illustrator 19.0.0, SVG Export Plug-In . SVG Version: 6.00 Build 0)  -->
<svg version="1.1" id="Layer_1" xmlns="http://www.w3.org/2000/svg" xmlns:xlink="http://www.w3.org/1999/xlink" x="0px" y="0px"
	 viewBox="0 0 512 512" style="enable-background:new 0 0 512 512;" xml:space="preserve">
<path style="fill:#B7000A;" d="M421.502,124.073H90.498c-19.649,0-35.579-15.93-35.579-35.579s15.93-35.579,35.579-35.579h331.003
	c19.649,0,35.579,15.93,35.579,35.579S441.151,124.073,421.502,124.073z"/>
<rect x="338.43" y="52.915" style="fill:#7F1B12;" width="72.345" height="71.159"/>
<path style="fill:#AEACB3;" d="M303.439,452.674c0,3.133-0.999,6.185-2.852,8.711l-32.71,44.596
	c-2.775,3.783-7.186,6.018-11.876,6.018s-9.102-2.234-11.876-6.018l-32.71-44.596c-1.852-2.526-2.852-5.578-2.852-8.711V119.123
	h94.878V452.674L303.439,452.674z"/>
<rect x="208.566" y="119.119" style="fill:#555558;" width="94.878" height="86.571"/>
<path style="fill:#D9D8DB;" d="M208.561,403.433v49.241c0,3.133,1,6.185,2.852,8.711l32.71,44.597
	C246.898,509.766,251.309,512,256,512s9.102-2.234,11.876-6.018l32.71-44.597c1.854-2.526,2.852-5.578,2.852-8.711v-49.241H208.561z
	"/>
<rect x="208.566" y="403.433" style="fill:#AEACB3;" width="94.878" height="26.411"/>
<path style="fill:#272728;" d="M331.601,413.072H180.398c-16.375,0-29.649-13.273-29.649-29.649
	c0-16.376,13.275-29.649,29.649-29.649h151.204c16.376,0,29.649,13.273,29.649,29.649
	C361.251,399.798,347.977,413.072,331.601,413.072z"/>
<path style="fill:#FF4B00;" d="M387.161,141.411c0,19.649-15.929,35.577-35.577,35.577H160.416
	c-19.649,0-35.577-15.929-35.577-35.577V35.578C124.839,15.929,140.768,0,160.416,0h191.166c19.649,0,35.577,15.929,35.577,35.578
	v105.833H387.161z"/>
<path style="fill:#F20013;" d="M351.583,0h-96.176v176.988h96.176c19.649,0,35.578-15.929,35.578-35.578V35.578
	C387.161,15.929,371.232,0,351.583,0z"/>
<g>
</g>
<g>
</g>
<g>
</g>
<g>
</g>
<g>
</g>
<g>
</g>
<g>
</g>
<g>
</g>
<g>
</g>
<g>
</g>
<g>
</g>
<g>
</g>
<g>
</g>
<g>
</g>
<g>
</g>
</svg>
