<?xml version="1.0" encoding="UTF-8" standalone="no"?>
<svg id="svg2" xmlns:rdf="http://www.w3.org/1999/02/22-rdf-syntax-ns#" xmlns="http://www.w3.org/2000/svg" height="512pt" width="512pt" version="1.1" xmlns:cc="http://creativecommons.org/ns#" xmlns:dc="http://purl.org/dc/elements/1.1/" viewBox="0 -168 512 512">
 <metadata id="metadata31">
  <rdf:RDF>
   <cc:Work rdf:about="">
    <dc:format>image/svg+xml</dc:format>
    <dc:type rdf:resource="http://purl.org/dc/dcmitype/StillImage"/>
    <dc:title/>
   </cc:Work>
  </rdf:RDF>
 </metadata>
 <g id="surface1">
  <path id="path5" d="m0 0h35.312v176.55h-35.312z" fill="#69553d"/>
  <path id="path7" d="m476.69 0h35.31v176.55h-35.31z" fill="#69553d"/>
  <g fill="#7ed63d">
   <path id="path9" d="m176.55 88.277h-105.93c-0.007-2.961 0.259-5.918 0.794-8.828 4.848-28.812 32.136-48.242 60.946-43.398 22.24 3.742 39.66 21.164 43.4 43.398 0.53 2.91 0.8 5.867 0.79 8.828z"/>
   <path id="path11" d="m176.55 88.277c0.01 2.961-0.26 5.914-0.79 8.825-4.85 28.818-32.14 48.248-60.95 43.398-22.232-3.74-39.654-21.16-43.396-43.398-0.531-2.911-0.801-5.864-0.793-8.825z"/>
   <path id="path13" d="m450.21 88.277c0 2.961-0.26 5.914-0.8 8.825-4.84 28.818-32.13 48.248-60.95 43.398-22.23-3.74-39.65-21.16-43.39-43.398-0.53-2.911-0.8-5.864-0.79-8.825z"/>
   <path id="path15" d="m450.21 88.277h-105.93c-0.01-2.961 0.26-5.918 0.79-8.828 4.84-28.812 32.13-48.242 60.95-43.398 22.23 3.742 39.65 21.164 43.39 43.398 0.54 2.91 0.8 5.867 0.8 8.828z"/>
  </g>
  <path id="path17" d="m203.04 0h105.92v52.965h-105.92z" fill="#957855"/>
  <path id="path19" d="m176.55 88.277c0.01 2.961-0.26 5.914-0.79 8.825h-104.35c-1.055-5.836-1.055-11.817 0.004-17.653h104.35c0.53 2.91 0.8 5.867 0.79 8.828z" fill="#4d8f1e"/>
  <path id="path21" d="m450.21 88.277c0 2.961-0.26 5.914-0.8 8.825h-104.34c-1.06-5.836-1.06-11.817 0-17.653h104.34c0.54 2.91 0.8 5.867 0.8 8.828z" fill="#4d8f1e"/>
  <path id="path23" d="m70.621 88.277c-0.168-29.254 23.406-53.101 52.659-53.273 29.25-0.168 53.1 23.406 53.27 52.66 0.02 3.164-0.25 6.324-0.79 9.441h169.31c-5.05-28.812 14.22-56.265 43.03-61.312s56.26 14.219 61.31 43.031c1.06 6.047 1.06 12.235 0 18.281h27.28v-97.105h-167.73v52.965h-105.92v-52.965h-167.73l0.002 97.102h36.102c-0.512-2.914-0.777-5.868-0.793-8.825z" fill="#f1ece6"/>
  <path id="path25" d="m449.41 97.102c-4.84 28.818-32.13 48.248-60.95 43.398-22.23-3.74-39.65-21.16-43.39-43.398h-169.31c-4.85 28.818-32.14 48.248-60.95 43.398-22.236-3.74-39.658-21.16-43.396-43.398h-36.102v79.448h441.38v-79.448z" fill="#ebe5dd"/>
 </g>
</svg>
