<?xml version="1.0" encoding="UTF-8" standalone="no"?>
<svg id="svg2" xmlns:rdf="http://www.w3.org/1999/02/22-rdf-syntax-ns#" xmlns="http://www.w3.org/2000/svg" height="457pt" width="457pt" version="1.1" xmlns:cc="http://creativecommons.org/ns#" xmlns:dc="http://purl.org/dc/elements/1.1/" viewBox="0 0 457 457.24458">
 <metadata id="metadata21">
  <rdf:RDF>
   <cc:Work rdf:about="">
    <dc:format>image/svg+xml</dc:format>
    <dc:type rdf:resource="http://purl.org/dc/dcmitype/StillImage"/>
    <dc:title/>
   </cc:Work>
  </rdf:RDF>
 </metadata>
 <g id="surface1">
  <path id="path5" d="m84.977 84.855l-84.856 84.845 90.512 90.51 56.567-56.56 28.28-28.29z" fill="#95949c"/>
  <path id="path7" d="m203.77 147.08l56.57-56.568-90.51-90.512-84.853 84.855 90.503 90.505z" fill="#a3a2a9"/>
  <path id="path9" d="m175.48 175.36l-28.28 28.29 22.63 22.62 11.31-11.31 16.97-16.97z" fill="#d2d1d6"/>
  <path id="path11" d="m198.11 197.99l16.97-16.97 11.31-11.32-22.62-22.62-28.29 28.28z" fill="#e6e6e7"/>
  <path id="path13" d="m452.68 418.61l-237.61-237.6-16.96 16.97 248.9 248.91 5.67-5.66c6.24-6.25 6.24-16.37 0-22.62z" fill="#754c28"/>
  <path id="path15" d="m181.14 214.96l237.6 237.6c6.24 6.24 16.37 6.24 22.62 0l5.66-5.67-248.91-248.9z" fill="#603812"/>
 </g>
</svg>
