<?xml version="1.0" encoding="iso-8859-1"?>
<!-- Generator: Adobe Illustrator 19.0.0, SVG Export Plug-In . SVG Version: 6.00 Build 0)  -->
<svg version="1.1" id="Capa_1" xmlns="http://www.w3.org/2000/svg" xmlns:xlink="http://www.w3.org/1999/xlink" x="0px" y="0px"
	 viewBox="0 0 512 512" style="enable-background:new 0 0 512 512;" xml:space="preserve">
<g>
	<path style="fill:#EDEDED;" d="M505.448,6.548c-8.726-8.734-22.885-8.728-31.608,0l-97.029,97.037l31.602,31.61l97.035-97.039
		C514.182,29.431,514.169,15.276,505.448,6.548z"/>
	<path style="fill:#EDEDED;" d="M363.041,255.24c-3.034,3.036-8.002,3.036-11.036,0l0,0c-3.038-3.036-3.038-8.004,0-11.046
		l107.323-107.321c3.036-3.032,3.036-8.01,0-11.04l-7.163-7.165c-3.042-3.034-3.03-8.006,0-11.044l0,0
		c3.036-3.03,8.004-3.034,11.042,0l18.209,18.209c3.026,3.03,3.026,8.006,0,11.04L363.041,255.24z"/>
	<polygon style="fill:#EDEDED;" points="272.169,187.372 23.486,436.07 75.938,488.52 324.622,239.837 	"/>
</g>
<g>
	<path style="fill:#95CEB4;" d="M468.68,111.964c9.121-9.115,9.121-24.02,0.012-33.133l-35.53-35.526
		c-9.105-9.103-24.012-9.103-33.128,0.01L272.131,171.219c-9.111,9.105-9.105,24.02,0,33.124l35.518,35.524
		c9.115,9.115,24.02,9.105,33.124,0L468.68,111.964z"/>
	<polygon style="fill:#95CEB4;" points="0.006,512 75.938,488.52 23.486,436.07 	"/>
</g>
<path style="opacity:0.15;enable-background:new    ;" d="M481.418,125.834l-13.306-13.3l0.569-0.573
	c9.121-9.115,9.121-24.02,0.012-33.133l-1.962-1.952l38.715-38.723c8.734-8.726,8.722-22.881,0-31.608L0.006,512l75.932-23.479
	l242.591-242.595c7.724,1.917,16.238-0.044,22.244-6.056l116.301-116.295l2.256,2.26c3.036,3.03,3.036,8.006,0,11.04
	L352.007,244.196c-3.038,3.04-3.038,8.008,0,11.046c3.034,3.036,8.002,3.036,11.036,0L481.42,136.877
	C484.444,133.84,484.444,128.865,481.418,125.834z"/>
<g>
</g>
<g>
</g>
<g>
</g>
<g>
</g>
<g>
</g>
<g>
</g>
<g>
</g>
<g>
</g>
<g>
</g>
<g>
</g>
<g>
</g>
<g>
</g>
<g>
</g>
<g>
</g>
<g>
</g>
</svg>
