<?xml version="1.0" encoding="iso-8859-1"?>
<!-- Generator: Adobe Illustrator 19.0.0, SVG Export Plug-In . SVG Version: 6.00 Build 0)  -->
<svg version="1.1" id="Capa_1" xmlns="http://www.w3.org/2000/svg" xmlns:xlink="http://www.w3.org/1999/xlink" x="0px" y="0px"
	 viewBox="0 0 512 512" style="enable-background:new 0 0 512 512;" xml:space="preserve">
<rect x="180.5" y="395" style="fill:#FFDBA9;" width="151" height="73.5"/>
<rect x="256.01" y="395" style="fill:#FFBE70;" width="75.49" height="73.5"/>
<path style="fill:#CAE8F9;" d="M461,205c0,5.04-0.18,10.05-0.55,15c-3.28,45.26-21.33,86.5-49.34,118.9
	c-6.55,7.57-13.64,14.66-21.21,21.21c-32.4,28.01-73.64,46.06-118.9,49.34c-4.95,0.37-9.95,0.55-14.99,0.55H256
	c-5.04,0-10.05-0.18-15-0.55c-45.26-3.28-86.5-21.33-118.9-49.34c-7.57-6.55-14.66-13.64-21.21-21.21
	C72.88,306.5,54.83,265.26,51.55,220c-0.37-4.95-0.55-9.96-0.55-15s0.18-10.05,0.55-15c3.28-45.26,21.33-86.5,49.34-118.9
	c6.55-7.57,13.64-14.66,21.21-21.21C154.5,21.88,195.74,3.83,241,0.55C245.95,0.18,250.96,0,256,0h0.01
	c5.04,0,10.04,0.18,14.99,0.55c45.26,3.28,86.5,21.33,118.9,49.34c7.57,6.55,14.66,13.64,21.21,21.21
	c28.01,32.4,46.06,73.64,49.34,118.9C460.82,194.95,461,199.96,461,205z"/>
<path style="fill:#A3D9F6;" d="M461,205c0,5.04-0.18,10.05-0.55,15c-3.28,45.26-21.33,86.5-49.34,118.9
	c-6.55,7.57-13.64,14.66-21.21,21.21c-32.4,28.01-73.64,46.06-118.9,49.34c-4.95,0.37-9.95,0.55-14.99,0.55V0
	c5.04,0,10.04,0.18,14.99,0.55c45.26,3.28,86.5,21.33,118.9,49.34c7.57,6.55,14.66,13.64,21.21,21.21
	c28.01,32.4,46.06,73.64,49.34,118.9C460.82,194.95,461,199.96,461,205z"/>
<rect x="116.72" y="438.5" style="fill:#EB854F;" width="278.56" height="73.5"/>
<g>
	<path style="fill:#49BBEE;" d="M460.45,220c0.37-4.95,0.55-9.96,0.55-15s-0.18-10.05-0.55-15h-75.09
		c-2.84-24.69-12.61-47.3-27.32-65.83l53.07-53.07c-6.55-7.57-13.64-14.66-21.21-21.21l-53.07,53.07
		C318.3,88.25,295.69,78.48,271,75.64V0.55C266.05,0.18,261.05,0,256.01,0H256c-5.04,0-10.05,0.18-15,0.55v75.09
		c-24.69,2.84-47.3,12.61-65.83,27.32L122.1,49.89c-7.57,6.55-14.66,13.64-21.21,21.21l53.07,53.07
		c-14.71,18.53-24.48,41.14-27.32,65.83H51.55c-0.37,4.95-0.55,9.96-0.55,15s0.18,10.05,0.55,15h75.09
		c2.84,24.69,12.61,47.3,27.32,65.83l-53.07,53.07c6.55,7.57,13.64,14.66,21.21,21.21l53.07-53.07
		c18.53,14.71,41.14,24.48,65.83,27.32v75.09c4.95,0.37,9.96,0.55,15,0.55h0.01c5.04,0,10.04-0.18,14.99-0.55v-75.09
		c24.69-2.84,47.3-12.61,65.83-27.32l53.07,53.07c7.57-6.55,14.66-13.64,21.21-21.21l-53.07-53.07
		c14.71-18.53,24.48-41.14,27.32-65.83L460.45,220L460.45,220z M256.01,305.23H256c-55.27,0-100.23-44.96-100.23-100.23
		S200.73,104.77,256,104.77h0.01c55.27,0.01,100.22,44.96,100.22,100.23S311.28,305.22,256.01,305.23z"/>
	
		<rect x="177.152" y="34.659" transform="matrix(-0.3749 -0.9271 0.9271 -0.3749 218.2996 247.1825)" style="fill:#49BBEE;" width="30.668" height="30.668"/>
	
		<rect x="304.159" y="345.153" transform="matrix(-0.9271 0.3747 -0.3747 -0.9271 750.7818 574.9849)" style="fill:#49BBEE;" width="30.663" height="30.663"/>
	
		<rect x="85.961" y="125.041" transform="matrix(-0.9206 -0.3905 0.3905 -0.9206 139.7296 309.1591)" style="fill:#49BBEE;" width="30.667" height="30.667"/>
	
		<rect x="395.373" y="254.779" transform="matrix(-0.3904 0.9207 -0.9207 -0.3904 819.7147 -2.56)" style="fill:#49BBEE;" width="30.665" height="30.665"/>
	
		<rect x="85.412" y="253.422" transform="matrix(-0.9271 0.3749 -0.3749 -0.9271 294.8976 480.144)" style="fill:#49BBEE;" width="30.668" height="30.668"/>
	
		<rect x="395.9" y="126.387" transform="matrix(-0.927 0.375 -0.375 -0.927 845.6022 118.8831)" style="fill:#49BBEE;" width="30.667" height="30.667"/>
	
		<rect x="175.801" y="344.603" transform="matrix(0.9206 0.3905 -0.3905 0.9206 155.731 -46.0603)" style="fill:#49BBEE;" width="30.667" height="30.666"/>
	<polygon style="fill:#49BBEE;" points="340.97,42.43 328.99,70.66 300.76,58.69 312.74,30.45 	"/>
</g>
<g>
	
		<rect x="304.159" y="345.153" transform="matrix(-0.9271 0.3747 -0.3747 -0.9271 750.7818 574.9849)" style="fill:#009AE5;" width="30.663" height="30.663"/>
	<polygon style="fill:#009AE5;" points="328.99,70.66 300.76,58.69 312.74,30.45 340.97,42.43 	"/>
</g>
<rect x="256.01" y="438.5" style="fill:#E0773B;" width="139.27" height="73.5"/>
<g>
	
		<rect x="395.339" y="254.767" transform="matrix(0.9207 0.3904 -0.3904 0.9207 138.0266 -138.8865)" style="fill:#009AE5;" width="30.665" height="30.665"/>
	
		<rect x="395.923" y="126.415" transform="matrix(0.927 -0.375 0.375 0.927 -23.1442 164.5694)" style="fill:#009AE5;" width="30.667" height="30.667"/>
	<path style="fill:#009AE5;" d="M385.36,220c-2.84,24.69-12.61,47.3-27.32,65.83l53.07,53.07c-6.55,7.57-13.64,14.66-21.21,21.21
		l-53.07-53.07c-18.53,14.71-41.14,24.48-65.83,27.32v75.09c-4.95,0.37-9.95,0.55-14.99,0.55V305.23
		c55.27-0.01,100.22-44.96,100.22-100.23s-44.95-100.22-100.22-100.23V0c5.04,0,10.04,0.18,14.99,0.55v75.09
		c24.69,2.84,47.3,12.61,65.83,27.32l53.07-53.07c7.57,6.55,14.66,13.64,21.21,21.21l-53.07,53.07
		c14.71,18.53,24.48,41.14,27.32,65.83h75.09c0.37,4.95,0.55,9.96,0.55,15s-0.18,10.05-0.55,15H385.36z"/>
</g>
<g>
</g>
<g>
</g>
<g>
</g>
<g>
</g>
<g>
</g>
<g>
</g>
<g>
</g>
<g>
</g>
<g>
</g>
<g>
</g>
<g>
</g>
<g>
</g>
<g>
</g>
<g>
</g>
<g>
</g>
</svg>
