<?xml version="1.0" encoding="iso-8859-1"?>
<!-- Generator: Adobe Illustrator 19.0.0, SVG Export Plug-In . SVG Version: 6.00 Build 0)  -->
<svg version="1.1" id="Capa_1" xmlns="http://www.w3.org/2000/svg" xmlns:xlink="http://www.w3.org/1999/xlink" x="0px" y="0px"
	 viewBox="0 0 512 512" style="enable-background:new 0 0 512 512;" xml:space="preserve">
<path style="fill:#FFEA8C;" d="M365.337,512H146.668c-3.562,0-7.008-1.268-9.721-3.575
	C38.091,424.332,30.05,260.409,117.632,163.906L85.768,18.204C83.721,8.847,90.866,0,100.424,0h311.159
	c9.581,0,16.698,8.868,14.656,18.204l-31.864,145.702c87.616,96.539,79.48,260.477-19.315,344.519
	C372.345,510.732,368.899,512,365.337,512z"/>
<path style="fill:#FFCF7C;" d="M394.374,163.906l31.864-145.702C428.28,8.868,421.163,0,411.582,0H255.999v512h109.339
	c3.562,0,7.008-1.268,9.721-3.575C473.854,424.383,481.989,260.446,394.374,163.906z"/>
<g>
	<path style="fill:#FF8988;" d="M451.755,368.091c-29.017,12.115-35.344,4.046-46.384-8.846
		C396.249,348.591,383.756,334,359.725,334s-36.524,14.591-45.647,25.245C305.545,369.21,301.009,374,291.223,374
		c-9.785,0-14.321-4.79-22.853-14.755C259.248,348.591,246.755,334,222.725,334s-36.523,14.591-45.644,25.245
		C168.548,369.21,164.013,374,154.228,374c-9.783,0-14.318-4.79-22.85-14.755c-16.747-19.558-34.696-33.741-74.086-19.578
		c0.505,10.455,1.641,20.76,3.377,30.898c30.642-13.25,37.024-4.532,47.916,8.19C117.707,389.409,130.2,404,154.228,404
		c24.03,0,36.523-14.591,45.644-25.245C208.405,368.79,212.94,364,222.725,364s14.321,4.79,22.853,14.755
		C254.7,389.409,267.193,404,291.223,404c24.031,0,36.524-14.591,45.647-25.245C345.403,368.79,349.939,364,359.725,364
		s14.322,4.79,22.855,14.756c10.833,12.651,26.527,31.16,61.19,23.397C447.221,391.041,449.89,379.677,451.755,368.091z"/>
	<path style="fill:#FF8988;" d="M452.066,287.951c-29.167,12.266-35.459,4.414-46.694-8.706
		C396.249,268.591,383.756,254,359.725,254s-36.525,14.591-45.647,25.244C305.545,289.21,301.009,294,291.223,294
		c-9.785,0-14.321-4.79-22.853-14.755C259.248,268.591,246.755,254,222.725,254s-36.523,14.591-45.644,25.245
		C168.548,289.21,164.013,294,154.228,294c-9.784,0-14.318-4.79-22.85-14.755c-15.579-18.195-31.742-31.222-64.602-22.554
		c-3.204,11.198-5.65,22.697-7.295,34.4c31.451-13.939,37.948-5.365,49.103,7.664C117.707,309.409,130.199,324,154.228,324
		c24.03,0,36.523-14.591,45.645-25.245C208.405,288.79,212.94,284,222.725,284s14.321,4.79,22.853,14.755
		C254.7,309.409,267.193,324,291.223,324c24.031,0,36.524-14.591,45.647-25.245C345.403,288.79,349.939,284,359.725,284
		s14.322,4.79,22.855,14.756c7.731,9.027,17.351,20.263,34.058,24.003c12.704,2.844,25.84,0.473,38.257-3.791
		C454.577,308.514,453.629,298.152,452.066,287.951z"/>
</g>
<g>
	<path style="fill:#FF6D6F;" d="M405.372,359.245C396.249,348.591,383.756,334,359.725,334c-24.031,0-36.524,14.591-45.647,25.245
		C305.545,369.21,301.009,374,291.223,374c-9.785,0-14.321-4.79-22.853-14.755c-3.481-4.065-7.455-8.702-12.371-12.884v43.552
		c8.199,7.531,19.118,14.087,35.224,14.087c24.031,0,36.524-14.591,45.647-25.245C345.403,368.79,349.939,364,359.725,364
		s14.322,4.79,22.855,14.756c10.833,12.651,26.527,31.16,61.19,23.397c3.451-11.112,6.12-22.476,7.985-34.063
		C422.739,380.206,416.411,372.137,405.372,359.245z"/>
	<path style="fill:#FF6D6F;" d="M452.066,287.951c-29.167,12.266-35.459,4.414-46.694-8.706
		C396.249,268.591,383.756,254,359.725,254c-24.031,0-36.524,14.591-45.647,25.244C305.545,289.21,301.009,294,291.223,294
		c-9.785,0-14.321-4.79-22.853-14.755c-3.481-4.065-7.455-8.702-12.371-12.885v43.552c8.199,7.531,19.118,14.087,35.224,14.087
		c24.031,0,36.524-14.591,45.647-25.245C345.403,288.79,349.939,284,359.725,284s14.322,4.79,22.855,14.756
		c7.731,9.027,17.351,20.263,34.058,24.003c12.704,2.844,25.84,0.473,38.257-3.791C454.577,308.514,453.629,298.152,452.066,287.951
		z"/>
</g>
<g>
</g>
<g>
</g>
<g>
</g>
<g>
</g>
<g>
</g>
<g>
</g>
<g>
</g>
<g>
</g>
<g>
</g>
<g>
</g>
<g>
</g>
<g>
</g>
<g>
</g>
<g>
</g>
<g>
</g>
</svg>
