<svg height="512pt" viewBox="0 -31 512 512" width="512pt" xmlns="http://www.w3.org/2000/svg"><path d="m467 210h-422c-8.402344 0-15 6.597656-15 15v210c0 8.398438 6.597656 15 15 15h422c8.402344 0 15-6.601562 15-15v-210c0-8.402344-6.597656-15-15-15zm0 0" fill="#ff6c6c"/><path d="m482 225v210c0 8.398438-6.597656 15-15 15h-211v-240h211c8.402344 0 15 6.597656 15 15zm0 0" fill="#ff4949"/><path d="m376 0c-52.199219 0-97.199219 30.300781-119.699219 73.5-.300781.597656-.300781.898438-.300781.898438-22.199219-43.800782-67.5-74.398438-120-74.398438-41.398438 0-75 33.601562-75 75s33.601562 75 75 75h240c41.398438 0 75-33.601562 75-75s-33.601562-75-75-75zm0 0" fill="#fdbf00"/><path d="m376 150h-120v-75.601562s0-.300782.300781-.898438c22.5-43.199219 67.5-73.5 119.699219-73.5 41.398438 0 75 33.601562 75 75s-33.601562 75-75 75zm0 0" fill="#ff9f00"/><path d="m497 120h-482c-8.402344 0-15 6.597656-15 15v90c0 8.398438 6.597656 15 15 15h482c8.402344 0 15-6.601562 15-15v-90c0-8.402344-6.597656-15-15-15zm0 0" fill="#ff8597"/><path d="m211 120v330h90v-330zm0 0" fill="#ffd400"/><path d="m512 135v90c0 8.398438-6.597656 15-15 15h-241v-120h241c8.402344 0 15 6.597656 15 15zm0 0" fill="#ff6c6c"/><path d="m256 120h45v330h-45zm0 0" fill="#fdbf00"/></svg>