<?xml version="1.0" encoding="UTF-8" standalone="no"?>
<svg id="svg2" xmlns:rdf="http://www.w3.org/1999/02/22-rdf-syntax-ns#" xmlns="http://www.w3.org/2000/svg" height="512pt" width="512pt" version="1.1" xmlns:cc="http://creativecommons.org/ns#" xmlns:dc="http://purl.org/dc/elements/1.1/" viewBox="-141 0 512 512.00091">
 <metadata id="metadata25">
  <rdf:RDF>
   <cc:Work rdf:about="">
    <dc:format>image/svg+xml</dc:format>
    <dc:type rdf:resource="http://purl.org/dc/dcmitype/StillImage"/>
    <dc:title/>
   </cc:Work>
  </rdf:RDF>
 </metadata>
 <g id="surface1">
  <path id="path5" d="m114.76 450.21c9.75 0 17.65 7.9 17.65 17.65s-7.9 17.66-17.65 17.66v26.48h8.83c19.5 0 35.31-15.81 35.31-35.31v-141.24h-44.14z" fill="#9c7558"/>
  <path id="path7" d="m97.105 467.86c0-9.75 7.905-17.65 17.655-17.65v-114.76h-44.139v141.24c0 19.5 15.809 35.31 35.309 35.31h8.83v-26.48c-9.75 0-17.655-7.91-17.655-17.66z" fill="#8b5d3c"/>
  <path id="path9" d="m97.105 467.86c0 9.75 7.905 17.66 17.655 17.66v-35.31c-9.75 0-17.655 7.9-17.655 17.65z" fill="#c39a6b"/>
  <path id="path11" d="m132.41 467.86c0-9.75-7.9-17.65-17.65-17.65v35.31c9.75 0 17.65-7.91 17.65-17.66z" fill="#cca880"/>
  <path id="path13" d="m114.76 0v35.309h113.65l1.11-35.309z" fill="#b8b7bb"/>
  <path id="path15" d="m114.76 0h-114.76l1.1055 35.309h113.65z" fill="#ababb1"/>
  <path id="path17" d="m114.76 35.309h-113.65l5.2923 169.32c1.5469 49.6 23.895 96.25 61.571 128.54l2.648 2.28h44.139z" fill="#dfdfe2"/>
  <path id="path19" d="m114.76 335.45h44.14l2.65-2.28c37.67-32.29 60.02-78.94 61.57-128.54l5.29-169.32-113.65 0.002z" fill="#e8e8ea"/>
 </g>
</svg>
