<svg viewBox="0 0 512 512" xmlns="http://www.w3.org/2000/svg"><g fill="#c78f2c"><path d="m183.34375 41.402344 62.867188 151.773437-27.714844 11.480469-62.867188-151.773438zm0 0"/><path d="m52.875 155.632812 151.773438 62.867188-11.480469 27.71875-151.773438-62.867188zm0 0"/><path d="m193.164062 265.796875 11.480469 27.71875-151.769531 62.867187-11.480469-27.71875zm0 0"/><path d="m218.488281 307.363281 27.71875 11.480469-62.867187 151.773438-27.71875-11.484376zm0 0"/></g><path d="m293.503906 307.363281 62.867188 151.773438-27.71875 11.480469-62.867188-151.773438zm0 0" fill="#825d1d"/><path d="m318.835938 265.800781 151.769531 62.867188-11.480469 27.71875-151.769531-62.867188zm0 0" fill="#825d1d"/><path d="m459.128906 155.636719 11.480469 27.71875-151.773437 62.867187-11.480469-27.71875zm0 0" fill="#825d1d"/><path d="m328.660156 41.40625 27.714844 11.480469-62.867188 151.769531-27.714843-11.480469zm0 0" fill="#825d1d"/><path d="m256 0-20.015625 34.332031 20.015625 29.402344c106.015625 0 192.265625 86.25 192.265625 192.265625s-86.25 192.265625-192.265625 192.265625l-20.015625 34.734375 20.015625 29c141.386719 0 256-114.613281 256-256s-114.613281-256-256-256zm0 0" fill="#c78f2c"/><path d="m63.734375 256c0-106.015625 86.25-192.265625 192.265625-192.265625v-63.734375c-141.386719 0-256 114.613281-256 256s114.613281 256 256 256v-63.734375c-106.015625 0-192.265625-86.25-192.265625-192.265625zm0 0" fill="#e7c994"/><path d="m351.601562 256c0-52.714844-42.886718-95.601562-95.601562-95.601562l-20.015625 95.601562 20.015625 95.601562c52.714844 0 95.601562-42.886718 95.601562-95.601562zm0 0" fill="#c78f2c"/><path d="m256 160.398438c-52.714844 0-95.601562 42.886718-95.601562 95.601562s42.886718 95.601562 95.601562 95.601562zm0 0" fill="#e7c994"/><path d="m297.667969 256c0-22.976562-18.691407-41.667969-41.667969-41.667969l-8.722656 41.667969 8.722656 41.667969c22.976562 0 41.667969-18.691407 41.667969-41.667969zm0 0" fill="#825d1d"/><path d="m256 214.332031c-22.976562 0-41.667969 18.691407-41.667969 41.667969s18.691407 41.667969 41.667969 41.667969zm0 0" fill="#c78f2c"/></svg>