<?xml version="1.0" encoding="UTF-8" standalone="no"?>
<svg id="svg2" xmlns:rdf="http://www.w3.org/1999/02/22-rdf-syntax-ns#" xmlns="http://www.w3.org/2000/svg" height="511pt" width="511pt" version="1.1" xmlns:cc="http://creativecommons.org/ns#" xmlns:dc="http://purl.org/dc/elements/1.1/" viewBox="0 0 511.99886 511">
 <metadata id="metadata29">
  <rdf:RDF>
   <cc:Work rdf:about="">
    <dc:format>image/svg+xml</dc:format>
    <dc:type rdf:resource="http://purl.org/dc/dcmitype/StillImage"/>
    <dc:title/>
   </cc:Work>
  </rdf:RDF>
 </metadata>
 <g id="surface1">
  <path id="path5" d="m473.62 458.84c0 9.86-8 17.86-17.85 17.86-9.86 0-17.86-8-17.86-17.86s8-17.85 17.86-17.85c9.85 0 17.85 7.99 17.85 17.85z" fill="#e6e6e7"/>
  <path id="path7" d="m443.14 446.22c7.09-6.85 18.4-6.65 25.25 0.44 6.68 6.92 6.68 17.89 0 24.8l26.47 26.48c0.47-0.43 1-0.72 1.45-1.17 20.92-20.91 20.92-54.82 0.01-75.74-0.01 0-0.01-0.01-0.01-0.01l-253.61-253.6c-6.45 18.03-16.97 34.32-30.74 47.62l231.2 231.2z" fill="#a3a2a9"/>
  <path id="path9" d="m468.39 471.46c-7.1 6.86-18.4 6.66-25.25-0.43-6.68-6.92-6.68-17.89 0-24.81l-231.19-231.19c-2.97 2.89-6.04 5.7-9.35 8.36-10.69 8.55-22.75 15.22-35.66 19.75l253.6 253.61c20.41 20.36 53.27 20.87 74.3 1.18z" fill="#95949c"/>
  <path id="path11" d="m106.04 169.62l-95.118-95.112c-28.172 62.972 0.035 136.86 63.012 165.04 29.386 13.14 62.706 14.44 93.026 3.61 12.91-4.53 24.97-11.21 35.66-19.75 3.31-2.68 6.38-5.47 9.34-8.37l-75.66-75.66zm-55.895 55.89l54.985-54.99zm68.535-30.63l25.24 25.24zm18.93-18.93l25.24 25.24z" fill="#d7d6d9"/>
  <path id="path13" d="m213.35 37.078c-36.62-36.613-92.04-46.832-139.31-25.691l82.5 82.5c6.98 6.973 6.98 18.273 0.01 25.243l-0.01 0.01-20.24 20.24 75.66 75.67c49.52-47.87 50.86-126.82 3-176.34-0.53-0.546-1.07-1.093-1.61-1.632zm-56.81 119.92l25.25 25.26zm18.93-18.93l25.25 25.25zm17.86-17.85l25.24 25.24z" fill="#dfdfe2"/>
  <g fill="#78767f">
   <path id="path15" d="m181.79 191.18c-2.36 0-4.63-0.94-6.31-2.61l-25.25-25.25c-3.49-3.48-3.49-9.13-0.01-12.62 3.49-3.49 9.14-3.49 12.63-0.01l25.26 25.26c3.48 3.48 3.48 9.13-0.01 12.62-1.67 1.67-3.94 2.61-6.31 2.61z"/>
   <path id="path17" d="m200.73 172.25c-2.37 0-4.64-0.94-6.32-2.61l-25.24-25.26c-3.55-3.42-3.64-9.07-0.22-12.62 3.43-3.55 9.08-3.64 12.62-0.22 0.08 0.07 0.15 0.15 0.22 0.22l25.25 25.25c3.48 3.49 3.48 9.14 0 12.63-1.68 1.67-3.95 2.61-6.31 2.61z"/>
   <path id="path19" d="m218.58 154.4c-2.37 0-4.64-0.94-6.31-2.62l-25.25-25.25c-3.54-3.42-3.64-9.08-0.22-12.62 3.43-3.55 9.08-3.65 12.63-0.22 0.07 0.07 0.14 0.14 0.21 0.22l25.25 25.25c3.49 3.49 3.49 9.14 0 12.63-1.68 1.67-3.94 2.61-6.31 2.61z"/>
   <path id="path21" d="m162.86 210.12c-2.37 0-4.65-0.94-6.32-2.62l-25.24-25.24c-3.49-3.49-3.5-9.14-0.01-12.63s9.14-3.49 12.63-0.01l25.25 25.25c3.49 3.49 3.49 9.14 0 12.63-1.67 1.67-3.94 2.61-6.31 2.61z"/>
   <path id="path23" d="m143.92 229.06c-2.37 0-4.64-0.94-6.31-2.62l-25.25-25.25c-3.43-3.55-3.33-9.2 0.21-12.62 3.46-3.34 8.95-3.34 12.41 0l25.25 25.25c3.48 3.49 3.48 9.14 0 12.63-1.68 1.67-3.94 2.61-6.31 2.61z"/>
  </g>
 </g>
</svg>
